<svg width="42" height="45" viewBox="0 0 42 45" fill="none" xmlns="http://www.w3.org/2000/svg">
<g filter="url(#filter0_d_1210_9925)">
<path fill-rule="evenodd" clip-rule="evenodd" d="M23.3923 35.8103C30.5395 34.6647 36 28.4701 36 21C36 12.7157 29.2843 6 21 6C12.7157 6 6 12.7157 6 21C6 28.4701 11.4605 34.6647 18.6077 35.8103L20.6 38.4667C20.8 38.7333 21.2 38.7333 21.4 38.4667L23.3923 35.8103Z" fill="#7A5CF5"/>
<path d="M21 33C19.34 33 17.78 32.685 16.32 32.055C14.86 31.425 13.59 30.57 12.51 29.49C11.43 28.41 10.575 27.14 9.945 25.68C9.315 24.22 9 22.66 9 21C9 19.34 9.315 17.78 9.945 16.32C10.575 14.86 11.43 13.59 12.51 12.51C13.59 11.43 14.86 10.575 16.32 9.945C17.78 9.315 19.34 9 21 9C22.66 9 24.22 9.315 25.68 9.945C27.14 10.575 28.41 11.43 29.49 12.51C30.57 13.59 31.425 14.86 32.055 16.32C32.685 17.78 33 19.34 33 21C33 22.66 32.685 24.22 32.055 25.68C31.425 27.14 30.57 28.41 29.49 29.49C28.41 30.57 27.14 31.425 25.68 32.055C24.22 32.685 22.66 33 21 33ZM21 27.6C21.9 26.7 22.7 25.77 23.4 24.81C24 23.99 24.55 23.09 25.05 22.11C25.55 21.13 25.8 20.16 25.8 19.2C25.8 17.88 25.33 16.75 24.39 15.81C23.45 14.87 22.32 14.4 21 14.4C19.68 14.4 18.55 14.87 17.61 15.81C16.67 16.75 16.2 17.88 16.2 19.2C16.2 20.16 16.45 21.13 16.95 22.11C17.45 23.09 18 23.99 18.6 24.81C19.3 25.77 20.1 26.7 21 27.6ZM21 21C20.5 21 20.075 20.825 19.725 20.475C19.375 20.125 19.2 19.7 19.2 19.2C19.2 18.7 19.375 18.275 19.725 17.925C20.075 17.575 20.5 17.4 21 17.4C21.5 17.4 21.925 17.575 22.275 17.925C22.625 18.275 22.8 18.7 22.8 19.2C22.8 19.7 22.625 20.125 22.275 20.475C21.925 20.825 21.5 21 21 21Z" fill="white"/>
</g>
<defs>
<filter id="filter0_d_1210_9925" x="0" y="0" width="42" height="45" filterUnits="userSpaceOnUse" color-interpolation-filters="sRGB">
<feFlood flood-opacity="0" result="BackgroundImageFix"/>
<feColorMatrix in="SourceAlpha" type="matrix" values="0 0 0 0 0 0 0 0 0 0 0 0 0 0 0 0 0 0 127 0" result="hardAlpha"/>
<feOffset/>
<feGaussianBlur stdDeviation="3"/>
<feComposite in2="hardAlpha" operator="out"/>
<feColorMatrix type="matrix" values="0 0 0 0 0 0 0 0 0 0 0 0 0 0 0 0 0 0 0.1 0"/>
<feBlend mode="normal" in2="BackgroundImageFix" result="effect1_dropShadow_1210_9925"/>
<feBlend mode="normal" in="SourceGraphic" in2="effect1_dropShadow_1210_9925" result="shape"/>
</filter>
</defs>
</svg>
