<svg width="6" height="10" viewBox="0 0 6 10" fill="none" xmlns="http://www.w3.org/2000/svg">
<path d="M3.87435 5.0013L0.457682 1.58464C0.304905 1.43186 0.228516 1.25477 0.228516 1.05339C0.228516 0.851997 0.304905 0.674913 0.457682 0.522135C0.61046 0.369358 0.787543 0.292969 0.988932 0.292969C1.19032 0.292969 1.36977 0.371719 1.52727 0.529219L5.47852 4.48047C5.54796 4.55547 5.60004 4.63672 5.63477 4.72422C5.66949 4.81172 5.68685 4.90547 5.68685 5.00547C5.68685 5.10547 5.66949 5.19922 5.63477 5.28672C5.60004 5.37422 5.54796 5.45269 5.47852 5.52214L1.52727 9.47339C1.36977 9.63089 1.19379 9.70616 0.999349 9.69922C0.804905 9.69227 0.631293 9.61241 0.478516 9.45964C0.325738 9.30686 0.249349 9.12978 0.249349 8.92839C0.249349 8.727 0.325738 8.54991 0.478516 8.39714L3.87435 5.0013Z" fill="#1C1B1F"/>
</svg>
