<svg xmlns="http://www.w3.org/2000/svg" width="20" height="20" viewBox="0 0 20 20" fill="none">
<mask id="mask0_718_17087" style="mask-type:alpha" maskUnits="userSpaceOnUse" x="0" y="0" width="20" height="20">
<rect width="20" height="20" fill="#D9D9D9"/>
</mask>
<g mask="url(#mask0_718_17087)">
<path d="M10.8743 10.0013L7.45768 6.58464C7.3049 6.43186 7.22852 6.25477 7.22852 6.05339C7.22852 5.852 7.3049 5.67491 7.45768 5.52214C7.61046 5.36936 7.78754 5.29297 7.98893 5.29297C8.19032 5.29297 8.36977 5.37172 8.52727 5.52922L12.4785 9.48047C12.548 9.55547 12.6 9.63672 12.6348 9.72422C12.6695 9.81172 12.6868 9.90547 12.6868 10.0055C12.6868 10.1055 12.6695 10.1992 12.6348 10.2867C12.6 10.3742 12.548 10.4527 12.4785 10.5221L8.52727 14.4734C8.36977 14.6309 8.19379 14.7062 7.99935 14.6992C7.8049 14.6923 7.63129 14.6124 7.47852 14.4596C7.32574 14.3069 7.24935 14.1298 7.24935 13.9284C7.24935 13.727 7.32574 13.5499 7.47852 13.3971L10.8743 10.0013Z" fill="#F4EEFF"/>
</g>
</svg>