<svg width="24" height="24" viewBox="0 0 24 24" fill="none" xmlns="http://www.w3.org/2000/svg">
<g id="icon/icon-title-bar">
<mask id="mask0_684_9701" style="mask-type:alpha" maskUnits="userSpaceOnUse" x="0" y="0" width="24" height="24">
<rect id="Bounding box" width="24" height="24" fill="#D9D9D9"/>
</mask>
<g mask="url(#mask0_684_9701)">
<path id="arrow_back_ios" d="M3.725 11.9996L11.075 19.3496C11.325 19.5996 11.4458 19.8913 11.4375 20.2246C11.4292 20.558 11.3 20.8496 11.05 21.0996C10.8 21.3496 10.5083 21.4746 10.175 21.4746C9.84167 21.4746 9.55 21.3496 9.3 21.0996L1.6 13.4246C1.4 13.2246 1.25 12.9996 1.15 12.7496C1.05 12.4996 1 12.2496 1 11.9996C1 11.7496 1.05 11.4996 1.15 11.2496C1.25 10.9996 1.4 10.7746 1.6 10.5746L9.3 2.87462C9.55 2.62462 9.84583 2.50379 10.1875 2.51212C10.5292 2.52046 10.825 2.64962 11.075 2.89962C11.325 3.14962 11.45 3.44129 11.45 3.77462C11.45 4.10796 11.325 4.39962 11.075 4.64962L3.725 11.9996Z" fill="#1A1C1C"/>
</g>
</g>
</svg>
