<svg width="16" height="16" viewBox="0 0 16 16" fill="none" xmlns="http://www.w3.org/2000/svg">
<rect width="16" height="16" rx="8" fill="#1A1C1C"/>
<path fill-rule="evenodd" clip-rule="evenodd" d="M4.18499 4.18499C4.43163 3.93834 4.83153 3.93834 5.07817 4.18499L8 7.10681L10.9218 4.18499C11.1685 3.93834 11.5684 3.93834 11.815 4.18499C12.0617 4.43163 12.0617 4.83153 11.815 5.07817L8.89319 8L11.815 10.9218C12.0617 11.1685 12.0617 11.5684 11.815 11.815C11.5684 12.0617 11.1685 12.0617 10.9218 11.815L8 8.89319L5.07817 11.815C4.83153 12.0617 4.43163 12.0617 4.18499 11.815C3.93834 11.5684 3.93834 11.1685 4.18499 10.9218L7.10681 8L4.18499 5.07817C3.93834 4.83153 3.93834 4.43163 4.18499 4.18499Z" fill="white"/>
</svg>
