<svg xmlns="http://www.w3.org/2000/svg" width="48" height="48" viewBox="0 0 48 48" fill="none">
<mask id="mask0_684_10143" style="mask-type:alpha" maskUnits="userSpaceOnUse" x="0" y="0" width="48" height="48">
<rect width="48" height="48" fill="#D9D9D9"/>
</mask>
<g mask="url(#mask0_684_10143)">
<path d="M34.25 25.3992H9.5C9.06667 25.3992 8.70833 25.2576 8.425 24.9742C8.14167 24.6909 8 24.3326 8 23.8992C8 23.4659 8.14167 23.1076 8.425 22.8242C8.70833 22.5409 9.06667 22.3992 9.5 22.3992H34.25L26.85 14.9992C26.55 14.6992 26.4083 14.3492 26.425 13.9492C26.4417 13.5492 26.6 13.1992 26.9 12.8992C27.2 12.5992 27.55 12.4492 27.95 12.4492C28.35 12.4492 28.7 12.5992 29 12.8992L38.95 22.8492C39.1167 23.0159 39.2333 23.1826 39.3 23.3492C39.3667 23.5159 39.4 23.6992 39.4 23.8992C39.4 24.0992 39.3667 24.2826 39.3 24.4492C39.2333 24.6159 39.1167 24.7826 38.95 24.9492L29.05 34.8492C28.75 35.1492 28.4 35.2992 28 35.2992C27.6 35.2992 27.25 35.1492 26.95 34.8492C26.65 34.5492 26.5 34.1909 26.5 33.7742C26.5 33.3576 26.65 32.9992 26.95 32.6992L34.25 25.3992Z" fill="#CABEFF"/>
</g>
</svg>