<svg width="23" height="20" viewBox="0 0 23 20" fill="none" xmlns="http://www.w3.org/2000/svg">
<path d="M15.5992 9.43828C15.5 9.87247 14.9672 9.96874 14.6522 9.65381L14.2239 9.22549C13.9896 8.99112 13.9024 8.65503 13.8934 8.3237C13.8774 7.73623 13.6377 7.17859 13.1742 6.65078C12.6847 6.09331 12.0788 5.81315 11.3563 5.8103C11.0364 5.80904 10.7154 5.71694 10.4891 5.49071L10.0462 5.04775C9.73126 4.73282 9.82754 4.20002 10.2617 4.10078C10.5534 4.03411 10.8659 4.00078 11.1992 4.00078C12.4492 4.00078 13.5117 4.43828 14.3867 5.31328C15.2617 6.18828 15.6992 7.25078 15.6992 8.50078C15.6992 8.83412 15.6659 9.14662 15.5992 9.43828ZM19.1596 12.9078C18.7919 13.2347 18.238 13.1986 17.884 12.8568C17.4448 12.4328 17.4897 11.7195 17.935 11.3018C18.2204 11.0341 18.4877 10.7546 18.7367 10.4633C19.2284 9.88828 19.6492 9.23412 19.9992 8.50078C19.1659 6.81745 17.9701 5.47995 16.4117 4.48828C14.8534 3.49661 13.1159 3.00078 11.1992 3.00078C10.7159 3.00078 10.2409 3.03411 9.77422 3.10078C9.50489 3.13926 9.23834 3.18884 8.97456 3.24952C8.61723 3.33172 8.23777 3.23933 7.9785 2.98006L7.90707 2.90863C7.40323 2.4048 7.57641 1.55387 8.26516 1.37135C8.49147 1.31138 8.71949 1.25869 8.94922 1.21328C9.66588 1.07161 10.4159 1.00078 11.1992 1.00078C13.7159 1.00078 15.9576 1.69661 17.9242 3.08828C19.8909 4.47995 21.3159 6.28412 22.1992 8.50078C21.8159 9.48412 21.3117 10.3966 20.6867 11.2383C20.2326 11.8498 19.7236 12.4063 19.1596 12.9078ZM19.6971 18.9029C19.311 19.289 18.6856 19.2909 18.2971 18.9071L14.7992 15.4508C14.2159 15.6341 13.6284 15.7716 13.0367 15.8633C12.4451 15.955 11.8326 16.0008 11.1992 16.0008C8.68255 16.0008 6.44089 15.3049 4.47422 13.9133C2.50755 12.5216 1.08255 10.7174 0.199219 8.50078C0.549219 7.61745 0.990885 6.79662 1.52422 6.03828C2.05755 5.27995 2.66589 4.60078 3.34922 4.00078L1.28976 1.90388C0.907383 1.51455 0.910196 0.889804 1.29607 0.503934C1.68441 0.115594 2.31403 0.115594 2.70237 0.503935L19.6971 17.4987C20.0849 17.8864 20.0849 18.5151 19.6971 18.9029ZM4.74922 5.40078C4.26589 5.83412 3.82422 6.30911 3.42422 6.82578C3.02422 7.34245 2.68255 7.90078 2.39922 8.50078C3.23255 10.1841 4.42839 11.5216 5.98672 12.5133C7.54505 13.5049 9.28255 14.0008 11.1992 14.0008C11.5326 14.0008 11.8576 13.9799 12.1742 13.9383C12.4909 13.8966 12.8159 13.8508 13.1492 13.8008L12.2492 12.8508C12.0659 12.9008 11.8909 12.9383 11.7242 12.9633C11.5576 12.9883 11.3826 13.0008 11.1992 13.0008C9.94922 13.0008 8.88672 12.5633 8.01172 11.6883C7.13672 10.8133 6.69922 9.75078 6.69922 8.50078C6.69922 8.31745 6.71172 8.14245 6.73672 7.97578C6.76172 7.80912 6.79922 7.63412 6.84922 7.45078L4.74922 5.40078Z" fill="#1A1C1C"/>
</svg>
