<svg xmlns="http://www.w3.org/2000/svg" width="24" height="24" viewBox="0 0 24 24" fill="none">
<mask id="mask0_914_1378" style="mask-type:alpha" maskUnits="userSpaceOnUse" x="0" y="0" width="24" height="24">
<rect width="24" height="24" fill="#D9D9D9"/>
</mask>
<g mask="url(#mask0_914_1378)">
<path d="M4.85714 22C4.07143 22 3.39881 21.7202 2.83929 21.1607C2.27976 20.6012 2 19.9286 2 19.1429V4.85714C2 4.07143 2.27976 3.39881 2.83929 2.83929C3.39881 2.27976 4.07143 2 4.85714 2H19.1429C19.9286 2 20.6012 2.27976 21.1607 2.83929C21.7202 3.39881 22 4.07143 22 4.85714V19.1429C22 19.9286 21.7202 20.6012 21.1607 21.1607C20.6012 21.7202 19.9286 22 19.1429 22H4.85714ZM4.85714 19.1429H19.1429V4.85714H4.85714V19.1429ZM6.28571 16.2857H17.7143L13.9643 11.2857L11.2857 14.8571L9.32143 12.25L6.28571 16.2857Z" fill="#1A1C1C"/>
</g>
</svg>