<svg width="32" height="32" viewBox="0 0 32 32" fill="none" xmlns="http://www.w3.org/2000/svg">
<mask id="mask0_669_8539" style="mask-type:alpha" maskUnits="userSpaceOnUse" x="0" y="0" width="32" height="32">
<rect width="32" height="32" fill="#D9D9D9"/>
</mask>
<g mask="url(#mask0_669_8539)">
<path d="M8.00065 25.3346H12.0007V18.668C12.0007 18.2902 12.1284 17.9735 12.384 17.718C12.6395 17.4624 12.9562 17.3346 13.334 17.3346H18.6673C19.0451 17.3346 19.3618 17.4624 19.6173 17.718C19.8729 17.9735 20.0007 18.2902 20.0007 18.668V25.3346H24.0007V13.3346L16.0007 7.33464L8.00065 13.3346V25.3346ZM5.33398 25.3346V13.3346C5.33398 12.9124 5.42843 12.5124 5.61732 12.1346C5.80621 11.7569 6.06732 11.4457 6.40065 11.2013L14.4007 5.2013C14.8673 4.84575 15.4007 4.66797 16.0007 4.66797C16.6007 4.66797 17.134 4.84575 17.6007 5.2013L25.6007 11.2013C25.934 11.4457 26.1951 11.7569 26.384 12.1346C26.5729 12.5124 26.6673 12.9124 26.6673 13.3346V25.3346C26.6673 26.068 26.4062 26.6957 25.884 27.218C25.3618 27.7402 24.734 28.0013 24.0007 28.0013H18.6673C18.2895 28.0013 17.9729 27.8735 17.7173 27.618C17.4618 27.3624 17.334 27.0457 17.334 26.668V20.0013H14.6673V26.668C14.6673 27.0457 14.5395 27.3624 14.284 27.618C14.0284 27.8735 13.7118 28.0013 13.334 28.0013H8.00065C7.26732 28.0013 6.63954 27.7402 6.11732 27.218C5.5951 26.6957 5.33398 26.068 5.33398 25.3346Z" fill="#AAABAB"/>
</g>
</svg>
