<svg width="16" height="16" viewBox="0 0 16 16" fill="none" xmlns="http://www.w3.org/2000/svg">
<mask id="mask0_1874_6429" style="mask-type:alpha" maskUnits="userSpaceOnUse" x="0" y="0" width="16" height="16">
<rect width="16" height="16" fill="#D9D9D9"/>
</mask>
<g mask="url(#mask0_1874_6429)">
<path d="M7.99998 9.71664L9.71148 11.05C9.83492 11.1389 9.95831 11.1416 10.0816 11.0583C10.205 10.975 10.2444 10.8611 10.2 10.7166L9.53331 8.56664L11.2666 7.34998C11.3889 7.26109 11.4305 7.1472 11.3916 7.00831C11.3528 6.86942 11.2582 6.79998 11.108 6.79998H8.96664L8.29998 4.49998C8.24909 4.34442 8.15242 4.26664 8.00998 4.26664C7.86753 4.26664 7.77086 4.34442 7.71998 4.49998L7.03331 6.79998H4.93331C4.77775 6.79998 4.68053 6.86942 4.64164 7.00831C4.60275 7.1472 4.64559 7.2632 4.77014 7.35631L6.46664 8.56664L5.79998 10.7166C5.75553 10.8611 5.79498 10.975 5.91831 11.0583C6.04164 11.1416 6.16503 11.1389 6.28848 11.05L7.99998 9.71664ZM7.99681 14.4C7.11003 14.4 6.2777 14.232 5.49981 13.896C4.72203 13.56 4.04542 13.104 3.46998 12.528C2.89464 11.952 2.43914 11.2746 2.10348 10.496C1.76781 9.71731 1.59998 8.88531 1.59998 7.99998C1.59998 7.11464 1.76781 6.28264 2.10348 5.50398C2.43914 4.72531 2.89464 4.04798 3.46998 3.47198C4.04542 2.89598 4.72203 2.43998 5.49981 2.10398C6.2777 1.76798 7.1102 1.59998 7.99731 1.59998C8.88442 1.59998 9.71809 1.76781 10.4983 2.10348C11.2784 2.43914 11.9571 2.8947 12.5343 3.47014C13.1114 4.04559 13.5666 4.72325 13.9 5.50314C14.2333 6.28303 14.4 7.11636 14.4 8.00314C14.4 8.88992 14.2321 9.72292 13.8965 10.5021C13.5608 11.2813 13.1053 11.959 12.5298 12.5355C11.9544 13.1118 11.2767 13.5666 10.4968 13.9C9.71692 14.2333 8.88359 14.4 7.99681 14.4Z" fill="#7A5CF5"/>
</g>
</svg>
