<svg width="34" height="44" viewBox="0 0 34 44" fill="none" xmlns="http://www.w3.org/2000/svg">
<path d="M4.10767 43.2757C3.171 43.2757 2.369 42.9422 1.70167 42.2752C1.03467 41.6079 0.701172 40.8059 0.701172 39.8692V18.3842C0.701172 17.4442 1.03467 16.6396 1.70167 15.9702C2.369 15.3006 3.171 14.9657 4.10767 14.9657H7.36867V10.4292C7.36867 7.75022 8.30651 5.46922 10.1822 3.58622C12.0575 1.70322 14.331 0.761719 17.0027 0.761719C19.6743 0.761719 21.947 1.70322 23.8207 3.58622C25.6947 5.46922 26.6317 7.75022 26.6317 10.4292V14.9657H29.8927C30.8327 14.9657 31.6373 15.3006 32.3067 15.9702C32.9763 16.6396 33.3112 17.4442 33.3112 18.3842V39.8692C33.3112 40.8059 32.9763 41.6079 32.3067 42.2752C31.6373 42.9422 30.8327 43.2757 29.8927 43.2757H4.10767ZM4.10767 39.8692H29.8927V18.3842H4.10767V39.8692ZM17.0087 32.9767C18.0697 32.9767 18.9752 32.6096 19.7252 31.8752C20.4752 31.1409 20.8502 30.2581 20.8502 29.2267C20.8502 28.2267 20.4723 27.3184 19.7167 26.5017C18.961 25.6851 18.0527 25.2767 16.9917 25.2767C15.9307 25.2767 15.0252 25.6851 14.2752 26.5017C13.5252 27.3184 13.1502 28.2351 13.1502 29.2517C13.1502 30.2684 13.528 31.1434 14.2837 31.8767C15.0393 32.6101 15.9477 32.9767 17.0087 32.9767ZM10.7752 14.9657H23.2252V10.4317C23.2252 8.68539 22.6227 7.20689 21.4177 5.99622C20.2127 4.78555 18.743 4.18022 17.0087 4.18022C15.2747 4.18022 13.8023 4.78555 12.5917 5.99622C11.3807 7.20689 10.7752 8.68539 10.7752 10.4317V14.9657Z" fill="#CABEFF"/>
</svg>
