<svg xmlns="http://www.w3.org/2000/svg" width="48" height="48" viewBox="0 0 48 48" fill="none">
<mask id="mask0_771_3613" style="mask-type:alpha" maskUnits="userSpaceOnUse" x="0" y="0" width="48" height="48">
<rect width="48" height="48" fill="#D9D9D9"/>
</mask>
<g mask="url(#mask0_771_3613)">
<path d="M11.1077 44.2757C10.171 44.2757 9.369 43.9422 8.70167 43.2752C8.03467 42.6079 7.70117 41.8059 7.70117 40.8692V19.3842C7.70117 18.4442 8.03467 17.6396 8.70167 16.9702C9.369 16.3006 10.171 15.9657 11.1077 15.9657H14.3687V11.4292C14.3687 8.75022 15.3065 6.46922 17.1822 4.58622C19.0575 2.70322 21.331 1.76172 24.0027 1.76172C26.6743 1.76172 28.947 2.70322 30.8207 4.58622C32.6947 6.46922 33.6317 8.75022 33.6317 11.4292V15.9657H36.8927C37.8327 15.9657 38.6373 16.3006 39.3067 16.9702C39.9763 17.6396 40.3112 18.4442 40.3112 19.3842V40.8692C40.3112 41.8059 39.9763 42.6079 39.3067 43.2752C38.6373 43.9422 37.8327 44.2757 36.8927 44.2757H11.1077ZM11.1077 40.8692H36.8927V19.3842H11.1077V40.8692ZM24.0087 33.9767C25.0697 33.9767 25.9752 33.6096 26.7252 32.8752C27.4752 32.1409 27.8502 31.2581 27.8502 30.2267C27.8502 29.2267 27.4723 28.3184 26.7167 27.5017C25.961 26.6851 25.0527 26.2767 23.9917 26.2767C22.9307 26.2767 22.0252 26.6851 21.2752 27.5017C20.5252 28.3184 20.1502 29.2351 20.1502 30.2517C20.1502 31.2684 20.528 32.1434 21.2837 32.8767C22.0393 33.6101 22.9477 33.9767 24.0087 33.9767ZM17.7752 15.9657H30.2252V11.4317C30.2252 9.68539 29.6227 8.20689 28.4177 6.99622C27.2127 5.78555 25.743 5.18022 24.0087 5.18022C22.2747 5.18022 20.8023 5.78555 19.5917 6.99622C18.3807 8.20689 17.7752 9.68539 17.7752 11.4317V15.9657Z" fill="#CABEFF"/>
</g>
</svg>