<svg width="123" height="34" viewBox="0 0 123 34" fill="none" xmlns="http://www.w3.org/2000/svg">
<path d="M0.909906 14.06C0.909906 12.428 1.12591 10.928 1.55791 9.56C1.98991 8.192 2.58991 7.028 3.35791 6.068C4.14991 5.084 5.09791 4.328 6.20191 3.8C7.30591 3.248 8.54191 2.972 9.90991 2.972C11.0859 2.972 12.1659 3.176 13.1499 3.584C14.1579 3.992 15.0339 4.58 15.7779 5.348C16.5459 6.092 17.1699 6.992 17.6499 8.048C18.1539 9.104 18.5019 10.28 18.6939 11.576H24.3459V0.811998H28.8099V31.844L24.3459 33.284V15.356H18.8379C18.7179 16.82 18.4299 18.152 17.9739 19.352C17.5179 20.528 16.8939 21.548 16.1019 22.412C15.3339 23.252 14.4219 23.912 13.3659 24.392C12.3339 24.848 11.1819 25.076 9.90991 25.076C8.54191 25.076 7.30591 24.812 6.20191 24.284C5.09791 23.732 4.14991 22.976 3.35791 22.016C2.58991 21.032 1.98991 19.868 1.55791 18.524C1.12591 17.18 0.909906 15.692 0.909906 14.06ZM5.33791 14.024C5.33791 16.328 5.76991 18.128 6.63391 19.424C7.49791 20.696 8.58991 21.332 9.90991 21.332C11.2299 21.332 12.3219 20.696 13.1859 19.424C14.0499 18.128 14.4819 16.328 14.4819 14.024C14.4819 11.744 14.0499 9.956 13.1859 8.66C12.3219 7.364 11.2299 6.716 9.90991 6.716C8.58991 6.716 7.49791 7.364 6.63391 8.66C5.76991 9.956 5.33791 11.744 5.33791 14.024ZM49.3271 23.42L34.5671 25.076V4.124H47.3831V7.76H39.0311V20.936L49.3271 19.784V23.42ZM51.5951 31.88V15.212H45.7991V11.504H51.5951V1.388H55.8071V30.44L51.5951 31.88ZM58.3271 0.811998H62.5751V31.88L58.3271 33.32V0.811998ZM92.6323 21.44H88.2403L89.9683 7.508H70.5283V3.656H94.8283L92.6323 21.44ZM66.7843 29.252V25.58H77.8003V15.032H82.2643V25.58H97.3123V29.252H66.7843ZM104.509 22.844C104.485 21.932 104.557 21.056 104.725 20.216C104.893 19.376 105.217 18.644 105.697 18.02C106.129 17.492 106.573 16.976 107.029 16.472C107.509 15.968 107.941 15.44 108.325 14.888C108.733 14.336 109.057 13.748 109.297 13.124C109.561 12.476 109.693 11.756 109.693 10.964C109.669 9.884 109.333 9.008 108.685 8.336C108.037 7.664 107.137 7.316 105.985 7.292C105.073 7.268 104.173 7.46 103.285 7.868C102.397 8.276 101.641 8.756 101.017 9.308L99.1455 6.896C99.8655 6.008 100.849 5.228 102.097 4.556C103.369 3.884 104.797 3.548 106.381 3.548C107.533 3.548 108.577 3.728 109.513 4.088C110.449 4.448 111.253 4.94 111.925 5.564C112.621 6.188 113.149 6.908 113.509 7.724C113.893 8.54 114.085 9.392 114.085 10.28C114.085 11.336 113.965 12.248 113.725 13.016C113.485 13.784 113.173 14.48 112.789 15.104C112.405 15.704 111.985 16.268 111.529 16.796C111.097 17.3 110.665 17.816 110.233 18.344C109.681 19.04 109.261 19.748 108.973 20.468C108.709 21.164 108.565 21.956 108.541 22.844V24.824H104.545L104.509 22.844ZM108.505 31.376H104.509V27.056H108.505V31.376ZM122.125 24.608H118.273L117.661 3.98H122.737L122.125 24.608ZM122.161 31.376H118.165V27.056H122.161V31.376Z" fill="#7A5CF5"/>
</svg>
