<svg width="32" height="24" viewBox="0 0 32 24" fill="none" xmlns="http://www.w3.org/2000/svg">
<path d="M26.25 13.3992H1.5C1.06667 13.3992 0.708333 13.2576 0.425 12.9742C0.141667 12.6909 0 12.3326 0 11.8992C0 11.4659 0.141667 11.1076 0.425 10.8242C0.708333 10.5409 1.06667 10.3992 1.5 10.3992H26.25L18.85 2.99922C18.55 2.69922 18.4083 2.34922 18.425 1.94922C18.4417 1.54922 18.6 1.19922 18.9 0.899219C19.2 0.599219 19.55 0.449219 19.95 0.449219C20.35 0.449219 20.7 0.599219 21 0.899219L30.95 10.8492C31.1167 11.0159 31.2333 11.1826 31.3 11.3492C31.3667 11.5159 31.4 11.6992 31.4 11.8992C31.4 12.0992 31.3667 12.2826 31.3 12.4492C31.2333 12.6159 31.1167 12.7826 30.95 12.9492L21.05 22.8492C20.75 23.1492 20.4 23.2992 20 23.2992C19.6 23.2992 19.25 23.1492 18.95 22.8492C18.65 22.5492 18.5 22.1909 18.5 21.7742C18.5 21.3576 18.65 20.9992 18.95 20.6992L26.25 13.3992Z" fill="#CABEFF"/>
</svg>
