<svg width="32" height="32" viewBox="0 0 32 32" fill="none" xmlns="http://www.w3.org/2000/svg">
<mask id="mask0_666_4872" style="mask-type:alpha" maskUnits="userSpaceOnUse" x="0" y="0" width="32" height="32">
<rect width="32" height="32" fill="#D9D9D9"/>
</mask>
<g mask="url(#mask0_666_4872)">
<path d="M16.0007 28.4333C15.6895 28.4333 15.3784 28.3778 15.0673 28.2667C14.7562 28.1556 14.4784 27.9889 14.234 27.7667C12.7895 26.4333 11.5118 25.1333 10.4007 23.8667C9.28954 22.6 8.36176 21.3722 7.61732 20.1833C6.87287 18.9944 6.30621 17.85 5.91732 16.75C5.52843 15.65 5.33398 14.6 5.33398 13.6C5.33398 11.3111 5.91176 9.25556 7.06732 7.43333C8.22287 5.61111 9.85621 4.27778 11.9673 3.43333C12.5451 3.18889 13.184 3 13.884 2.86667C14.584 2.73333 15.2784 2.65556 15.9673 2.63333C16.3451 2.63333 16.6618 2.75556 16.9173 3C17.1729 3.24444 17.3007 3.55556 17.3007 3.93333C17.3007 4.31111 17.1729 4.63889 16.9173 4.91667C16.6618 5.19444 16.3451 5.33333 15.9673 5.33333C15.434 5.33333 14.9118 5.38333 14.4007 5.48333C13.8895 5.58333 13.3784 5.73333 12.8673 5.93333C11.3118 6.57778 10.1118 7.6 9.26732 9C8.42287 10.4 8.00065 11.9333 8.00065 13.6C8.00065 15.1778 8.65621 16.9833 9.96732 19.0167C11.2784 21.05 13.2895 23.3111 16.0007 25.8C17.3562 24.5556 18.534 23.3722 19.534 22.25C20.534 21.1278 21.3673 20.0556 22.034 19.0333C22.4784 18.3444 22.8673 17.6389 23.2007 16.9167C23.534 16.1944 23.7673 15.4444 23.9007 14.6667C23.9895 14.1556 24.184 13.8 24.484 13.6C24.784 13.4 25.1007 13.3222 25.434 13.3667C25.7673 13.4111 26.0507 13.5444 26.284 13.7667C26.5173 13.9889 26.6118 14.2889 26.5673 14.6667C26.3895 16.0444 25.9951 17.3389 25.384 18.55C24.7729 19.7611 24.0562 20.9222 23.234 22.0333C22.2784 23.3 21.2951 24.4278 20.284 25.4167C19.2729 26.4056 18.434 27.1889 17.7673 27.7667C17.5229 27.9889 17.2451 28.1556 16.934 28.2667C16.6229 28.3778 16.3118 28.4333 16.0007 28.4333ZM16.0007 16C16.734 16 17.3618 15.7389 17.884 15.2167C18.4062 14.6944 18.6673 14.0667 18.6673 13.3333C18.6673 12.6 18.4062 11.9722 17.884 11.45C17.3618 10.9278 16.734 10.6667 16.0007 10.6667C15.2673 10.6667 14.6395 10.9278 14.1173 11.45C13.5951 11.9722 13.334 12.6 13.334 13.3333C13.334 14.0667 13.5951 14.6944 14.1173 15.2167C14.6395 15.7389 15.2673 16 16.0007 16ZM24.0007 6.66667V9.33333C24.0007 9.71111 24.1284 10.0278 24.384 10.2833C24.6395 10.5389 24.9562 10.6667 25.334 10.6667C25.7118 10.6667 26.0284 10.5389 26.284 10.2833C26.5395 10.0278 26.6673 9.71111 26.6673 9.33333V6.66667H29.334C29.7118 6.66667 30.0284 6.53889 30.284 6.28333C30.5395 6.02778 30.6673 5.71111 30.6673 5.33333C30.6673 4.95556 30.5395 4.63889 30.284 4.38333C30.0284 4.12778 29.7118 4 29.334 4H26.6673V1.33333C26.6673 0.955556 26.5395 0.638889 26.284 0.383333C26.0284 0.127778 25.7118 0 25.334 0C24.9562 0 24.6395 0.127778 24.384 0.383333C24.1284 0.638889 24.0007 0.955556 24.0007 1.33333V4H21.334C20.9562 4 20.6395 4.12778 20.384 4.38333C20.1284 4.63889 20.0007 4.95556 20.0007 5.33333C20.0007 5.71111 20.1284 6.02778 20.384 6.28333C20.6395 6.53889 20.9562 6.66667 21.334 6.66667H24.0007Z" fill="#7A5CF5"/>
</g>
</svg>
