<svg width="32" height="32" viewBox="0 0 32 32" fill="none" xmlns="http://www.w3.org/2000/svg">
<mask id="mask0_669_8536" style="mask-type:alpha" maskUnits="userSpaceOnUse" x="0" y="0" width="32" height="32">
<rect width="32" height="32" fill="#D9D9D9"/>
</mask>
<g mask="url(#mask0_669_8536)">
<path d="M7.79935 22.8013C8.93268 21.9346 10.1993 21.2513 11.5993 20.7513C12.9993 20.2513 14.466 20.0013 15.9993 20.0013C17.5327 20.0013 18.9993 20.2513 20.3993 20.7513C21.7993 21.2513 23.066 21.9346 24.1993 22.8013C24.9771 21.8902 25.5827 20.8569 26.016 19.7013C26.4493 18.5457 26.666 17.3124 26.666 16.0013C26.666 13.0457 25.6271 10.5291 23.5493 8.4513C21.4716 6.37352 18.9549 5.33464 15.9993 5.33464C13.0438 5.33464 10.5271 6.37352 8.44935 8.4513C6.37157 10.5291 5.33268 13.0457 5.33268 16.0013C5.33268 17.3124 5.54935 18.5457 5.98268 19.7013C6.41602 20.8569 7.02157 21.8902 7.79935 22.8013ZM15.9993 17.3346C14.6882 17.3346 13.5827 16.8846 12.6827 15.9846C11.7827 15.0846 11.3327 13.9791 11.3327 12.668C11.3327 11.3569 11.7827 10.2513 12.6827 9.3513C13.5827 8.4513 14.6882 8.0013 15.9993 8.0013C17.3105 8.0013 18.416 8.4513 19.316 9.3513C20.216 10.2513 20.666 11.3569 20.666 12.668C20.666 13.9791 20.216 15.0846 19.316 15.9846C18.416 16.8846 17.3105 17.3346 15.9993 17.3346ZM15.9993 29.3346C14.1549 29.3346 12.4216 28.9846 10.7993 28.2846C9.17713 27.5846 7.76602 26.6346 6.56602 25.4346C5.36602 24.2346 4.41602 22.8235 3.71602 21.2013C3.01602 19.5791 2.66602 17.8457 2.66602 16.0013C2.66602 14.1569 3.01602 12.4235 3.71602 10.8013C4.41602 9.17908 5.36602 7.76797 6.56602 6.56797C7.76602 5.36797 9.17713 4.41797 10.7993 3.71797C12.4216 3.01797 14.1549 2.66797 15.9993 2.66797C17.8438 2.66797 19.5771 3.01797 21.1993 3.71797C22.8216 4.41797 24.2327 5.36797 25.4327 6.56797C26.6327 7.76797 27.5827 9.17908 28.2827 10.8013C28.9827 12.4235 29.3327 14.1569 29.3327 16.0013C29.3327 17.8457 28.9827 19.5791 28.2827 21.2013C27.5827 22.8235 26.6327 24.2346 25.4327 25.4346C24.2327 26.6346 22.8216 27.5846 21.1993 28.2846C19.5771 28.9846 17.8438 29.3346 15.9993 29.3346ZM15.9993 26.668C17.1771 26.668 18.2882 26.4957 19.3327 26.1513C20.3771 25.8069 21.3327 25.3124 22.1993 24.668C21.3327 24.0235 20.3771 23.5291 19.3327 23.1846C18.2882 22.8402 17.1771 22.668 15.9993 22.668C14.8216 22.668 13.7105 22.8402 12.666 23.1846C11.6216 23.5291 10.666 24.0235 9.79935 24.668C10.666 25.3124 11.6216 25.8069 12.666 26.1513C13.7105 26.4957 14.8216 26.668 15.9993 26.668ZM15.9993 14.668C16.5771 14.668 17.0549 14.4791 17.4327 14.1013C17.8105 13.7235 17.9993 13.2457 17.9993 12.668C17.9993 12.0902 17.8105 11.6124 17.4327 11.2346C17.0549 10.8569 16.5771 10.668 15.9993 10.668C15.4216 10.668 14.9438 10.8569 14.566 11.2346C14.1882 11.6124 13.9993 12.0902 13.9993 12.668C13.9993 13.2457 14.1882 13.7235 14.566 14.1013C14.9438 14.4791 15.4216 14.668 15.9993 14.668Z" fill="#AAABAB"/>
</g>
</svg>
