<svg width="320" height="245" viewBox="0 0 320 245" fill="none" xmlns="http://www.w3.org/2000/svg">
<g filter="url(#filter0_d_1595_9567)">
<g clip-path="url(#clip0_1595_9567)">
<path d="M10 10H310V211C310 224.255 299.255 235 286 235H34C20.7452 235 10 224.255 10 211V10Z" fill="white"/>
<g filter="url(#filter1_d_1595_9567)">
<path d="M10.5 158.001C10.5 156.233 11.9327 154.801 13.7 154.801H307.3C309.067 154.801 310.5 156.233 310.5 158.001V234.401H10.5V158.001Z" fill="white" shape-rendering="crispEdges"/>
<mask id="mask0_1595_9567" style="mask-type:alpha" maskUnits="userSpaceOnUse" x="37" y="164" width="27" height="27">
<rect x="37.6006" y="164.402" width="25.6" height="25.6" fill="#D9D9D9"/>
</mask>
<g mask="url(#mask0_1595_9567)">
<path d="M44.0015 184.67H47.2015V179.337C47.2015 179.034 47.3037 178.781 47.5082 178.577C47.7126 178.372 47.9659 178.27 48.2682 178.27H52.5348C52.8371 178.27 53.0904 178.372 53.2948 178.577C53.4993 178.781 53.6015 179.034 53.6015 179.337V184.67H56.8015V175.07L50.4015 170.27L44.0015 175.07V184.67ZM41.8682 184.67V175.07C41.8682 174.732 41.9437 174.412 42.0948 174.11C42.2459 173.808 42.4548 173.559 42.7215 173.363L49.1215 168.563C49.4948 168.279 49.9215 168.137 50.4015 168.137C50.8815 168.137 51.3082 168.279 51.6815 168.563L58.0815 173.363C58.3482 173.559 58.5571 173.808 58.7082 174.11C58.8593 174.412 58.9348 174.732 58.9348 175.07V184.67C58.9348 185.257 58.7259 185.759 58.3082 186.177C57.8904 186.594 57.3882 186.803 56.8015 186.803H52.5348C52.2326 186.803 51.9793 186.701 51.7748 186.497C51.5704 186.292 51.4682 186.039 51.4682 185.737V180.403H49.3348V185.737C49.3348 186.039 49.2326 186.292 49.0282 186.497C48.8237 186.701 48.5704 186.803 48.2682 186.803H44.0015C43.4148 186.803 42.9126 186.594 42.4948 186.177C42.0771 185.759 41.8682 185.257 41.8682 184.67Z" fill="#AAABAB"/>
</g>
<path d="M53.2551 201.465V203.846H47.5176V201.465H53.2551ZM48.2488 202.037V203.274H52.5332V202.037H48.2488ZM53.7426 196.327V196.899H46.9832V196.327H50.0207V195.502H50.752V196.327H53.7426ZM50.3863 197.237C52.1113 197.246 53.0863 197.64 53.0863 198.418C53.0863 199.149 52.2473 199.538 50.752 199.59V200.237H54.1832V200.827H46.5895V200.237H50.0207V199.59C48.5207 199.538 47.677 199.149 47.677 198.418C47.677 197.64 48.6613 197.246 50.3863 197.237ZM50.3863 197.752C49.1582 197.762 48.4551 197.987 48.4645 198.418C48.4551 198.84 49.1582 199.084 50.3863 199.084C51.6051 199.084 52.3082 198.84 52.3082 198.418C52.3082 197.987 51.6051 197.762 50.3863 197.752Z" fill="#1A1C1C"/>
<mask id="mask1_1595_9567" style="mask-type:alpha" maskUnits="userSpaceOnUse" x="111" y="164" width="26" height="27">
<rect x="111" y="164.402" width="25.6" height="25.6" fill="#D9D9D9"/>
</mask>
<g mask="url(#mask1_1595_9567)">
<path d="M123.801 187.149C123.552 187.149 123.303 187.105 123.054 187.016C122.805 186.927 122.583 186.793 122.388 186.616C121.232 185.549 120.21 184.509 119.321 183.496C118.432 182.482 117.69 181.5 117.094 180.549C116.499 179.598 116.045 178.682 115.734 177.802C115.423 176.922 115.268 176.082 115.268 175.282C115.268 173.451 115.73 171.807 116.654 170.349C117.579 168.891 118.885 167.825 120.574 167.149C121.036 166.953 121.548 166.802 122.108 166.696C122.668 166.589 123.223 166.527 123.774 166.509C124.076 166.509 124.33 166.607 124.534 166.802C124.739 166.998 124.841 167.247 124.841 167.549C124.841 167.851 124.739 168.113 124.534 168.336C124.33 168.558 124.076 168.669 123.774 168.669C123.348 168.669 122.93 168.709 122.521 168.789C122.112 168.869 121.703 168.989 121.294 169.149C120.05 169.665 119.09 170.482 118.414 171.602C117.739 172.722 117.401 173.949 117.401 175.282C117.401 176.545 117.925 177.989 118.974 179.616C120.023 181.242 121.632 183.051 123.801 185.042C124.885 184.047 125.828 183.1 126.628 182.202C127.428 181.305 128.094 180.447 128.628 179.629C128.983 179.078 129.294 178.513 129.561 177.936C129.828 177.358 130.014 176.758 130.121 176.136C130.192 175.727 130.348 175.442 130.588 175.282C130.828 175.122 131.081 175.06 131.348 175.096C131.614 175.131 131.841 175.238 132.028 175.416C132.214 175.593 132.29 175.833 132.254 176.136C132.112 177.238 131.796 178.273 131.308 179.242C130.819 180.211 130.245 181.14 129.588 182.029C128.823 183.042 128.036 183.945 127.228 184.736C126.419 185.527 125.748 186.153 125.214 186.616C125.019 186.793 124.796 186.927 124.548 187.016C124.299 187.105 124.05 187.149 123.801 187.149ZM123.801 177.202C124.388 177.202 124.89 176.993 125.308 176.576C125.725 176.158 125.934 175.656 125.934 175.069C125.934 174.482 125.725 173.98 125.308 173.562C124.89 173.145 124.388 172.936 123.801 172.936C123.214 172.936 122.712 173.145 122.294 173.562C121.876 173.98 121.668 174.482 121.668 175.069C121.668 175.656 121.876 176.158 122.294 176.576C122.712 176.993 123.214 177.202 123.801 177.202ZM130.201 169.736V171.869C130.201 172.171 130.303 172.425 130.508 172.629C130.712 172.833 130.965 172.936 131.268 172.936C131.57 172.936 131.823 172.833 132.028 172.629C132.232 172.425 132.334 172.171 132.334 171.869V169.736H134.468C134.77 169.736 135.023 169.633 135.228 169.429C135.432 169.225 135.534 168.971 135.534 168.669C135.534 168.367 135.432 168.113 135.228 167.909C135.023 167.705 134.77 167.602 134.468 167.602H132.334V165.469C132.334 165.167 132.232 164.913 132.028 164.709C131.823 164.505 131.57 164.402 131.268 164.402C130.965 164.402 130.712 164.505 130.508 164.709C130.303 164.913 130.201 165.167 130.201 165.469V167.602H128.068C127.765 167.602 127.512 167.705 127.308 167.909C127.103 168.113 127.001 168.367 127.001 168.669C127.001 168.971 127.103 169.225 127.308 169.429C127.512 169.633 127.765 169.736 128.068 169.736H130.201Z" fill="#7A5CF5"/>
</g>
<path d="M110.509 197.209C110.509 198.296 111.325 199.271 112.553 199.674L112.206 200.255C111.245 199.941 110.519 199.276 110.163 198.437C109.802 199.393 109.033 200.138 108.034 200.499L107.659 199.909C108.906 199.487 109.778 198.409 109.788 197.209V196.852H107.884V196.243H112.384V196.852H110.509V197.209ZM114.203 195.624V197.752H115.459V198.371H114.203V200.659H113.472V195.624H114.203ZM111.531 200.884C113.247 200.884 114.278 201.446 114.278 202.402C114.278 203.377 113.247 203.94 111.531 203.94C109.816 203.94 108.766 203.377 108.766 202.402C108.766 201.446 109.816 200.884 111.531 200.884ZM111.531 201.474C110.275 201.474 109.497 201.821 109.506 202.402C109.497 203.002 110.275 203.349 111.531 203.349C112.797 203.349 113.566 203.002 113.566 202.402C113.566 201.821 112.797 201.474 111.531 201.474ZM123.52 202.262V202.871H115.888V202.262H119.301V200.218H120.023V202.262H123.52ZM120.042 196.834C120.042 198.23 121.692 199.449 123.145 199.702L122.817 200.312C121.546 200.054 120.206 199.191 119.667 197.987C119.118 199.187 117.787 200.054 116.517 200.312L116.188 199.702C117.642 199.449 119.273 198.23 119.273 196.834V196.196H120.042V196.834ZM131.692 199.59V200.209H124.089V199.59H131.692ZM130.802 198.193V198.793H125.055V195.962H130.746V196.58H125.777V198.193H130.802ZM127.886 200.94C129.677 200.94 130.746 201.484 130.755 202.44C130.746 203.405 129.677 203.94 127.886 203.94C126.086 203.94 125.008 203.405 125.008 202.44C125.008 201.484 126.086 200.94 127.886 200.94ZM127.886 201.512C126.546 201.521 125.749 201.859 125.758 202.44C125.749 203.03 126.546 203.359 127.886 203.359C129.208 203.359 130.014 203.03 130.014 202.44C130.014 201.859 129.208 201.521 127.886 201.512ZM139.912 200.218V200.827H132.281V200.218H135.731V199.337H133.275V197.302H138.187V196.44H133.246V195.84H138.928V197.855H134.006V198.746H139.106V199.337H136.453V200.218H139.912ZM138.975 201.465V203.884H138.234V202.065H133.134V201.465H138.975Z" fill="#1A1C1C"/>
<mask id="mask2_1595_9567" style="mask-type:alpha" maskUnits="userSpaceOnUse" x="184" y="164" width="26" height="27">
<rect x="184.4" y="164.402" width="25.6" height="25.6" fill="#D9D9D9"/>
</mask>
<g mask="url(#mask2_1595_9567)">
<path d="M192.533 171.228L195.52 167.362C195.733 167.077 195.987 166.868 196.28 166.735C196.573 166.602 196.88 166.535 197.2 166.535C197.52 166.535 197.827 166.602 198.12 166.735C198.413 166.868 198.667 167.077 198.88 167.362L201.867 171.228L206.4 172.748C206.862 172.891 207.227 173.153 207.493 173.535C207.76 173.917 207.893 174.34 207.893 174.802C207.893 175.015 207.862 175.228 207.8 175.442C207.738 175.655 207.635 175.86 207.493 176.055L204.56 180.215L204.667 184.588C204.684 185.211 204.48 185.735 204.053 186.162C203.627 186.588 203.129 186.802 202.56 186.802C202.524 186.802 202.329 186.775 201.973 186.722L197.2 185.388L192.427 186.722C192.338 186.757 192.24 186.78 192.133 186.788C192.027 186.797 191.929 186.802 191.84 186.802C191.271 186.802 190.773 186.588 190.347 186.162C189.92 185.735 189.715 185.211 189.733 184.588L189.84 180.188L186.933 176.055C186.791 175.86 186.689 175.655 186.627 175.442C186.564 175.228 186.533 175.015 186.533 174.802C186.533 174.357 186.662 173.944 186.92 173.562C187.178 173.18 187.538 172.908 188 172.748L192.533 171.228ZM193.84 173.068L188.667 174.775L191.973 179.548L191.867 184.642L197.2 183.175L202.533 184.668L202.427 179.548L205.733 174.828L200.56 173.068L197.2 168.668L193.84 173.068Z" fill="#AAABAB"/>
</g>
<path d="M196.367 195.634V200.771H195.664V198.465H194.492V200.48H193.808V195.793H194.492V197.855H195.664V195.634H196.367ZM192.814 196.252V198.502H190.386V199.674C191.483 199.67 192.322 199.637 193.311 199.43L193.395 200.04C192.317 200.246 191.426 200.284 190.217 200.284H189.673V197.94H192.111V196.852H189.654V196.252H192.814ZM193.611 200.94C195.336 200.94 196.414 201.493 196.414 202.44C196.414 203.387 195.336 203.94 193.611 203.94C191.876 203.94 190.808 203.387 190.817 202.44C190.808 201.493 191.876 200.94 193.611 200.94ZM193.611 201.512C192.336 201.512 191.539 201.859 191.548 202.44C191.539 203.021 192.336 203.359 193.611 203.359C194.876 203.359 195.673 203.021 195.683 202.44C195.673 201.859 194.876 201.512 193.611 201.512ZM201.924 196.205C201.915 198.334 200.696 199.89 198.015 200.677L197.733 200.077C199.158 199.67 200.096 199.055 200.621 198.277L197.799 198.502L197.668 197.893L200.912 197.734C201.033 197.443 201.104 197.134 201.137 196.805H198.09V196.205H201.924ZM204.371 195.634V200.649H203.64V195.634H204.371ZM201.605 200.762C203.33 200.762 204.408 201.343 204.408 202.346C204.408 203.368 203.33 203.94 201.605 203.94C199.862 203.94 198.783 203.368 198.783 202.346C198.783 201.343 199.862 200.762 201.605 200.762ZM201.605 201.343C200.312 201.343 199.515 201.727 199.515 202.346C199.515 202.974 200.312 203.359 201.605 203.359C202.88 203.359 203.687 202.974 203.687 202.346C203.687 201.727 202.88 201.343 201.605 201.343Z" fill="#1A1C1C"/>
<mask id="mask3_1595_9567" style="mask-type:alpha" maskUnits="userSpaceOnUse" x="257" y="164" width="27" height="27">
<rect x="257.799" y="164.402" width="25.6" height="25.6" fill="#D9D9D9"/>
</mask>
<g mask="url(#mask3_1595_9567)">
<path d="M264.038 182.642C264.945 181.948 265.958 181.402 267.078 181.002C268.198 180.602 269.372 180.402 270.598 180.402C271.825 180.402 272.998 180.602 274.118 181.002C275.238 181.402 276.252 181.948 277.158 182.642C277.781 181.913 278.265 181.086 278.612 180.162C278.958 179.237 279.132 178.251 279.132 177.202C279.132 174.837 278.301 172.824 276.638 171.162C274.976 169.5 272.963 168.668 270.598 168.668C268.234 168.668 266.221 169.5 264.558 171.162C262.896 172.824 262.065 174.837 262.065 177.202C262.065 178.251 262.238 179.237 262.585 180.162C262.932 181.086 263.416 181.913 264.038 182.642ZM270.598 178.268C269.549 178.268 268.665 177.908 267.945 177.188C267.225 176.468 266.865 175.584 266.865 174.535C266.865 173.486 267.225 172.602 267.945 171.882C268.665 171.162 269.549 170.802 270.598 170.802C271.647 170.802 272.532 171.162 273.252 171.882C273.972 172.602 274.332 173.486 274.332 174.535C274.332 175.584 273.972 176.468 273.252 177.188C272.532 177.908 271.647 178.268 270.598 178.268ZM270.598 187.868C269.123 187.868 267.736 187.588 266.438 187.028C265.141 186.468 264.012 185.708 263.052 184.748C262.092 183.788 261.332 182.66 260.772 181.362C260.212 180.064 259.932 178.677 259.932 177.202C259.932 175.726 260.212 174.34 260.772 173.042C261.332 171.744 262.092 170.615 263.052 169.655C264.012 168.695 265.141 167.935 266.438 167.375C267.736 166.815 269.123 166.535 270.598 166.535C272.074 166.535 273.461 166.815 274.758 167.375C276.056 167.935 277.185 168.695 278.145 169.655C279.105 170.615 279.865 171.744 280.425 173.042C280.985 174.34 281.265 175.726 281.265 177.202C281.265 178.677 280.985 180.064 280.425 181.362C279.865 182.66 279.105 183.788 278.145 184.748C277.185 185.708 276.056 186.468 274.758 187.028C273.461 187.588 272.074 187.868 270.598 187.868ZM270.598 185.735C271.541 185.735 272.429 185.597 273.265 185.322C274.101 185.046 274.865 184.651 275.558 184.135C274.865 183.62 274.101 183.224 273.265 182.948C272.429 182.673 271.541 182.535 270.598 182.535C269.656 182.535 268.767 182.673 267.932 182.948C267.096 183.224 266.332 183.62 265.638 184.135C266.332 184.651 267.096 185.046 267.932 185.322C268.767 185.597 269.656 185.735 270.598 185.735ZM270.598 176.135C271.061 176.135 271.443 175.984 271.745 175.682C272.047 175.38 272.198 174.997 272.198 174.535C272.198 174.073 272.047 173.691 271.745 173.388C271.443 173.086 271.061 172.935 270.598 172.935C270.136 172.935 269.754 173.086 269.452 173.388C269.149 173.691 268.998 174.073 268.998 174.535C268.998 174.997 269.149 175.38 269.452 175.682C269.754 175.984 270.136 176.135 270.598 176.135Z" fill="#AAABAB"/>
</g>
<path d="M254.578 196.468V201.84H250.734V196.468H254.578ZM251.446 197.059V201.24H253.846V197.059H251.446ZM256.837 195.624V198.952H258.234V199.59H256.837V203.959H256.106V195.624H256.837ZM265.46 195.624V203.977H264.719V195.624H265.46ZM261.025 196.271C262.263 196.28 263.153 197.405 263.153 199.177C263.153 200.949 262.263 202.074 261.025 202.074C259.778 202.074 258.897 200.949 258.897 199.177C258.897 197.405 259.778 196.28 261.025 196.271ZM261.025 196.927C260.191 196.937 259.61 197.818 259.61 199.177C259.61 200.537 260.191 201.418 261.025 201.418C261.86 201.418 262.441 200.537 262.441 199.177C262.441 197.818 261.86 196.937 261.025 196.927ZM273.961 195.624V203.959H273.248V195.624H273.961ZM272.329 195.83V203.518H271.626V199.459H270.464V198.793H271.626V195.83H272.329ZM270.707 196.693V197.302H270.004V201.155C270.318 201.137 270.618 201.109 270.895 201.071L270.942 201.615C269.629 201.859 267.876 201.896 266.789 201.896L266.695 201.268L267.576 201.259V197.302H266.873V196.693H270.707ZM268.251 201.249C268.598 201.24 268.964 201.226 269.32 201.202V197.302H268.251V201.249ZM281.861 195.624V203.977H281.121V195.624H281.861ZM277.427 196.271C278.665 196.28 279.555 197.405 279.555 199.177C279.555 200.949 278.665 202.074 277.427 202.074C276.18 202.074 275.299 200.949 275.299 199.177C275.299 197.405 276.18 196.28 277.427 196.271ZM277.427 196.927C276.593 196.937 276.011 197.818 276.011 199.177C276.011 200.537 276.593 201.418 277.427 201.418C278.261 201.418 278.843 200.537 278.843 199.177C278.843 197.818 278.261 196.937 277.427 196.927ZM286.172 198.184C286.172 199.599 287.203 201.034 288.431 201.568L288.019 202.149C287.044 201.704 286.2 200.743 285.815 199.59C285.422 200.813 284.583 201.877 283.631 202.355L283.19 201.774C284.381 201.202 285.422 199.627 285.431 198.184V197.096H283.462V196.487H288.159V197.096H286.172V198.184ZM290.062 195.624V203.959H289.322V195.624H290.062Z" fill="#1A1C1C"/>
</g>
<rect width="300" height="16.8" transform="translate(10 217.801)" fill="white"/>
<path d="M215.6 226.402C215.6 225.298 214.704 224.402 213.6 224.402H106.4C105.295 224.402 104.4 225.298 104.4 226.402C104.4 227.507 105.295 228.402 106.4 228.402H213.6C214.704 228.402 215.6 227.507 215.6 226.402Z" fill="black"/>
</g>
</g>
<defs>
<filter id="filter0_d_1595_9567" x="0" y="0" width="320" height="245" filterUnits="userSpaceOnUse" color-interpolation-filters="sRGB">
<feFlood flood-opacity="0" result="BackgroundImageFix"/>
<feColorMatrix in="SourceAlpha" type="matrix" values="0 0 0 0 0 0 0 0 0 0 0 0 0 0 0 0 0 0 127 0" result="hardAlpha"/>
<feOffset/>
<feGaussianBlur stdDeviation="5"/>
<feComposite in2="hardAlpha" operator="out"/>
<feColorMatrix type="matrix" values="0 0 0 0 0 0 0 0 0 0 0 0 0 0 0 0 0 0 0.1 0"/>
<feBlend mode="normal" in2="BackgroundImageFix" result="effect1_dropShadow_1595_9567"/>
<feBlend mode="normal" in="SourceGraphic" in2="effect1_dropShadow_1595_9567" result="shape"/>
</filter>
<filter id="filter1_d_1595_9567" x="-13.5" y="126.801" width="348" height="127.602" filterUnits="userSpaceOnUse" color-interpolation-filters="sRGB">
<feFlood flood-opacity="0" result="BackgroundImageFix"/>
<feColorMatrix in="SourceAlpha" type="matrix" values="0 0 0 0 0 0 0 0 0 0 0 0 0 0 0 0 0 0 127 0" result="hardAlpha"/>
<feOffset dy="-4"/>
<feGaussianBlur stdDeviation="12"/>
<feComposite in2="hardAlpha" operator="out"/>
<feColorMatrix type="matrix" values="0 0 0 0 0 0 0 0 0 0 0 0 0 0 0 0 0 0 0.1 0"/>
<feBlend mode="normal" in2="BackgroundImageFix" result="effect1_dropShadow_1595_9567"/>
<feBlend mode="normal" in="SourceGraphic" in2="effect1_dropShadow_1595_9567" result="shape"/>
</filter>
<clipPath id="clip0_1595_9567">
<path d="M10 10H310V211C310 224.255 299.255 235 286 235H34C20.7452 235 10 224.255 10 211V10Z" fill="white"/>
</clipPath>
</defs>
</svg>
