<svg width="324" height="371" viewBox="0 0 324 371" fill="none" xmlns="http://www.w3.org/2000/svg">
<g filter="url(#filter0_d_1595_9911)">
<g clip-path="url(#clip0_1595_9911)">
<rect x="12" y="12.457" width="300" height="346.25" rx="17.1429" fill="white"/>
<path d="M31.6008 93.7875V95.0625H29.3383C29.3508 96.3875 30.1445 97.6687 31.9633 98.2L31.2008 99.45C29.9445 99.0687 29.0758 98.3062 28.5758 97.325C28.0695 98.475 27.1445 99.3875 25.7758 99.8375L24.9633 98.575C26.8508 97.9812 27.7008 96.5062 27.7258 95.0625H25.4008V93.7875H31.6008ZM34.1633 93.025V95.6625H35.7008V96.9625H34.1633V99.775H32.5633V93.025H34.1633ZM30.4383 100C32.8008 99.9875 34.2758 100.8 34.2758 102.187C34.2758 103.575 32.8008 104.4 30.4383 104.4C28.0258 104.4 26.5383 103.575 26.5383 102.187C26.5383 100.8 28.0258 99.9875 30.4383 100ZM30.4383 101.237C28.9383 101.237 28.1258 101.55 28.1383 102.187C28.1258 102.837 28.9383 103.162 30.4383 103.162C31.9133 103.162 32.7008 102.837 32.7008 102.187C32.7008 101.55 31.9133 101.237 30.4383 101.237ZM46.4853 101.762V103.037H36.0728V101.762H40.4228V99.1875H42.0103V101.762H46.4853ZM42.0603 94.4875C42.0603 96.1125 43.5228 97.825 46.1228 98.225L45.4478 99.55C43.4478 99.1875 41.9603 98.1187 41.2103 96.7C40.4603 98.1125 38.9853 99.1937 36.9978 99.55L36.3228 98.225C38.8978 97.825 40.3478 96.1 40.3603 94.4875V93.675H42.0603V94.4875ZM54.1043 94.2V103.25H52.2168V95.9875H52.1668L50.0918 97.2875V95.625L52.3293 94.2H54.1043Z" fill="#1A1C1C"/>
<rect x="25.2008" y="118.248" width="47.2" height="47.2" rx="2.8" stroke="#1A1C1C" stroke-width="0.8"/>
<mask id="mask0_1595_9911" style="mask-type:alpha" maskUnits="userSpaceOnUse" x="39" y="123" width="20" height="20">
<rect x="39.2012" y="123.648" width="19.2" height="19.2" fill="#D9D9D9"/>
</mask>
<g mask="url(#mask0_1595_9911)">
<path d="M43.0884 141.25C42.4599 141.25 41.9218 141.026 41.4742 140.579C41.0265 140.131 40.8027 139.593 40.8027 138.964V127.536C40.8027 126.907 41.0265 126.369 41.4742 125.921C41.9218 125.474 42.4599 125.25 43.0884 125.25H54.517C55.1456 125.25 55.6837 125.474 56.1313 125.921C56.5789 126.369 56.8027 126.907 56.8027 127.536V138.964C56.8027 139.593 56.5789 140.131 56.1313 140.579C55.6837 141.026 55.1456 141.25 54.517 141.25H43.0884ZM43.0884 138.964H54.517V127.536H43.0884V138.964ZM44.2313 136.679H53.3742L50.3742 132.679L48.2313 135.536L46.6599 133.45L44.2313 136.679Z" fill="#1A1C1C"/>
</g>
<path d="M44.3499 156.141C42.9999 156.141 42.0343 155.419 41.9874 154.341H42.8405C42.8874 154.987 43.5343 155.391 44.3405 155.391C45.2312 155.391 45.8874 154.903 45.8874 154.2C45.8874 153.459 45.2968 152.934 44.2374 152.934H43.6843V152.194H44.2374C45.0624 152.194 45.6343 151.734 45.6343 151.031C45.6343 150.356 45.1374 149.897 44.3687 149.897C43.6468 149.897 42.9812 150.3 42.9437 150.966H42.128C42.1749 149.887 43.1687 149.166 44.378 149.166C45.6718 149.166 46.4593 150.009 46.4499 150.984C46.4593 151.753 46.0093 152.325 45.2968 152.522V152.569C46.178 152.709 46.7218 153.337 46.7124 154.2C46.7218 155.316 45.6999 156.141 44.3499 156.141ZM50.2633 148.941L48.0695 157.069H47.3383L49.5227 148.941H50.2633ZM53.2892 156.141C51.9392 156.141 50.9735 155.419 50.9267 154.341H51.7798C51.8267 154.987 52.4735 155.391 53.2798 155.391C54.1704 155.391 54.8267 154.903 54.8267 154.2C54.8267 153.459 54.236 152.934 53.1767 152.934H52.6235V152.194H53.1767C54.0017 152.194 54.5735 151.734 54.5735 151.031C54.5735 150.356 54.0767 149.897 53.3079 149.897C52.586 149.897 51.9204 150.3 51.8829 150.966H51.0673C51.1142 149.887 52.1079 149.166 53.3173 149.166C54.611 149.166 55.3985 150.009 55.3892 150.984C55.3985 151.753 54.9485 152.325 54.236 152.522V152.569C55.1173 152.709 55.661 153.337 55.6517 154.2C55.661 155.316 54.6392 156.141 53.2892 156.141Z" fill="#1A1C1C"/>
<rect x="82.4004" y="117.848" width="48" height="48" rx="3.2" fill="#C6C6C7"/>
<rect x="124" y="111.449" width="12.8" height="12.8" rx="6.4" fill="#1A1C1C"/>
<path fill-rule="evenodd" clip-rule="evenodd" d="M127.347 114.796C127.545 114.599 127.864 114.599 128.062 114.796L130.399 117.134L132.737 114.796C132.934 114.599 133.254 114.599 133.451 114.796C133.649 114.994 133.649 115.314 133.451 115.511L131.114 117.848L133.451 120.186C133.649 120.383 133.649 120.703 133.451 120.9C133.254 121.098 132.934 121.098 132.737 120.9L130.399 118.563L128.062 120.9C127.864 121.098 127.545 121.098 127.347 120.9C127.15 120.703 127.15 120.383 127.347 120.186L129.685 117.848L127.347 115.511C127.15 115.314 127.15 114.994 127.347 114.796Z" fill="white"/>
<rect x="140" y="117.848" width="48" height="48" rx="3.2" fill="#C6C6C7"/>
<rect x="181.6" y="111.449" width="12.8" height="12.8" rx="6.4" fill="#1A1C1C"/>
<path fill-rule="evenodd" clip-rule="evenodd" d="M184.947 114.796C185.144 114.599 185.464 114.599 185.661 114.796L187.999 117.134L190.336 114.796C190.534 114.599 190.854 114.599 191.051 114.796C191.248 114.994 191.248 115.314 191.051 115.511L188.713 117.848L191.051 120.186C191.248 120.383 191.248 120.703 191.051 120.9C190.854 121.098 190.534 121.098 190.336 120.9L187.999 118.563L185.661 120.9C185.464 121.098 185.144 121.098 184.947 120.9C184.749 120.703 184.749 120.383 184.947 120.186L187.284 117.848L184.947 115.511C184.749 115.314 184.749 114.994 184.947 114.796Z" fill="white"/>
<rect x="197.602" y="117.848" width="48" height="48" rx="3.2" fill="#C6C6C7"/>
<rect x="239.201" y="111.449" width="12.8" height="12.8" rx="6.4" fill="#1A1C1C"/>
<path fill-rule="evenodd" clip-rule="evenodd" d="M242.548 114.796C242.746 114.599 243.066 114.599 243.263 114.796L245.6 117.134L247.938 114.796C248.135 114.599 248.455 114.599 248.652 114.796C248.85 114.994 248.85 115.314 248.652 115.511L246.315 117.848L248.652 120.186C248.85 120.383 248.85 120.703 248.652 120.9C248.455 121.098 248.135 121.098 247.938 120.9L245.6 118.563L243.263 120.9C243.066 121.098 242.746 121.098 242.548 120.9C242.351 120.703 242.351 120.383 242.548 120.186L244.886 117.848L242.548 115.511C242.351 115.314 242.351 114.994 242.548 114.796Z" fill="white"/>
<rect x="25.2008" y="175.849" width="273.6" height="37.4" rx="2.8" stroke="#AAABAB" stroke-width="0.8"/>
<path d="M43.6879 189.501V190.301C43.6879 191.132 43.6879 192.126 43.4129 193.463H45.0254V194.263H40.4004V196.313H43.7629V200.063H42.7754V197.126H35.9004V196.313H39.4254V194.263H34.8504V193.463H42.4254C42.7129 192.101 42.7129 191.132 42.7129 190.301H36.1379V189.501H43.6879ZM54.9599 188.963V195.063H53.9849V188.963H54.9599ZM51.4224 189.501V192.501H47.3224V194.013C49.3099 194.001 50.7974 193.963 52.5974 193.663L52.7099 194.476C50.8474 194.776 49.3224 194.826 47.2724 194.838H46.3724V191.726H50.4474V190.313H46.3474V189.501H51.4224ZM48.7224 195.626V196.951H53.9849V195.626H54.9599V199.913H47.7349V195.626H48.7224ZM48.7224 199.113H53.9849V197.738H48.7224V199.113ZM65.9319 188.963V197.438H64.9444V195.051H63.0194V194.251H64.9444V192.738H63.0194V191.926H64.9444V188.963H65.9319ZM63.0194 190.326V191.126H56.7319V190.326H59.4319V188.951H60.4069V190.326H63.0194ZM59.9069 191.738C61.3944 191.738 62.4444 192.588 62.4444 193.863C62.4444 195.126 61.3944 195.988 59.9069 195.988C58.4194 195.988 57.3819 195.126 57.3944 193.863C57.3819 192.588 58.4194 191.738 59.9069 191.738ZM59.9069 192.513C58.9569 192.526 58.3069 193.063 58.3069 193.863C58.3069 194.663 58.9569 195.201 59.9069 195.201C60.8569 195.201 61.5069 194.663 61.5194 193.863C61.5069 193.063 60.8569 192.526 59.9069 192.513ZM66.1819 199.001V199.826H58.7444V196.688H59.7319V199.001H66.1819ZM77.1539 188.951V200.063H76.2164V194.238H74.5789V199.488H73.6789V189.201H74.5789V193.426H76.2164V188.951H77.1539ZM72.2289 190.313V191.126H69.0414V196.476C70.5726 196.47 71.6351 196.413 72.8664 196.163L72.9539 196.988C71.6164 197.263 70.4789 197.313 68.7789 197.313H68.0664V190.313H72.2289ZM87.2759 188.951V191.851H88.9509V192.663H87.2759V195.676H86.3009V188.951H87.2759ZM87.2759 196.263V200.063H86.3009V197.063H80.0009V196.263H87.2759ZM80.0259 189.651V191.401H83.2634V189.651H84.2384V194.901H79.0634V189.651H80.0259ZM80.0259 194.101H83.2634V192.188H80.0259V194.101ZM99.6479 193.651V194.451H95.0604V195.551H98.3479V198.038H91.7479V199.163H98.6854V199.938H90.7729V197.301H97.3854V196.313H90.7479V195.551H94.0854V194.451H89.5229V193.651H99.6479ZM98.3354 189.326V192.713H90.8354V189.326H98.3354ZM91.8104 190.113V191.926H97.3604V190.113H91.8104ZM106.62 189.813V190.401C106.607 191.126 106.607 192.238 106.332 193.688L105.345 193.613C105.614 192.282 105.639 191.338 105.657 190.638H101.082V189.813H106.62ZM103.757 192.276V194.663C104.989 194.613 106.264 194.526 107.42 194.363L107.482 195.088C105.157 195.488 102.47 195.538 100.495 195.538L100.395 194.726C101.114 194.72 101.926 194.713 102.782 194.688V192.276H103.757ZM109.17 188.951V192.576H110.795V193.413H109.17V197.313H108.17V188.951H109.17ZM109.532 199.001V199.826H102.107V196.563H103.095V199.001H109.532ZM118.389 191.938C118.389 193.951 119.676 195.976 121.289 196.713L120.701 197.513C119.439 196.863 118.395 195.532 117.901 193.951C117.408 195.613 116.364 197.038 115.101 197.713L114.464 196.926C116.089 196.126 117.389 193.988 117.389 191.938V189.913H118.389V191.938ZM123.689 188.951V200.088H122.714V193.551H120.076V192.751H122.714V188.951H123.689ZM130.473 189.088C132.948 189.088 134.398 189.776 134.398 191.013C134.398 192.263 132.948 192.938 130.473 192.951C127.998 192.938 126.536 192.263 126.536 191.013C126.536 189.776 127.998 189.088 130.473 189.088ZM130.473 189.838C128.623 189.851 127.548 190.276 127.561 191.013C127.548 191.776 128.623 192.188 130.473 192.201C132.311 192.188 133.398 191.776 133.398 191.013C133.398 190.276 132.311 189.851 130.473 189.838ZM135.536 193.688V194.476H130.948V195.526H134.236V198.013H127.636V199.163H134.573V199.938H126.661V197.288H133.273V196.276H126.636V195.526H129.973V194.476H125.411V193.688H135.536Z" fill="#1A1C1C"/>
<rect x="276.801" y="188.148" width="12.8" height="12.8" rx="6.4" fill="#AAABAB"/>
<path fill-rule="evenodd" clip-rule="evenodd" d="M280.148 191.496C280.345 191.298 280.665 191.298 280.863 191.496L283.2 193.833L285.537 191.496C285.735 191.298 286.055 191.298 286.252 191.496C286.449 191.693 286.449 192.013 286.252 192.21L283.915 194.548L286.252 196.885C286.449 197.082 286.449 197.402 286.252 197.6C286.055 197.797 285.735 197.797 285.537 197.6L283.2 195.262L280.863 197.6C280.665 197.797 280.345 197.797 280.148 197.6C279.951 197.402 279.951 197.082 280.148 196.885L282.485 194.548L280.148 192.21C279.951 192.013 279.951 191.693 280.148 191.496Z" fill="white"/>
<rect x="25.2008" y="223.65" width="273.6" height="37.4" rx="2.8" stroke="#AAABAB" stroke-width="0.8"/>
<path d="M38.7629 239.739C38.7629 241.752 40.0504 243.777 41.6629 244.514L41.0754 245.314C39.8129 244.664 38.7691 243.333 38.2754 241.752C37.7816 243.414 36.7379 244.839 35.4754 245.514L34.8379 244.727C36.4629 243.927 37.7629 241.789 37.7629 239.739V237.714H38.7629V239.739ZM44.0629 236.752V247.889H43.0879V241.352H40.4504V240.552H43.0879V236.752H44.0629ZM50.8474 236.889C53.3224 236.889 54.7724 237.577 54.7724 238.814C54.7724 240.064 53.3224 240.739 50.8474 240.752C48.3724 240.739 46.9099 240.064 46.9099 238.814C46.9099 237.577 48.3724 236.889 50.8474 236.889ZM50.8474 237.639C48.9974 237.652 47.9224 238.077 47.9349 238.814C47.9224 239.577 48.9974 239.989 50.8474 240.002C52.6849 239.989 53.7724 239.577 53.7724 238.814C53.7724 238.077 52.6849 237.652 50.8474 237.639ZM55.9099 241.489V242.277H51.3224V243.327H54.6099V245.814H48.0099V246.964H54.9474V247.739H47.0349V245.089H53.6474V244.077H47.0099V243.327H50.3474V242.277H45.7849V241.489H55.9099ZM65.3414 240.702V242.289H69.9289V243.102H59.8039V242.289H64.3789V240.702H65.3414ZM64.8664 244.014C67.2539 244.014 68.6789 244.689 68.6914 245.927C68.6789 247.164 67.2539 247.839 64.8664 247.839C62.4539 247.839 61.0289 247.164 61.0289 245.927C61.0289 244.689 62.4539 244.014 64.8664 244.014ZM64.8664 244.789C63.0664 244.789 62.0164 245.202 62.0289 245.927C62.0164 246.652 63.0664 247.077 64.8664 247.077C66.6414 247.077 67.7039 246.652 67.7039 245.927C67.7039 245.202 66.6414 244.789 64.8664 244.789ZM69.0289 237.277V238.077H65.5039C65.5664 239.314 67.4289 240.27 69.3664 240.477L69.0039 241.252C67.1851 241.033 65.4789 240.239 64.8664 239.002C64.2601 240.239 62.5601 241.033 60.7289 241.252L60.3664 240.477C62.3039 240.27 64.1539 239.327 64.2289 238.077H60.7289V237.277H69.0289ZM80.9134 245.664V246.489H70.7384V245.664H75.3134V243.564H72.0134V240.139H78.6634V238.389H71.9884V237.577H79.6259V240.939H72.9884V242.752H79.8884V243.564H76.2759V245.664H80.9134ZM90.4604 237.477V238.452C90.4604 239.508 90.4604 240.652 90.1479 242.252H91.7979V243.064H87.2104V247.889H86.2229V243.064H81.6729V242.252H89.1479C89.4854 240.652 89.4854 239.483 89.4854 238.452V238.289H82.9479V237.477H90.4604ZM99.4294 238.414C99.4169 239.952 100.567 241.377 102.204 241.927L101.654 242.702C100.442 242.245 99.4794 241.327 98.9919 240.152C98.5232 241.489 97.5107 242.52 96.1794 243.027L95.6544 242.252C97.3419 241.627 98.4544 240.139 98.4669 238.439V237.327H99.4294V238.414ZM104.379 236.752V239.527H106.054V240.352H104.379V243.264H103.404V236.752H104.379ZM104.379 243.777V247.714H97.3669V243.777H104.379ZM98.3294 244.577V246.914H103.404V244.577H98.3294ZM110.414 239.139C110.414 240.527 111.614 241.764 113.251 242.252L112.776 243.014C111.489 242.633 110.458 241.789 109.964 240.689C109.476 241.908 108.464 242.864 107.139 243.302L106.664 242.552C108.301 242.002 109.451 240.652 109.451 239.139V238.902H106.939V238.114H109.451V236.702H110.439V238.114H112.926V238.902H110.414V239.139ZM115.839 236.752V243.489H114.851V240.752H112.576V239.939H114.851V236.752H115.839ZM112.151 243.789C114.464 243.789 115.876 244.514 115.876 245.814C115.876 247.102 114.464 247.839 112.151 247.839C109.839 247.839 108.426 247.102 108.426 245.814C108.426 244.514 109.839 243.789 112.151 243.789ZM112.151 244.552C110.451 244.564 109.389 245.027 109.401 245.814C109.389 246.589 110.451 247.064 112.151 247.064C113.864 247.064 114.901 246.589 114.901 245.814C114.901 245.027 113.864 244.564 112.151 244.552ZM127.736 245.664V246.489H117.561V245.664H122.136V243.564H118.836V240.139H125.486V238.389H118.811V237.577H126.448V240.939H119.811V242.752H126.711V243.564H123.098V245.664H127.736ZM135.105 246.977C133.305 246.977 132.017 246.014 131.955 244.577H133.092C133.155 245.439 134.017 245.977 135.092 245.977C136.28 245.977 137.155 245.327 137.155 244.389C137.155 243.402 136.367 242.702 134.955 242.702H134.217V241.714H134.955C136.055 241.714 136.817 241.102 136.817 240.164C136.817 239.264 136.155 238.652 135.13 238.652C134.167 238.652 133.28 239.189 133.23 240.077H132.142C132.205 238.639 133.53 237.677 135.142 237.677C136.867 237.677 137.917 238.802 137.905 240.102C137.917 241.127 137.317 241.889 136.367 242.152V242.214C137.542 242.402 138.267 243.239 138.255 244.389C138.267 245.877 136.905 246.977 135.105 246.977ZM142.714 246.977C140.702 246.977 139.552 245.289 139.552 242.327C139.552 239.389 140.727 237.677 142.714 237.677C144.702 237.677 145.877 239.389 145.877 242.327C145.877 245.289 144.714 246.977 142.714 246.977ZM142.714 245.977C144.014 245.977 144.777 244.664 144.777 242.327C144.777 239.989 144.014 238.652 142.714 238.652C141.414 238.652 140.639 239.989 140.639 242.327C140.639 244.664 141.402 245.977 142.714 245.977Z" fill="#1A1C1C"/>
<rect x="276.801" y="235.949" width="12.8" height="12.8" rx="6.4" fill="#AAABAB"/>
<path fill-rule="evenodd" clip-rule="evenodd" d="M280.148 239.296C280.345 239.099 280.665 239.099 280.863 239.296L283.2 241.634L285.537 239.296C285.735 239.099 286.055 239.099 286.252 239.296C286.449 239.494 286.449 239.814 286.252 240.011L283.915 242.348L286.252 244.686C286.449 244.883 286.449 245.203 286.252 245.4C286.055 245.598 285.735 245.598 285.537 245.4L283.2 243.063L280.863 245.4C280.665 245.598 280.345 245.598 280.148 245.4C279.951 245.203 279.951 244.883 280.148 244.686L282.485 242.348L280.148 240.011C279.951 239.814 279.951 239.494 280.148 239.296Z" fill="white"/>
<rect x="25.2008" y="271.451" width="273.6" height="37.4" rx="2.8" stroke="#AAABAB" stroke-width="0.8"/>
<path d="M45.0129 290.24V291.052H40.4879V293.327H39.5129V291.052H34.8379V290.24H45.0129ZM43.6879 285.102V288.965H36.1629V285.102H43.6879ZM37.1254 285.877V288.177H42.7129V285.877H37.1254ZM43.8754 294.602V295.427H36.1379V292.227H37.1254V294.602H43.8754ZM54.4099 284.552V289.29H56.1849V290.115H54.4099V295.665H53.4224V284.552H54.4099ZM45.6474 292.702C46.5536 292.702 47.6099 292.702 48.7099 292.665V291.427C47.4161 291.284 46.5724 290.527 46.5849 289.427C46.5724 288.177 47.6349 287.365 49.2099 287.365C50.7599 287.365 51.8349 288.177 51.8474 289.427C51.8349 290.527 50.9786 291.284 49.6974 291.44V292.627C50.7349 292.577 51.7786 292.496 52.7474 292.352L52.8099 293.102C50.3849 293.515 47.7599 293.54 45.8099 293.54L45.6474 292.702ZM52.5474 285.915V286.715H45.8474V285.915H48.7099V284.577H49.6974V285.915H52.5474ZM49.2099 288.127C48.1849 288.127 47.4974 288.652 47.4974 289.427C47.4974 290.202 48.1849 290.702 49.2099 290.69C50.2224 290.702 50.9099 290.202 50.9099 289.427C50.9099 288.652 50.2224 288.127 49.2099 288.127ZM60.0319 286.765C60.0319 287.99 60.8944 289.24 62.3194 289.777L61.8069 290.527C60.7381 290.115 59.9694 289.321 59.5694 288.365C59.1569 289.427 58.3631 290.371 57.2694 290.84L56.7319 290.077C58.1944 289.44 59.0944 288.002 59.0944 286.765V285.252H60.0319V286.765ZM66.1569 284.565V291.427H65.2194V288.365H63.7444V291.077H62.8194V284.777H63.7444V287.552H65.2194V284.565H66.1569ZM62.4819 291.677C64.7819 291.677 66.2194 292.402 66.2194 293.665C66.2194 294.915 64.7819 295.64 62.4819 295.64C60.1694 295.64 58.7444 294.915 58.7569 293.665C58.7444 292.402 60.1694 291.677 62.4819 291.677ZM62.4819 292.427C60.7819 292.427 59.7194 292.89 59.7319 293.665C59.7194 294.427 60.7819 294.877 62.4819 294.877C64.1694 294.877 65.2319 294.427 65.2444 293.665C65.2319 292.89 64.1694 292.427 62.4819 292.427ZM76.3289 284.552V287.402H77.9914V288.24H76.3289V291.115H75.3414V284.552H76.3289ZM76.3289 291.615V293.852H70.0914V294.84H76.7539V295.54H69.1164V293.19H75.3539V292.315H69.0914V291.615H76.3289ZM67.6039 290.115C68.4914 290.115 69.5289 290.115 70.6164 290.077V289.39C69.3164 289.296 68.4914 288.777 68.4914 287.927C68.4914 287.015 69.5164 286.49 71.0914 286.49C72.6789 286.49 73.6914 287.015 73.7039 287.927C73.6914 288.771 72.8914 289.29 71.5914 289.39V290.052C72.6289 290.002 73.6789 289.921 74.6539 289.777L74.7414 290.44C72.3414 290.827 69.6664 290.852 67.7164 290.852L67.6039 290.115ZM74.3164 285.402V286.115H67.8789V285.402H70.6164V284.452H71.5914V285.402H74.3164ZM71.0914 287.14C70.0664 287.152 69.4289 287.44 69.4289 287.927C69.4289 288.427 70.0664 288.752 71.0914 288.752C72.1164 288.752 72.7664 288.427 72.7664 287.927C72.7664 287.44 72.1164 287.152 71.0914 287.14ZM83.6509 284.752C86.1259 284.752 87.5759 285.427 87.5759 286.665C87.5759 287.927 86.1259 288.602 83.6509 288.615C81.1759 288.602 79.7134 287.927 79.7134 286.665C79.7134 285.427 81.1759 284.752 83.6509 284.752ZM83.6509 285.49C81.8009 285.49 80.7259 285.94 80.7384 286.665C80.7259 287.44 81.8009 287.865 83.6509 287.865C85.4884 287.865 86.5759 287.44 86.5759 286.665C86.5759 285.94 85.4884 285.49 83.6509 285.49ZM88.7134 289.365V290.165H78.5884V289.365H88.7134ZM87.4134 291.127V293.615H80.8134V294.765H87.7509V295.54H79.8384V292.89H86.4509V291.877H79.8134V291.127H87.4134ZM101.295 284.515V287.215H102.982V288.027H101.295V290.665H100.32V284.515H101.295ZM101.295 291.24V293.702H95.1949V294.79H101.707V295.54H94.2324V292.977H100.32V291.977H94.2074V291.24H101.295ZM99.2574 285.565V286.352H92.6324V285.565H95.4574V284.44H96.4324V285.565H99.2574ZM95.9449 286.852C97.5574 286.852 98.6074 287.552 98.6199 288.677C98.6074 289.802 97.5574 290.502 95.9449 290.502C94.3199 290.502 93.2574 289.802 93.2699 288.677C93.2574 287.552 94.3199 286.852 95.9449 286.852ZM95.9449 287.577C94.8949 287.577 94.1949 288.015 94.2074 288.677C94.1949 289.352 94.8949 289.765 95.9449 289.765C96.9949 289.765 97.6824 289.352 97.6949 288.677C97.6824 288.015 96.9949 287.577 95.9449 287.577ZM112.201 285.59C112.201 287.152 114.251 288.515 116.251 288.79L115.851 289.59C114.126 289.302 112.42 288.346 111.701 286.977C110.989 288.352 109.276 289.302 107.551 289.59L107.151 288.79C109.151 288.515 111.189 287.177 111.189 285.59V284.952H112.201V285.59ZM116.751 290.815V291.64H112.151V295.665H111.189V291.64H106.626V290.815H116.751ZM124.408 292.015C124.408 292.996 124.933 294.04 125.995 294.64C127.045 293.984 127.608 292.877 127.608 292.015V291.402H128.57V292.015C128.57 293.152 129.408 294.302 130.833 294.79L130.345 295.515C129.233 295.121 128.452 294.346 128.07 293.415C127.727 294.315 127.045 295.165 126.02 295.602C124.939 295.19 124.252 294.371 123.92 293.44C123.527 294.34 122.758 295.115 121.695 295.515L121.195 294.79C122.595 294.265 123.445 293.077 123.458 292.015V291.402H124.408V292.015ZM129.82 284.565V290.915H128.845V284.565H129.82ZM123.82 285.215C125.508 285.215 126.733 286.265 126.733 287.815C126.733 289.34 125.508 290.39 123.82 290.39C122.133 290.39 120.908 289.34 120.908 287.815C120.908 286.265 122.133 285.215 123.82 285.215ZM123.82 286.052C122.683 286.04 121.858 286.777 121.87 287.815C121.858 288.84 122.683 289.565 123.82 289.577C124.945 289.565 125.77 288.84 125.77 287.815C125.77 286.777 124.945 286.04 123.82 286.052ZM140.567 287.927V288.715H132.955V284.965H133.93V287.927H140.567ZM141.742 290.227V291.027H131.567V290.227H141.742ZM140.63 294.577V295.39H132.892V292.165H133.867V294.577H140.63ZM149.361 286.665C149.361 288.115 150.449 289.415 152.086 289.952L151.624 290.727C150.343 290.309 149.374 289.421 148.899 288.302C148.418 289.577 147.393 290.571 146.061 291.052L145.561 290.265C147.224 289.702 148.386 288.265 148.399 286.665V286.19H145.861V285.377H151.861V286.19H149.361V286.665ZM154.286 284.552V287.39H155.961V288.215H154.286V291.265H153.311V284.552H154.286ZM150.724 291.565C153.011 291.565 154.386 292.315 154.386 293.59C154.386 294.89 153.011 295.64 150.724 295.64C148.436 295.64 147.036 294.89 147.036 293.59C147.036 292.315 148.436 291.565 150.724 291.565ZM150.724 292.352C149.049 292.352 148.011 292.815 148.024 293.59C148.011 294.39 149.049 294.852 150.724 294.852C152.411 294.852 153.436 294.39 153.436 293.59C153.436 292.815 152.411 292.352 150.724 292.352ZM166.708 293.402V294.215H156.533V293.402H161.083V290.677H162.046V293.402H166.708ZM162.071 286.165C162.071 288.027 164.271 289.652 166.208 289.99L165.771 290.802C164.077 290.459 162.29 289.309 161.571 287.702C160.84 289.302 159.065 290.459 157.371 290.802L156.933 289.99C158.871 289.652 161.046 288.027 161.046 286.165V285.315H162.071V286.165Z" fill="#1A1C1C"/>
<rect x="276.801" y="283.75" width="12.8" height="12.8" rx="6.4" fill="#AAABAB"/>
<path fill-rule="evenodd" clip-rule="evenodd" d="M280.148 287.097C280.345 286.9 280.665 286.9 280.863 287.097L283.2 289.435L285.537 287.097C285.735 286.9 286.055 286.9 286.252 287.097C286.449 287.295 286.449 287.614 286.252 287.812L283.915 290.149L286.252 292.487C286.449 292.684 286.449 293.004 286.252 293.201C286.055 293.399 285.735 293.399 285.537 293.201L283.2 290.864L280.863 293.201C280.665 293.399 280.345 293.399 280.148 293.201C279.951 293.004 279.951 292.684 280.148 292.487L282.485 290.149L280.148 287.812C279.951 287.614 279.951 287.295 280.148 287.097Z" fill="white"/>
<rect x="24.8008" y="318.848" width="274.4" height="31.8" rx="3.2" fill="#7A5CF5"/>
<path fill-rule="evenodd" clip-rule="evenodd" d="M136.9 329.949C137.194 329.949 137.433 330.188 137.433 330.483V334.216H141.166C141.461 334.216 141.7 334.455 141.7 334.749C141.7 335.044 141.461 335.283 141.166 335.283H137.433V339.016C137.433 339.31 137.194 339.549 136.9 339.549C136.605 339.549 136.366 339.31 136.366 339.016V335.283H132.633C132.338 335.283 132.1 335.044 132.1 334.749C132.1 334.455 132.338 334.216 132.633 334.216H136.366V330.483C136.366 330.188 136.605 329.949 136.9 329.949Z" fill="white"/>
<path d="M153.456 329.784V331.059H151.193C151.206 332.384 152 333.665 153.818 334.196L153.056 335.446C151.8 335.065 150.931 334.302 150.431 333.321C149.925 334.471 149 335.384 147.631 335.834L146.818 334.571C148.706 333.977 149.556 332.502 149.581 331.059H147.256V329.784H153.456ZM156.018 329.021V331.659H157.556V332.959H156.018V335.771H154.418V329.021H156.018ZM152.293 335.996C154.656 335.984 156.131 336.796 156.131 338.184C156.131 339.571 154.656 340.396 152.293 340.396C149.881 340.396 148.393 339.571 148.393 338.184C148.393 336.796 149.881 335.984 152.293 335.996ZM152.293 337.234C150.793 337.234 149.981 337.546 149.993 338.184C149.981 338.834 150.793 339.159 152.293 339.159C153.768 339.159 154.556 338.834 154.556 338.184C154.556 337.546 153.768 337.234 152.293 337.234ZM168.34 337.759V339.034H157.928V337.759H162.278V335.184H163.865V337.759H168.34ZM163.915 330.484C163.915 332.109 165.378 333.821 167.978 334.221L167.303 335.546C165.303 335.184 163.815 334.115 163.065 332.696C162.315 334.109 160.84 335.19 158.853 335.546L158.178 334.221C160.753 333.821 162.203 332.096 162.215 330.484V329.671H163.915V330.484ZM182.06 335.834V337.134H177.647V340.409H176.072V337.134H171.685V335.834H182.06ZM181.11 330.334V331.584H177.697C177.878 332.584 179.16 333.709 181.51 333.971L180.935 335.221C179.01 335.002 177.616 334.215 176.872 333.171C176.135 334.227 174.728 335.002 172.785 335.221L172.21 333.971C174.56 333.709 175.853 332.59 176.047 331.584H172.622V330.334H176.072V329.034H177.647V330.334H181.11ZM191.594 329.021V333.384H193.207V334.696H191.594V340.371H189.994V329.021H191.594ZM188.557 330.184C188.544 333.584 187.219 336.534 183.394 338.409L182.494 337.184C185.188 335.834 186.632 334.021 186.932 331.484H183.144V330.184H188.557Z" fill="white"/>
<g filter="url(#filter1_d_1595_9911)">
<rect width="300" height="32" transform="translate(12 47.6484)" fill="white"/>
<mask id="mask1_1595_9911" style="mask-type:alpha" maskUnits="userSpaceOnUse" x="28" y="54" width="20" height="20">
<rect x="28" y="54.0469" width="19.2" height="19.2" fill="#D9D9D9"/>
</mask>
<g mask="url(#mask1_1595_9911)">
<path d="M30.9808 63.6489L36.8608 69.5289C37.0608 69.7289 37.1574 69.9623 37.1508 70.2289C37.1441 70.4956 37.0408 70.7289 36.8408 70.9289C36.6408 71.1289 36.4074 71.2289 36.1408 71.2289C35.8741 71.2289 35.6408 71.1289 35.4408 70.9289L29.2808 64.7889C29.1208 64.6289 29.0008 64.4489 28.9208 64.2489C28.8408 64.0489 28.8008 63.8489 28.8008 63.6489C28.8008 63.4489 28.8408 63.2489 28.9208 63.0489C29.0008 62.8489 29.1208 62.6689 29.2808 62.5089L35.4408 56.3489C35.6408 56.1489 35.8774 56.0522 36.1508 56.0589C36.4241 56.0656 36.6608 56.1689 36.8608 56.3689C37.0608 56.5689 37.1608 56.8022 37.1608 57.0689C37.1608 57.3356 37.0608 57.5689 36.8608 57.7689L30.9808 63.6489Z" fill="#1A1C1C"/>
</g>
<path d="M134.521 58.6859V59.9609H132.259C132.271 61.2859 133.065 62.5672 134.884 63.0984L134.121 64.3484C132.865 63.9672 131.996 63.2047 131.496 62.2234C130.99 63.3734 130.065 64.2859 128.696 64.7359L127.884 63.4734C129.771 62.8797 130.621 61.4047 130.646 59.9609H128.321V58.6859H134.521ZM137.084 57.9234V60.5609H138.621V61.8609H137.084V64.6734H135.484V57.9234H137.084ZM133.359 64.8984C135.721 64.8859 137.196 65.6984 137.196 67.0859C137.196 68.4734 135.721 69.2984 133.359 69.2984C130.946 69.2984 129.459 68.4734 129.459 67.0859C129.459 65.6984 130.946 64.8859 133.359 64.8984ZM133.359 66.1359C131.859 66.1359 131.046 66.4484 131.059 67.0859C131.046 67.7359 131.859 68.0609 133.359 68.0609C134.834 68.0609 135.621 67.7359 135.621 67.0859C135.621 66.4484 134.834 66.1359 133.359 66.1359ZM149.406 66.6609V67.9359H138.993V66.6609H143.343V64.0859H144.931V66.6609H149.406ZM144.981 59.3859C144.981 61.0109 146.443 62.7234 149.043 63.1234L148.368 64.4484C146.368 64.0859 144.881 63.0172 144.131 61.5984C143.381 63.0109 141.906 64.0922 139.918 64.4484L139.243 63.1234C141.818 62.7234 143.268 60.9984 143.281 59.3859V58.5734H144.981V59.3859ZM163.15 63.1234V64.4234H152.75V63.1234H163.15ZM161.962 61.0609V62.3234H154.012V58.2234H161.9V59.5109H155.6V61.0609H161.962ZM157.925 65.1109C160.387 65.1109 161.875 65.8609 161.887 67.1984C161.875 68.5484 160.387 69.2984 157.925 69.2984C155.437 69.2984 153.937 68.5484 153.937 67.1984C153.937 65.8609 155.437 65.1109 157.925 65.1109ZM157.925 66.3234C156.35 66.3234 155.55 66.6234 155.562 67.1984C155.55 67.7984 156.35 68.0859 157.925 68.0859C159.462 68.0859 160.275 67.7984 160.287 67.1984C160.275 66.6234 159.462 66.3234 157.925 66.3234ZM174.085 64.0234V65.2984H163.672V64.0234H168.085V63.1984H164.972V60.0734H171.222V59.3734H164.947V58.1359H172.822V61.2234H166.56V61.9734H173.035V63.1984H169.672V64.0234H174.085ZM172.885 65.9484V69.2484H171.272V67.1984H164.835V65.9484H172.885ZM183.594 57.9234V62.3734H185.269V63.6859H183.594V69.2984H182.019V57.9234H183.594ZM181.244 59.6234V60.8984H174.557V59.6234H177.132V58.0984H178.732V59.6234H181.244ZM177.932 61.5359C179.594 61.5359 180.832 62.6609 180.832 64.2484C180.832 65.8359 179.594 66.9609 177.932 66.9609C176.257 66.9609 175.019 65.8359 175.019 64.2484C175.019 62.6609 176.257 61.5359 177.932 61.5359ZM177.932 62.8234C177.132 62.8359 176.544 63.3734 176.544 64.2484C176.544 65.1359 177.132 65.6609 177.932 65.6484C178.732 65.6609 179.307 65.1359 179.307 64.2484C179.307 63.3734 178.732 62.8359 177.932 62.8234ZM195.116 57.9234V69.2984H193.504V57.9234H195.116ZM191.704 59.1109C191.704 62.5609 190.491 65.4234 186.429 67.3484L185.591 66.0734C188.529 64.6859 189.822 62.8859 190.079 60.3609H186.204V59.1109H191.704Z" fill="#1A1C1C"/>
</g>
<g clip-path="url(#clip1_1595_9911)">
<rect width="300" height="35.2" transform="translate(12 12.4492)" fill="white"/>
<path d="M96.3984 10.8516H227.598V10.8516C226.315 11.3583 225.46 12.5837 225.427 13.9628L225.392 15.4493V15.4493C225.392 26.6067 216.347 35.6516 205.189 35.6516H118.807C107.65 35.6516 98.6052 26.6067 98.6052 15.4493V15.4493L98.5696 13.9628C98.5367 12.5837 97.6815 11.3583 96.3984 10.8516V10.8516Z" fill="black"/>
<path opacity="0.35" d="M282.936 26.7164H296.269C297.227 26.7164 298.003 27.4924 298.003 28.4497V33.2497C298.003 34.207 297.227 34.9831 296.269 34.9831H282.936C281.979 34.9831 281.203 34.207 281.203 33.2497V28.4497C281.203 27.4924 281.979 26.7164 282.936 26.7164Z" stroke="black" stroke-width="0.8"/>
<path opacity="0.4" d="M299.203 29.25V32.45C299.847 32.179 300.266 31.5485 300.266 30.85C300.266 30.1515 299.847 29.521 299.203 29.25" fill="black"/>
<path d="M282.402 28.798C282.402 28.312 282.796 27.918 283.282 27.918H295.922C296.408 27.918 296.802 28.312 296.802 28.798V32.9046C296.802 33.3906 296.408 33.7846 295.922 33.7846H283.282C282.796 33.7846 282.402 33.3906 282.402 32.9046V28.798Z" fill="black"/>
<path fill-rule="evenodd" clip-rule="evenodd" d="M270.666 28.1344C272.439 28.1344 274.144 28.8156 275.428 30.037C275.525 30.1313 275.68 30.1301 275.775 30.0344L276.7 29.101C276.748 29.0525 276.775 28.9866 276.775 28.9182C276.774 28.8497 276.746 28.7842 276.698 28.7362C273.326 25.5046 268.006 25.5046 264.634 28.7362C264.585 28.7842 264.557 28.8497 264.557 28.9181C264.556 28.9866 264.583 29.0524 264.631 29.101L265.556 30.0344C265.652 30.1303 265.806 30.1315 265.903 30.037C267.188 28.8155 268.893 28.1344 270.666 28.1344ZM270.666 31.1709C271.64 31.1708 272.579 31.5329 273.301 32.1866C273.399 32.2794 273.553 32.2774 273.648 32.1821L274.572 31.2488C274.62 31.1998 274.647 31.1334 274.646 31.0644C274.646 30.9954 274.617 30.9295 274.568 30.8816C272.369 28.8365 268.964 28.8365 266.766 30.8816C266.716 30.9295 266.688 30.9954 266.687 31.0644C266.687 31.1335 266.714 31.1999 266.762 31.2488L267.686 32.1821C267.781 32.2774 267.935 32.2794 268.033 32.1866C268.754 31.5333 269.693 31.1713 270.666 31.1709ZM272.516 33.214C272.518 33.2832 272.491 33.3499 272.441 33.3984L270.843 35.0109C270.796 35.0583 270.733 35.085 270.666 35.085C270.599 35.085 270.535 35.0583 270.489 35.0109L268.89 33.3984C268.841 33.3498 268.814 33.2831 268.815 33.2139C268.817 33.1447 268.847 33.0792 268.898 33.0328C269.919 32.1697 271.413 32.1697 272.434 33.0328C272.485 33.0792 272.515 33.1447 272.516 33.214Z" fill="black"/>
<path fill-rule="evenodd" clip-rule="evenodd" d="M259.736 26.582H258.936C258.494 26.582 258.136 26.9402 258.136 27.382V34.3154C258.136 34.7572 258.494 35.1154 258.936 35.1154H259.736C260.177 35.1154 260.536 34.7572 260.536 34.3154V27.382C260.536 26.9402 260.177 26.582 259.736 26.582ZM255.202 28.4487H256.002C256.444 28.4487 256.802 28.8069 256.802 29.2487V34.3154C256.802 34.7572 256.444 35.1154 256.002 35.1154H255.202C254.76 35.1154 254.402 34.7572 254.402 34.3154V29.2487C254.402 28.8069 254.76 28.4487 255.202 28.4487ZM252.269 30.3154H251.469C251.027 30.3154 250.669 30.6735 250.669 31.1154V34.3154C250.669 34.7572 251.027 35.1154 251.469 35.1154H252.269C252.711 35.1154 253.069 34.7572 253.069 34.3154V31.1154C253.069 30.6735 252.711 30.3154 252.269 30.3154ZM248.536 31.9154H247.736C247.294 31.9154 246.936 32.2735 246.936 32.7154V34.3154C246.936 34.7572 247.294 35.1154 247.736 35.1154H248.536C248.977 35.1154 249.336 34.7572 249.336 34.3154V32.7154C249.336 32.2735 248.977 31.9154 248.536 31.9154Z" fill="black"/>
<path d="M43.2608 34.9758C43.0288 34.9758 42.7688 34.9558 42.4808 34.9158C42.2008 34.8758 41.9688 34.8237 41.7848 34.7597C41.7128 34.7357 41.6808 34.6837 41.6888 34.6037L41.7248 33.6437C41.7408 33.5317 41.8048 33.4997 41.9168 33.5477C42.1248 33.6277 42.3448 33.6797 42.5768 33.7037C42.8168 33.7277 43.0768 33.7397 43.3568 33.7397C43.7728 33.7397 44.1248 33.6717 44.4128 33.5357C44.7088 33.3917 44.9568 33.1957 45.1568 32.9477C45.3568 32.6997 45.5128 32.4077 45.6248 32.0717C45.7448 31.7357 45.8328 31.3757 45.8888 30.9917C45.8168 31.0877 45.7168 31.1837 45.5888 31.2797C45.4688 31.3677 45.3328 31.4477 45.1808 31.5197C45.0368 31.5837 44.8848 31.6397 44.7248 31.6877C44.5648 31.7277 44.4088 31.7477 44.2568 31.7477C43.8248 31.7477 43.4288 31.6797 43.0688 31.5437C42.7168 31.3997 42.4128 31.1997 42.1568 30.9437C41.9008 30.6797 41.7008 30.3677 41.5568 30.0077C41.4208 29.6397 41.3528 29.2277 41.3528 28.7717C41.3528 28.3317 41.4208 27.9237 41.5568 27.5477C41.6928 27.1637 41.8888 26.8317 42.1448 26.5517C42.4088 26.2717 42.7248 26.0517 43.0928 25.8917C43.4608 25.7317 43.8728 25.6517 44.3288 25.6517C45.2728 25.6517 45.9968 26.0077 46.5008 26.7197C47.0128 27.4237 47.2688 28.5237 47.2688 30.0197C47.2688 30.6917 47.2008 31.3317 47.0648 31.9397C46.9288 32.5397 46.7008 33.0637 46.3808 33.5117C46.0688 33.9597 45.6568 34.3157 45.1448 34.5797C44.6328 34.8438 44.0048 34.9758 43.2608 34.9758ZM44.3048 26.8397C43.8248 26.8397 43.4328 27.0077 43.1288 27.3437C42.8248 27.6797 42.6728 28.1357 42.6728 28.7117C42.6728 29.2637 42.8048 29.6997 43.0688 30.0197C43.3408 30.3397 43.7208 30.4997 44.2088 30.4997C44.7288 30.4997 45.1368 30.3437 45.4328 30.0317C45.7288 29.7117 45.8768 29.3077 45.8768 28.8197C45.8768 28.5477 45.8368 28.2917 45.7568 28.0517C45.6768 27.8117 45.5648 27.6037 45.4208 27.4277C45.2848 27.2437 45.1208 27.0997 44.9288 26.9957C44.7368 26.8917 44.5288 26.8397 44.3048 26.8397ZM49.4421 28.5077C49.1861 28.5077 48.9661 28.4197 48.7821 28.2437C48.6061 28.0597 48.5181 27.8477 48.5181 27.6077C48.5181 27.3597 48.6061 27.1477 48.7821 26.9717C48.9661 26.7877 49.1861 26.6957 49.4421 26.6957C49.6981 26.6957 49.9141 26.7877 50.0901 26.9717C50.2661 27.1477 50.3541 27.3597 50.3541 27.6077C50.3541 27.8477 50.2661 28.0597 50.0901 28.2437C49.9141 28.4197 49.6981 28.5077 49.4421 28.5077ZM49.4421 33.9677C49.1861 33.9677 48.9661 33.8797 48.7821 33.7037C48.6061 33.5197 48.5181 33.3037 48.5181 33.0557C48.5181 32.8157 48.6061 32.6077 48.7821 32.4317C48.9661 32.2477 49.1861 32.1557 49.4421 32.1557C49.6981 32.1557 49.9141 32.2477 50.0901 32.4317C50.2661 32.6077 50.3541 32.8157 50.3541 33.0557C50.3541 33.3037 50.2661 33.5197 50.0901 33.7037C49.9141 33.8797 49.6981 33.9677 49.4421 33.9677ZM56.4189 32.8397V34.6637C56.4189 34.7517 56.4069 34.8117 56.3829 34.8438C56.3589 34.8678 56.3029 34.8798 56.2149 34.8798H55.3509C55.2629 34.8798 55.2029 34.8638 55.1709 34.8317C55.1469 34.7997 55.1349 34.7437 55.1349 34.6637V32.8397H51.2949C51.2149 32.8397 51.1629 32.8317 51.1389 32.8157C51.1149 32.7997 51.1029 32.7597 51.1029 32.6957V31.8077C51.1029 31.7517 51.1189 31.6957 51.1509 31.6397C51.1829 31.5837 51.2149 31.5357 51.2469 31.4957L54.9549 25.9157C55.0029 25.8517 55.0349 25.8117 55.0509 25.7957C55.0749 25.7717 55.1269 25.7597 55.2069 25.7597H56.2989C56.3629 25.7597 56.3989 25.7717 56.4069 25.7957C56.4149 25.8197 56.4189 25.8677 56.4189 25.9397V31.6037H57.5349C57.6069 31.6037 57.6549 31.6157 57.6789 31.6397C57.7029 31.6557 57.7149 31.7037 57.7149 31.7837V32.6597C57.7149 32.7397 57.7029 32.7917 57.6789 32.8157C57.6549 32.8317 57.6069 32.8397 57.5349 32.8397H56.4189ZM52.5549 31.6037H55.1349V27.6917L52.5549 31.6037ZM61.0883 34.8798C60.9763 34.8798 60.9203 34.8277 60.9203 34.7237V27.6197L60.0323 28.3877C59.9923 28.4197 59.9443 28.4397 59.8883 28.4477C59.8403 28.4557 59.8003 28.4437 59.7683 28.4117L59.2283 27.7637C59.2043 27.7317 59.1923 27.6957 59.1923 27.6557C59.2003 27.6077 59.2243 27.5637 59.2643 27.5237L61.1003 25.8317C61.1163 25.8157 61.1443 25.7997 61.1843 25.7837C61.2243 25.7677 61.2563 25.7597 61.2803 25.7597H61.9163C62.0523 25.7597 62.1323 25.7757 62.1563 25.8077C62.1883 25.8317 62.2043 25.9237 62.2043 26.0837V34.7237C62.2043 34.8277 62.1523 34.8798 62.0483 34.8798H61.0883Z" fill="black"/>
</g>
</g>
</g>
<defs>
<filter id="filter0_d_1595_9911" x="0" y="0.457031" width="324" height="370.25" filterUnits="userSpaceOnUse" color-interpolation-filters="sRGB">
<feFlood flood-opacity="0" result="BackgroundImageFix"/>
<feColorMatrix in="SourceAlpha" type="matrix" values="0 0 0 0 0 0 0 0 0 0 0 0 0 0 0 0 0 0 127 0" result="hardAlpha"/>
<feOffset/>
<feGaussianBlur stdDeviation="6"/>
<feComposite in2="hardAlpha" operator="out"/>
<feColorMatrix type="matrix" values="0 0 0 0 0 0 0 0 0 0 0 0 0 0 0 0 0 0 0.1 0"/>
<feBlend mode="normal" in2="BackgroundImageFix" result="effect1_dropShadow_1595_9911"/>
<feBlend mode="normal" in="SourceGraphic" in2="effect1_dropShadow_1595_9911" result="shape"/>
</filter>
<filter id="filter1_d_1595_9911" x="0" y="37.6484" width="324" height="56" filterUnits="userSpaceOnUse" color-interpolation-filters="sRGB">
<feFlood flood-opacity="0" result="BackgroundImageFix"/>
<feColorMatrix in="SourceAlpha" type="matrix" values="0 0 0 0 0 0 0 0 0 0 0 0 0 0 0 0 0 0 127 0" result="hardAlpha"/>
<feOffset dy="2"/>
<feGaussianBlur stdDeviation="6"/>
<feComposite in2="hardAlpha" operator="out"/>
<feColorMatrix type="matrix" values="0 0 0 0 0 0 0 0 0 0 0 0 0 0 0 0 0 0 0.05 0"/>
<feBlend mode="normal" in2="BackgroundImageFix" result="effect1_dropShadow_1595_9911"/>
<feBlend mode="normal" in="SourceGraphic" in2="effect1_dropShadow_1595_9911" result="shape"/>
</filter>
<clipPath id="clip0_1595_9911">
<rect x="12" y="12.457" width="300" height="346.25" rx="17.1429" fill="white"/>
</clipPath>
<clipPath id="clip1_1595_9911">
<rect width="300" height="35.2" fill="white" transform="translate(12 12.4492)"/>
</clipPath>
</defs>
</svg>
