<svg width="16" height="16" viewBox="0 0 16 16" fill="none" xmlns="http://www.w3.org/2000/svg">
<rect width="16" height="16" rx="4" fill="#CABEFF"/>
<mask id="mask0_684_10500" style="mask-type:alpha" maskUnits="userSpaceOnUse" x="0" y="0" width="16" height="16">
<rect width="16" height="16" fill="#D9D9D9"/>
</mask>
<g mask="url(#mask0_684_10500)">
<path d="M7.99922 7.99922C7.33255 7.99922 6.76589 7.76589 6.29922 7.29922C5.83255 6.83255 5.59922 6.26589 5.59922 5.59922C5.59922 4.93255 5.83255 4.36589 6.29922 3.89922C6.76589 3.43255 7.33255 3.19922 7.99922 3.19922C8.66589 3.19922 9.23255 3.43255 9.69922 3.89922C10.1659 4.36589 10.3992 4.93255 10.3992 5.59922C10.3992 6.26589 10.1659 6.83255 9.69922 7.29922C9.23255 7.76589 8.66589 7.99922 7.99922 7.99922ZM3.19922 11.5992V11.1992C3.19922 10.9437 3.26866 10.702 3.40755 10.4742C3.54644 10.2464 3.73811 10.0548 3.98255 9.89922C4.59366 9.54366 5.23972 9.27144 5.92072 9.08255C6.60172 8.89366 7.29339 8.79922 7.99572 8.79922C8.69805 8.79922 9.39089 8.89366 10.0742 9.08255C10.7576 9.27144 11.4048 9.54366 12.0159 9.89922C12.2603 10.0437 12.452 10.2326 12.5909 10.4659C12.7298 10.6992 12.7992 10.9437 12.7992 11.1992V11.5992C12.7992 11.9292 12.6817 12.2117 12.4466 12.4467C12.2114 12.6817 11.9288 12.7992 11.5986 12.7992H4.39455C4.06433 12.7992 3.78255 12.6817 3.54922 12.4467C3.31589 12.2117 3.19922 11.9292 3.19922 11.5992ZM4.39922 11.5992H11.5992V11.1992C11.5992 11.1417 11.5824 11.0894 11.5487 11.0424C11.5152 10.9953 11.4709 10.9587 11.4159 10.9326C10.9048 10.6214 10.3603 10.3881 9.78255 10.2326C9.20477 10.077 8.61033 9.99922 7.99922 9.99922C7.38811 9.99922 6.79366 10.077 6.21589 10.2326C5.63811 10.3881 5.09366 10.6214 4.58255 10.9326C4.527 10.977 4.48255 11.0199 4.44922 11.0612C4.41589 11.1027 4.39922 11.1487 4.39922 11.1992V11.5992ZM8.00272 6.79922C8.33372 6.79922 8.61589 6.68139 8.84922 6.44572C9.08255 6.21005 9.19922 5.92672 9.19922 5.59572C9.19922 5.26472 9.08139 4.98255 8.84572 4.74922C8.61005 4.51589 8.32672 4.39922 7.99572 4.39922C7.66472 4.39922 7.38255 4.51705 7.14922 4.75272C6.91589 4.98839 6.79922 5.27172 6.79922 5.60272C6.79922 5.93372 6.91705 6.21589 7.15272 6.44922C7.38839 6.68255 7.67172 6.79922 8.00272 6.79922Z" fill="#7A5CF5"/>
</g>
</svg>
