<svg width="24" height="24" viewBox="0 0 24 24" fill="none" xmlns="http://www.w3.org/2000/svg">
<rect width="24" height="24" rx="4" fill="#CABEFF"/>
<path d="M7.5 12.0013C7.5 12.168 7.51042 12.3346 7.53125 12.5013C7.55208 12.668 7.57639 12.8277 7.60417 12.9805C7.64583 13.1749 7.62847 13.3694 7.55208 13.5638C7.47569 13.7582 7.34028 13.8902 7.14583 13.9596C6.95139 14.0291 6.76042 14.0187 6.57292 13.9284C6.38542 13.8381 6.26389 13.6957 6.20833 13.5013C6.13889 13.2652 6.08681 13.0221 6.05208 12.7721C6.01736 12.5221 6 12.2652 6 12.0013C6 10.3207 6.59028 8.89019 7.77083 7.70964C8.95139 6.52908 10.4028 5.95964 12.125 6.0013L11.4583 5.33464C11.3056 5.18186 11.2292 5.00477 11.2292 4.80339C11.2292 4.602 11.3056 4.42491 11.4583 4.27214C11.6111 4.11936 11.7882 4.04297 11.9896 4.04297C12.191 4.04297 12.3681 4.11936 12.5208 4.27214L14.4792 6.23047C14.6319 6.38325 14.7083 6.55686 14.7083 6.7513C14.7083 6.94575 14.6319 7.11936 14.4792 7.27214L12.5208 9.23047C12.3681 9.38325 12.1944 9.45616 12 9.44922C11.8056 9.44227 11.6319 9.36241 11.4792 9.20964C11.3264 9.05686 11.25 8.87977 11.25 8.67839C11.25 8.477 11.3264 8.29991 11.4792 8.14714L12.125 7.5013C10.8194 7.47352 9.72222 7.90408 8.83333 8.79297C7.94444 9.68186 7.5 10.7513 7.5 12.0013ZM16.5 12.0013C16.5 11.8346 16.4896 11.668 16.4688 11.5013C16.4479 11.3346 16.4236 11.1749 16.3958 11.0221C16.3542 10.8138 16.3715 10.6159 16.4479 10.4284C16.5243 10.2409 16.6597 10.1055 16.8542 10.0221C17.0486 9.9388 17.2361 9.9388 17.4167 10.0221C17.5972 10.1055 17.7153 10.2444 17.7708 10.4388C17.8403 10.6888 17.8958 10.9423 17.9375 11.1992C17.9792 11.4562 18 11.7235 18 12.0013C18 13.668 17.4097 15.0951 16.2292 16.2826C15.0486 17.4701 13.5972 18.043 11.875 18.0013L12.5417 18.668C12.6944 18.8207 12.7708 18.9978 12.7708 19.1992C12.7708 19.4006 12.6944 19.5777 12.5417 19.7305C12.3889 19.8832 12.2118 19.9596 12.0104 19.9596C11.809 19.9596 11.6319 19.8832 11.4792 19.7305L9.52083 17.7721C9.36806 17.6194 9.29167 17.4457 9.29167 17.2513C9.29167 17.0569 9.36806 16.8832 9.52083 16.7305L11.4792 14.7721C11.6319 14.6194 11.809 14.543 12.0104 14.543C12.2118 14.543 12.3889 14.6194 12.5417 14.7721C12.6944 14.9249 12.7708 15.102 12.7708 15.3034C12.7708 15.5048 12.6944 15.6819 12.5417 15.8346L11.875 16.5013C13.1806 16.5291 14.2778 16.0985 15.1667 15.2096C16.0556 14.3207 16.5 13.2513 16.5 12.0013Z" fill="#7A5CF5"/>
</svg>
