<svg width="24" height="24" viewBox="0 0 24 24" fill="none" xmlns="http://www.w3.org/2000/svg">
<mask id="mask0_2376_9960" style="mask-type:alpha" maskUnits="userSpaceOnUse" x="0" y="0" width="24" height="24">
<rect width="24" height="24" fill="#D9D9D9"/>
</mask>
<g mask="url(#mask0_2376_9960)">
<path d="M21.175 12.0008L17.275 8.10078C17.0917 7.91745 17 7.68411 17 7.40078C17 7.11745 17.0917 6.88411 17.275 6.70078C17.4583 6.51745 17.6917 6.42578 17.975 6.42578C18.2583 6.42578 18.4917 6.51745 18.675 6.70078L23.275 11.3008C23.375 11.4008 23.4458 11.5091 23.4875 11.6258C23.5292 11.7424 23.55 11.8674 23.55 12.0008C23.55 12.1341 23.5292 12.2591 23.4875 12.3758C23.4458 12.4924 23.375 12.6008 23.275 12.7008L18.675 17.3008C18.4917 17.4841 18.2583 17.5758 17.975 17.5758C17.6917 17.5758 17.4583 17.4841 17.275 17.3008C17.0917 17.1174 17 16.8841 17 16.6008C17 16.3174 17.0917 16.0841 17.275 15.9008L21.175 12.0008Z" fill="#909191"/>
</g>
</svg>
