<svg width="70" height="95" viewBox="0 0 70 95" fill="none" xmlns="http://www.w3.org/2000/svg">
<mask id="path-1-inside-1_985_11454" fill="white">
<path fill-rule="evenodd" clip-rule="evenodd" d="M50.4086 28.3314C52.0583 25.5356 53.0049 22.2754 53.0049 18.7942C53.0049 8.41443 44.5903 0 34.2104 0C23.8306 0 15.416 8.41443 15.416 18.7942C15.416 22.5018 16.4897 25.9588 18.3431 28.871C7.421 34.7671 0 46.3162 0 59.5987C0 78.8711 15.6236 94.4946 34.8964 94.4946C54.1691 94.4946 69.7928 78.8711 69.7928 59.5987C69.7928 45.8984 61.8975 34.0421 50.4086 28.3314Z"/>
</mask>
<path fill-rule="evenodd" clip-rule="evenodd" d="M50.4086 28.3314C52.0583 25.5356 53.0049 22.2754 53.0049 18.7942C53.0049 8.41443 44.5903 0 34.2104 0C23.8306 0 15.416 8.41443 15.416 18.7942C15.416 22.5018 16.4897 25.9588 18.3431 28.871C7.421 34.7671 0 46.3162 0 59.5987C0 78.8711 15.6236 94.4946 34.8964 94.4946C54.1691 94.4946 69.7928 78.8711 69.7928 59.5987C69.7928 45.8984 61.8975 34.0421 50.4086 28.3314Z" fill="white"/>
<path d="M50.4086 28.3314L49.7627 27.9503L49.3531 28.6443L50.0748 29.003L50.4086 28.3314ZM18.3431 28.871L18.6993 29.531L19.4084 29.1482L18.9758 28.4683L18.3431 28.871ZM52.2549 18.7942C52.2549 22.1377 51.3461 25.2668 49.7627 27.9503L51.0545 28.7126C52.7705 25.8045 53.7549 22.4131 53.7549 18.7942H52.2549ZM34.2104 0.749995C44.1761 0.749995 52.2549 8.82865 52.2549 18.7942H53.7549C53.7549 8.00021 45.0045 -0.749995 34.2104 -0.749995V0.749995ZM16.166 18.7942C16.166 8.82865 24.2448 0.749995 34.2104 0.749995V-0.749995C23.4164 -0.749995 14.666 8.00021 14.666 18.7942H16.166ZM18.9758 28.4683C17.1967 25.6729 16.166 22.355 16.166 18.7942H14.666C14.666 22.6487 15.7826 26.2447 17.7103 29.2737L18.9758 28.4683ZM0.749995 59.5987C0.749995 46.6027 8.01009 35.3014 18.6993 29.531L17.9868 28.211C6.83191 34.2328 -0.749995 46.0297 -0.749995 59.5987H0.749995ZM34.8964 93.7446C16.0378 93.7446 0.749995 78.4569 0.749995 59.5987H-0.749995C-0.749995 79.2854 15.2094 95.2445 34.8964 95.2445V93.7446ZM69.0428 59.5987C69.0428 78.4569 53.7549 93.7446 34.8964 93.7446V95.2445C54.5833 95.2445 70.5428 79.2854 70.5428 59.5987H69.0428ZM50.0748 29.003C61.3186 34.5919 69.0428 46.1939 69.0428 59.5987H70.5428C70.5428 45.6028 62.4764 33.4923 50.7424 27.6598L50.0748 29.003Z" fill="black" mask="url(#path-1-inside-1_985_11454)"/>
<ellipse cx="34.9478" cy="17.1646" rx="2.21732" ry="3.85386" fill="black"/>
<ellipse cx="30.0904" cy="16.8365" rx="2.21732" ry="3.85386" fill="black"/>
<path d="M26.0801 23.0148C26.9776 24.4578 29.7967 27.3438 33.8935 27.3438C37.9903 27.3438 40.3871 23.7539 41.0734 21.959" stroke="black" stroke-width="0.749995"/>
</svg>
