<svg width="84" height="114" viewBox="0 0 84 114" fill="none" xmlns="http://www.w3.org/2000/svg">
<mask id="path-1-inside-1_985_11432" fill="white">
<path fill-rule="evenodd" clip-rule="evenodd" d="M60.177 34.4751C62.1479 31.1365 63.2788 27.243 63.2788 23.0854C63.2788 10.6938 53.2333 0.648438 40.8415 0.648438C28.4498 0.648438 18.4043 10.6938 18.4043 23.0854C18.4043 27.5132 19.6869 31.6415 21.9009 35.1189C8.86051 42.1573 0 55.9458 0 71.8037C0 94.8116 18.6519 113.463 41.6602 113.463C64.6684 113.463 83.3203 94.8116 83.3203 71.8037C83.3203 55.4471 73.8938 41.2922 60.177 34.4751Z"/>
</mask>
<path fill-rule="evenodd" clip-rule="evenodd" d="M60.177 34.4751C62.1479 31.1365 63.2788 27.243 63.2788 23.0854C63.2788 10.6938 53.2333 0.648438 40.8415 0.648438C28.4498 0.648438 18.4043 10.6938 18.4043 23.0854C18.4043 27.5132 19.6869 31.6415 21.9009 35.1189C8.86051 42.1573 0 55.9458 0 71.8037C0 94.8116 18.6519 113.463 41.6602 113.463C64.6684 113.463 83.3203 94.8116 83.3203 71.8037C83.3203 55.4471 73.8938 41.2922 60.177 34.4751Z" fill="white"/>
<path d="M60.177 34.4751L59.5311 34.0938L59.1213 34.788L59.8432 35.1467L60.177 34.4751ZM21.9009 35.1189L22.2571 35.7789L22.9665 35.396L22.5336 34.7161L21.9009 35.1189ZM62.5288 23.0854C62.5288 27.1052 61.4358 30.8676 59.5311 34.0938L60.8228 34.8564C62.8601 31.4055 64.0288 27.3807 64.0288 23.0854H62.5288ZM40.8415 1.39843C52.8191 1.39843 62.5288 11.108 62.5288 23.0854H64.0288C64.0288 10.2796 53.6475 -0.101557 40.8415 -0.101557V1.39843ZM19.1543 23.0854C19.1543 11.108 28.864 1.39843 40.8415 1.39843V-0.101557C28.0356 -0.101557 17.6543 10.2796 17.6543 23.0854H19.1543ZM22.5336 34.7161C20.3939 31.3555 19.1543 27.3663 19.1543 23.0854H17.6543C17.6543 27.6601 18.9799 31.9275 21.2683 35.5217L22.5336 34.7161ZM0.749995 71.8037C0.749995 56.2323 9.44958 42.6916 22.2571 35.7789L21.5447 34.4589C8.27144 41.623 -0.749995 55.6593 -0.749995 71.8037H0.749995ZM41.6602 112.713C19.0661 112.713 0.749995 94.3974 0.749995 71.8037H-0.749995C-0.749995 95.2258 18.2377 114.213 41.6602 114.213V112.713ZM82.5703 71.8037C82.5703 94.3974 64.2542 112.713 41.6602 112.713V114.213C65.0826 114.213 84.0703 95.2258 84.0703 71.8037H82.5703ZM59.8432 35.1467C73.3149 41.842 82.5703 55.7427 82.5703 71.8037H84.0703C84.0703 55.1516 74.4727 40.7424 60.5108 33.8035L59.8432 35.1467Z" fill="black" mask="url(#path-1-inside-1_985_11432)"/>
<ellipse cx="2.64707" cy="4.60086" rx="2.64707" ry="4.60086" transform="matrix(0.730226 0.683206 -0.683217 0.730216 45.2866 15.9634)" fill="black"/>
<ellipse cx="2.64709" cy="4.60084" rx="2.64709" ry="4.60084" transform="matrix(0.947405 -0.320037 0.320046 0.947402 31.9453 17.2405)" fill="black"/>
<path d="M31.1367 28.1338C32.2082 29.8565 35.5737 33.3018 40.4646 33.3018C45.3554 33.3018 48.2168 29.0161 49.0361 26.8733" stroke="black" stroke-width="0.749995"/>
</svg>
