<svg width="84" height="113" viewBox="0 0 84 113" fill="none" xmlns="http://www.w3.org/2000/svg">
<mask id="path-1-inside-1_985_11489" fill="white">
<path fill-rule="evenodd" clip-rule="evenodd" d="M60.177 33.8266C62.1479 30.4881 63.2788 26.5946 63.2788 22.4369C63.2788 10.0454 53.2333 0 40.8415 0C28.4498 0 18.4043 10.0454 18.4043 22.4369C18.4043 26.8648 19.6869 30.993 21.9009 34.4704C8.86051 41.5089 0 55.2973 0 71.1552C0 94.1632 18.6519 112.815 41.6602 112.815C64.6684 112.815 83.3203 94.1632 83.3203 71.1552C83.3203 54.7987 73.8938 40.6438 60.177 33.8266Z"/>
</mask>
<path fill-rule="evenodd" clip-rule="evenodd" d="M60.177 33.8266C62.1479 30.4881 63.2788 26.5946 63.2788 22.4369C63.2788 10.0454 53.2333 0 40.8415 0C28.4498 0 18.4043 10.0454 18.4043 22.4369C18.4043 26.8648 19.6869 30.993 21.9009 34.4704C8.86051 41.5089 0 55.2973 0 71.1552C0 94.1632 18.6519 112.815 41.6602 112.815C64.6684 112.815 83.3203 94.1632 83.3203 71.1552C83.3203 54.7987 73.8938 40.6438 60.177 33.8266Z" fill="white"/>
<path d="M60.177 33.8266L59.5311 33.4454L59.1214 34.1395L59.8432 34.4983L60.177 33.8266ZM21.9009 34.4704L22.2571 35.1304L22.9665 34.7476L22.5336 34.0676L21.9009 34.4704ZM62.5288 22.4369C62.5288 26.4568 61.4358 30.2191 59.5311 33.4454L60.8228 34.2079C62.8601 30.757 64.0288 26.7323 64.0288 22.4369H62.5288ZM40.8415 0.749995C52.8191 0.749995 62.5288 10.4596 62.5288 22.4369H64.0288C64.0288 9.63113 53.6475 -0.749995 40.8415 -0.749995V0.749995ZM19.1543 22.4369C19.1543 10.4596 28.864 0.749995 40.8415 0.749995V-0.749995C28.0356 -0.749995 17.6543 9.63113 17.6543 22.4369H19.1543ZM22.5336 34.0676C20.3939 30.707 19.1543 26.7179 19.1543 22.4369H17.6543C17.6543 27.0116 18.9799 31.279 21.2683 34.8732L22.5336 34.0676ZM0.749995 71.1552C0.749995 55.5839 9.44958 42.0432 22.2571 35.1304L21.5447 33.8104C8.27144 40.9746 -0.749995 55.0108 -0.749995 71.1552H0.749995ZM41.6602 112.065C19.0661 112.065 0.749995 93.749 0.749995 71.1552H-0.749995C-0.749995 94.5774 18.2377 113.565 41.6602 113.565V112.065ZM82.5703 71.1552C82.5703 93.749 64.2542 112.065 41.6602 112.065V113.565C65.0826 113.565 84.0703 94.5774 84.0703 71.1552H82.5703ZM59.8432 34.4983C73.3149 41.1936 82.5703 55.0943 82.5703 71.1552H84.0703C84.0703 54.5031 74.4727 40.094 60.5108 33.155L59.8432 34.4983Z" fill="black" mask="url(#path-1-inside-1_985_11489)"/>
<ellipse cx="41.7233" cy="20.4895" rx="2.64709" ry="4.60083" fill="black"/>
<ellipse cx="35.9283" cy="20.1028" rx="2.64709" ry="4.60083" fill="black"/>
<path d="M31.1367 27.4851C32.2082 29.2078 35.5737 32.6532 40.4646 32.6532C45.3554 32.6532 48.2168 28.3675 49.0361 26.2246" stroke="black" stroke-width="0.749995"/>
</svg>
