<svg width="68" height="91" viewBox="0 0 68 91" fill="none" xmlns="http://www.w3.org/2000/svg">
<mask id="path-1-inside-1_985_11476" fill="white">
<path fill-rule="evenodd" clip-rule="evenodd" d="M49.1367 27.0778C50.7166 24.4045 51.6231 21.286 51.6231 17.9558C51.6231 8.03911 43.5839 0 33.667 0C23.7502 0 15.7109 8.03911 15.7109 17.9558C15.7109 21.5016 16.7387 24.8073 18.5126 27.5913C8.07374 33.2232 0.980469 44.2594 0.980469 56.9523C0.980469 75.3651 15.9072 90.2917 34.3203 90.2917C52.7334 90.2917 67.6602 75.3651 67.6602 56.9523C67.6602 43.8616 60.1153 32.533 49.1367 27.0778Z"/>
</mask>
<path fill-rule="evenodd" clip-rule="evenodd" d="M49.1367 27.0778C50.7166 24.4045 51.6231 21.286 51.6231 17.9558C51.6231 8.03911 43.5839 0 33.667 0C23.7502 0 15.7109 8.03911 15.7109 17.9558C15.7109 21.5016 16.7387 24.8073 18.5126 27.5913C8.07374 33.2232 0.980469 44.2594 0.980469 56.9523C0.980469 75.3651 15.9072 90.2917 34.3203 90.2917C52.7334 90.2917 67.6602 75.3651 67.6602 56.9523C67.6602 43.8616 60.1153 32.533 49.1367 27.0778Z" fill="white"/>
<path d="M49.1367 27.0778L48.491 26.6962L48.0807 27.3906L48.803 27.7495L49.1367 27.0778ZM18.5126 27.5913L18.8687 28.2514L19.5785 27.8685L19.1451 27.1883L18.5126 27.5913ZM50.8731 17.9558C50.8731 21.1481 50.0045 24.1353 48.491 26.6962L49.7824 27.4594C51.4286 24.6736 52.3731 21.4239 52.3731 17.9558H50.8731ZM33.667 0.749995C43.1697 0.749995 50.8731 8.45333 50.8731 17.9558H52.3731C52.3731 7.62489 43.9981 -0.749995 33.667 -0.749995V0.749995ZM16.4609 17.9558C16.4609 8.45333 24.1644 0.749995 33.667 0.749995V-0.749995C23.336 -0.749995 14.9609 7.62489 14.9609 17.9558H16.4609ZM19.1451 27.1883C17.4457 24.5211 16.4609 21.3546 16.4609 17.9558H14.9609C14.9609 21.6486 16.0317 25.0935 17.8801 27.9944L19.1451 27.1883ZM1.73046 56.9523C1.73046 44.546 8.66275 33.7576 18.8687 28.2514L18.1565 26.9313C7.48472 32.6888 0.230474 43.9728 0.230474 56.9523H1.73046ZM34.3203 89.5417C16.3214 89.5417 1.73046 74.9509 1.73046 56.9523H0.230474C0.230474 75.7794 15.493 91.0417 34.3203 91.0417V89.5417ZM66.9102 56.9523C66.9102 74.9509 52.3192 89.5417 34.3203 89.5417V91.0417C53.1476 91.0417 68.4101 75.7794 68.4101 56.9523H66.9102ZM48.803 27.7495C59.5364 33.0828 66.9102 44.1572 66.9102 56.9523H68.4101C68.4101 43.566 60.6941 31.9832 49.4705 26.4062L48.803 27.7495Z" fill="black" mask="url(#path-1-inside-1_985_11476)"/>
<ellipse cx="34.3704" cy="16.3951" rx="2.11842" ry="3.68196" fill="black"/>
<ellipse cx="29.7297" cy="16.0904" rx="2.11842" ry="3.68196" fill="black"/>
<path d="M25.8945 21.9951C26.752 23.3737 29.4454 26.131 33.3594 26.131C37.2735 26.131 39.5634 22.7012 40.2191 20.9863" stroke="black" stroke-width="0.749995"/>
</svg>
