<svg width="84" height="113" viewBox="0 0 84 113" fill="none" xmlns="http://www.w3.org/2000/svg">
<mask id="path-1-inside-1_985_11443" fill="white">
<path fill-rule="evenodd" clip-rule="evenodd" d="M60.677 33.8266C62.6479 30.4881 63.7788 26.5946 63.7788 22.4369C63.7788 10.0454 53.7333 0 41.3415 0C28.9498 0 18.9043 10.0454 18.9043 22.4369C18.9043 26.8648 20.1869 30.993 22.4009 34.4704C9.36051 41.5089 0.5 55.2973 0.5 71.1552C0.5 94.1632 19.1519 112.815 42.1602 112.815C65.1684 112.815 83.8203 94.1632 83.8203 71.1552C83.8203 54.7987 74.3938 40.6438 60.677 33.8266Z"/>
</mask>
<path fill-rule="evenodd" clip-rule="evenodd" d="M60.677 33.8266C62.6479 30.4881 63.7788 26.5946 63.7788 22.4369C63.7788 10.0454 53.7333 0 41.3415 0C28.9498 0 18.9043 10.0454 18.9043 22.4369C18.9043 26.8648 20.1869 30.993 22.4009 34.4704C9.36051 41.5089 0.5 55.2973 0.5 71.1552C0.5 94.1632 19.1519 112.815 42.1602 112.815C65.1684 112.815 83.8203 94.1632 83.8203 71.1552C83.8203 54.7987 74.3938 40.6438 60.677 33.8266Z" fill="white"/>
<path d="M60.677 33.8266L60.0311 33.4454L59.6214 34.1395L60.3432 34.4983L60.677 33.8266ZM22.4009 34.4704L22.7571 35.1304L23.4665 34.7476L23.0336 34.0676L22.4009 34.4704ZM63.0288 22.4369C63.0288 26.4568 61.9358 30.2191 60.0311 33.4454L61.3228 34.2079C63.3601 30.757 64.5288 26.7323 64.5288 22.4369H63.0288ZM41.3415 0.749995C53.3191 0.749995 63.0288 10.4596 63.0288 22.4369H64.5288C64.5288 9.63113 54.1475 -0.749995 41.3415 -0.749995V0.749995ZM19.6543 22.4369C19.6543 10.4596 29.364 0.749995 41.3415 0.749995V-0.749995C28.5356 -0.749995 18.1543 9.63113 18.1543 22.4369H19.6543ZM23.0336 34.0676C20.8939 30.707 19.6543 26.7179 19.6543 22.4369H18.1543C18.1543 27.0116 19.4799 31.279 21.7683 34.8732L23.0336 34.0676ZM1.24999 71.1552C1.24999 55.5838 9.94958 42.0432 22.7571 35.1304L22.0447 33.8104C8.77144 40.9746 -0.249995 55.0108 -0.249995 71.1552H1.24999ZM42.1602 112.065C19.5661 112.065 1.24999 93.749 1.24999 71.1552H-0.249995C-0.249995 94.5774 18.7377 113.565 42.1602 113.565V112.065ZM83.0703 71.1552C83.0703 93.749 64.7542 112.065 42.1602 112.065V113.565C65.5826 113.565 84.5703 94.5774 84.5703 71.1552H83.0703ZM60.3432 34.4983C73.8149 41.1936 83.0703 55.0942 83.0703 71.1552H84.5703C84.5703 54.5031 74.9727 40.094 61.0108 33.155L60.3432 34.4983Z" fill="black" mask="url(#path-1-inside-1_985_11443)"/>
<ellipse cx="2.64707" cy="4.60086" rx="2.64707" ry="4.60086" transform="matrix(0.730226 0.683206 -0.683217 0.730216 45.7871 15.3145)" fill="black"/>
<ellipse cx="2.64707" cy="4.60086" rx="2.64707" ry="4.60086" transform="matrix(-0.76132 -0.648377 0.648387 -0.761311 35.457 25.3223)" fill="black"/>
<path d="M31.6367 27.4851C32.7082 29.2078 36.0737 32.6532 40.9646 32.6532C45.8554 32.6532 48.7168 28.3675 49.5361 26.2246" stroke="black" stroke-width="0.749995"/>
</svg>
