<svg width="54" height="73" viewBox="0 0 54 73" fill="none" xmlns="http://www.w3.org/2000/svg">
<mask id="path-1-inside-1_985_11465" fill="white">
<path fill-rule="evenodd" clip-rule="evenodd" d="M38.8534 21.6403C40.1122 19.5053 40.8343 17.0162 40.8343 14.3584C40.8343 6.42846 34.4058 0 26.4758 0C18.5457 0 12.1172 6.42846 12.1172 14.3584C12.1172 17.1893 12.9365 19.8288 14.3508 22.0529C6.00809 26.5578 0.339844 35.3803 0.339844 45.5267C0.339844 60.2505 12.276 72.1865 27 72.1865C41.724 72.1865 53.6602 60.2505 53.6602 45.5267C53.6602 35.0609 47.6294 26.0036 38.8534 21.6403Z"/>
</mask>
<path fill-rule="evenodd" clip-rule="evenodd" d="M38.8534 21.6403C40.1122 19.5053 40.8343 17.0162 40.8343 14.3584C40.8343 6.42846 34.4058 0 26.4758 0C18.5457 0 12.1172 6.42846 12.1172 14.3584C12.1172 17.1893 12.9365 19.8288 14.3508 22.0529C6.00809 26.5578 0.339844 35.3803 0.339844 45.5267C0.339844 60.2505 12.276 72.1865 27 72.1865C41.724 72.1865 53.6602 60.2505 53.6602 45.5267C53.6602 35.0609 47.6294 26.0036 38.8534 21.6403Z" fill="white"/>
<path d="M38.8534 21.6403L38.2073 21.2594L37.7982 21.9533L38.5195 22.3119L38.8534 21.6403ZM14.3508 22.0529L14.7072 22.7128L15.4159 22.3301L14.9837 21.6504L14.3508 22.0529ZM40.0843 14.3584C40.0843 16.8786 39.3999 19.2367 38.2073 21.2594L39.4995 22.0212C40.8244 19.774 41.5843 17.1538 41.5843 14.3584H40.0843ZM26.4758 0.749995C33.9916 0.749995 40.0843 6.84268 40.0843 14.3584H41.5843C41.5843 6.01424 34.82 -0.749995 26.4758 -0.749995V0.749995ZM12.8672 14.3584C12.8672 6.84268 18.9599 0.749995 26.4758 0.749995V-0.749995C18.1315 -0.749995 11.3672 6.01424 11.3672 14.3584H12.8672ZM14.9837 21.6504C13.6435 19.5431 12.8672 17.0425 12.8672 14.3584H11.3672C11.3672 17.336 12.2294 20.1145 13.718 22.4553L14.9837 21.6504ZM1.08984 45.5267C1.08984 35.6668 6.59721 27.092 14.7072 22.7128L13.9945 21.3929C5.41896 26.0235 -0.410151 35.0938 -0.410151 45.5267H1.08984ZM27 71.4365C12.6902 71.4365 1.08984 59.8363 1.08984 45.5267H-0.410151C-0.410151 60.6647 11.8618 72.9365 27 72.9365V71.4365ZM52.9102 45.5267C52.9102 59.8363 41.3098 71.4365 27 71.4365V72.9365C42.1382 72.9365 54.4102 60.6647 54.4102 45.5267H52.9102ZM38.5195 22.3119C47.0504 26.5533 52.9102 35.3564 52.9102 45.5267H54.4102C54.4102 34.7653 48.2084 25.4539 39.1873 20.9687L38.5195 22.3119Z" fill="black" mask="url(#path-1-inside-1_985_11465)"/>
<ellipse cx="27.0416" cy="13.1144" rx="1.69399" ry="2.94427" fill="black"/>
<ellipse cx="23.3327" cy="12.8683" rx="1.69399" ry="2.94427" fill="black"/>
<path d="M20.2617 17.5859C20.9474 18.6884 23.1012 20.8932 26.231 20.8932C29.3609 20.8932 31.192 18.1506 31.7163 16.7793" stroke="black" stroke-width="0.749995"/>
</svg>
