<svg width="57" height="56" viewBox="0 0 57 56" fill="none" xmlns="http://www.w3.org/2000/svg">
<rect x="1" y="0.5" width="55" height="55" rx="27.5" fill="white"/>
<rect x="1" y="0.5" width="55" height="55" rx="27.5" stroke="#C4C4C4"/>
<path d="M18.7422 22.9985C18.8144 22.8132 18.9162 22.6425 19.0155 22.4715C20.3267 20.2123 22.187 18.5812 24.6098 17.5989C25.3804 17.2865 26.18 17.0738 27.0029 16.9475C27.6483 16.8486 28.2964 16.8012 28.949 16.8148C30.6988 16.8512 32.3573 17.2497 33.9057 18.0775C34.7222 18.5139 35.4684 19.0503 36.1495 19.6773C36.1668 19.6935 36.1883 19.7052 36.1992 19.7131C35.1256 20.7867 34.0621 21.8501 32.9938 22.9185C32.9659 22.9076 32.9385 22.8722 32.9062 22.8433C32.113 22.1313 31.1988 21.6516 30.1571 21.4219C29.5493 21.2877 28.9339 21.2441 28.3114 21.2829C25.6639 21.4471 23.3866 23.2726 22.5062 25.7461C22.4915 25.787 22.4742 25.8273 22.4585 25.8675C22.0543 25.5547 21.6499 25.2423 21.2458 24.9296C20.6191 24.4447 19.9936 23.9582 19.3662 23.4741C19.1595 23.3143 18.9591 23.1455 18.7426 22.9989L18.7422 22.9985Z" fill="#EA4335"/>
<path d="M22.4546 30.1406C22.5569 30.3985 22.6486 30.6609 22.773 30.9097C23.6865 32.7408 25.107 33.9704 27.0866 34.529C27.8441 34.7429 28.6184 34.779 29.4003 34.714C30.1052 34.6557 30.7867 34.5005 31.4412 34.2309C31.7795 34.0915 32.1024 33.9219 32.4103 33.7242C32.4403 33.705 32.4712 33.6874 32.5016 33.6689C32.5238 33.6855 32.5463 33.7016 32.5685 33.7186C33.0388 34.0836 33.5091 34.4486 33.9793 34.8136C34.6943 35.3681 35.4093 35.9225 36.1239 36.4774C35.8848 36.7168 35.6206 36.9262 35.3499 37.1281C34.1966 37.9874 32.9106 38.5577 31.5118 38.8806C30.8063 39.0434 30.0913 39.1358 29.368 39.1719C28.8831 39.196 28.3989 39.196 27.9155 39.1599C26.2062 39.0324 24.6041 38.5475 23.1237 37.6814C21.2423 36.5804 19.7995 35.0576 18.7902 33.125C18.7703 33.087 18.7395 33.0528 18.7447 33.0047C18.7707 32.987 18.7981 32.9705 18.8229 32.9509C19.718 32.2544 20.6123 31.5563 21.5081 30.8609C21.8212 30.6177 22.1392 30.3805 22.455 30.1406H22.4546Z" fill="#34A853"/>
<path d="M36.1236 36.4802C35.4086 35.9257 34.6936 35.3712 33.979 34.8164C33.5088 34.4514 33.0385 34.0864 32.5682 33.7213C32.5464 33.7044 32.5235 33.6883 32.5013 33.6717C32.837 33.4364 33.1543 33.1797 33.4351 32.8797C34.1004 32.1696 34.5282 31.3366 34.7286 30.3855C34.7335 30.3622 34.7387 30.3389 34.7286 30.3141C34.6839 30.2938 34.6354 30.3039 34.5887 30.3039C32.6863 30.3032 30.7834 30.3039 28.8809 30.3032C28.7069 30.3032 28.7275 30.325 28.7271 30.1528C28.7264 28.8063 28.7268 27.4598 28.7271 26.1133C28.7271 25.952 28.7136 25.9693 28.8768 25.9693C32.2889 25.9693 35.7007 25.9693 39.1128 25.9693C39.1286 25.9693 39.1448 25.9693 39.1606 25.9693C39.2538 25.9708 39.2549 25.9704 39.273 26.0629C39.335 26.3824 39.3726 26.7057 39.4053 27.0294C39.4636 27.6071 39.4707 28.1868 39.453 28.7668C39.4403 29.1995 39.4 29.6299 39.3425 30.0588C39.2564 30.7054 39.1204 31.3403 38.9294 31.9636C38.5689 33.1398 38.0295 34.2258 37.2867 35.2085C36.9626 35.637 36.6055 36.0362 36.2153 36.4057C36.1867 36.4328 36.154 36.4554 36.1232 36.4802H36.1236Z" fill="#4285F4"/>
<path d="M22.4547 30.1399C22.139 30.3798 21.8213 30.617 21.5078 30.8602C20.6116 31.5556 19.7177 32.2537 18.8227 32.9502C18.7978 32.9698 18.7708 32.986 18.7445 33.004C18.6358 32.8284 18.5569 32.6379 18.4738 32.4495C18.0693 31.5338 17.7972 30.5797 17.6521 29.5896C17.5701 29.0314 17.5314 28.4694 17.5378 27.9051C17.557 26.2252 17.9321 24.6291 18.6723 23.1194C18.693 23.0773 18.7073 23.0307 18.7422 22.9961C18.9587 23.1431 19.1591 23.3115 19.3658 23.4712C19.9932 23.9554 20.6188 24.4415 21.2454 24.9268C21.6495 25.2395 22.054 25.5519 22.4581 25.8647C22.3765 26.1462 22.292 26.4263 22.2348 26.7142C22.1036 27.3766 22.0679 28.042 22.1465 28.7141C22.1995 29.1644 22.2942 29.6046 22.4325 30.0362C22.4431 30.0693 22.4634 30.1016 22.4547 30.1392V30.1399Z" fill="#FBBC05"/>
</svg>
