<svg width="57" height="56" viewBox="0 0 57 56" fill="none" xmlns="http://www.w3.org/2000/svg">
<g clip-path="url(#clip0_669_8052)">
<path d="M56.5 0H0.5V56H56.5V0Z" fill="#FFE812"/>
<path d="M28.1747 35.9392C29.3505 35.9246 30.1911 35.8629 31.0256 35.7227C32.7563 35.4318 34.3851 34.8626 35.8877 33.9503C37.3804 33.0436 38.6281 31.8835 39.5148 30.3645C40.4572 28.7499 40.817 27.0151 40.5257 25.1622C40.3031 23.7462 39.7099 22.4876 38.8273 21.3651C37.6007 19.8051 36.0267 18.7078 34.2126 17.9387C32.7969 17.3384 31.3184 16.9918 29.7866 16.8666C28.7224 16.7794 27.6604 16.7963 26.6019 16.9271C25.5858 17.0523 24.5919 17.2786 23.625 17.6173C21.8011 18.256 20.1711 19.2089 18.8273 20.6125C17.4676 22.0324 16.6007 23.6931 16.4117 25.6746C16.2966 26.8783 16.4692 28.0425 16.906 29.1672C17.4668 30.6111 18.3803 31.8023 19.543 32.8113C20.2783 33.4492 21.0869 33.9781 21.9552 34.416C22.0379 34.4578 22.0503 34.4984 22.0244 34.5781C21.9785 34.7194 21.9394 34.863 21.8992 35.0062C21.5507 36.2426 21.2023 37.479 20.8542 38.7157C20.814 38.8589 20.7824 39.0097 20.9098 39.1206C21.0448 39.2382 21.1974 39.1841 21.3421 39.1232C21.365 39.1134 21.388 39.1037 21.409 39.0909C21.5838 38.9886 21.765 38.895 21.9323 38.7819C23.372 37.8083 24.8088 36.8301 26.2489 35.8577C26.3105 35.8163 26.4015 35.7949 26.4763 35.8005C27.1522 35.8517 27.8277 35.911 28.1751 35.94L28.1747 35.9392Z" fill="#FFE812"/>
<path d="M40.5257 25.1622C40.3031 23.7462 39.7099 22.4876 38.8273 21.3651C37.6007 19.8051 36.0267 18.7078 34.2126 17.9387C32.7969 17.3384 31.3184 16.9918 29.7866 16.8666C28.7224 16.7794 27.6604 16.7963 26.6019 16.9271C25.5858 17.0523 24.5919 17.2786 23.625 17.6173C21.8011 18.256 20.1711 19.2089 18.8273 20.6125C17.4676 22.0324 16.6007 23.6931 16.4117 25.6746C16.2966 26.8783 16.4692 28.0425 16.906 29.1672C17.4668 30.6111 18.3803 31.8023 19.543 32.8113C20.2783 33.4492 21.0869 33.9781 21.9552 34.416C22.0379 34.4578 22.0503 34.4984 22.0244 34.5781C21.9785 34.7194 21.9394 34.863 21.8992 35.0062C21.5507 36.2426 21.2023 37.479 20.8542 38.7157C20.814 38.8589 20.7824 39.0097 20.9098 39.1206C21.0448 39.2382 21.1974 39.1841 21.3421 39.1232C21.365 39.1134 21.388 39.1037 21.409 39.0909C21.5838 38.9886 21.765 38.895 21.9323 38.7819C23.372 37.8083 24.8088 36.8301 26.2489 35.8577C26.3102 35.8163 26.4015 35.7949 26.4763 35.8005C27.1526 35.8517 27.8277 35.911 28.1751 35.94C29.3509 35.9253 30.1915 35.8637 31.026 35.7235C32.7567 35.4325 34.3855 34.8634 35.888 33.951C37.3808 33.0443 38.6284 31.8843 39.5152 30.3652C40.4576 28.7507 40.8174 27.0158 40.526 25.163L40.5257 25.1622Z" fill="black"/>
</g>
<defs>
<clipPath id="clip0_669_8052">
<rect x="0.5" width="56" height="56" rx="28" fill="white"/>
</clipPath>
</defs>
</svg>
