<svg width="24" height="24" viewBox="0 0 24 24" fill="none" xmlns="http://www.w3.org/2000/svg">
<mask id="mask0_1944_10347" style="mask-type:alpha" maskUnits="userSpaceOnUse" x="0" y="0" width="24" height="24">
<rect width="24" height="24" fill="#D9D9D9"/>
</mask>
<g mask="url(#mask0_1944_10347)">
<path d="M16.775 19.575C16.5916 19.6917 16.4083 19.8 16.225 19.9C16.0416 20 15.85 20.0917 15.65 20.175C15.4 20.2917 15.1458 20.2917 14.8875 20.175C14.6291 20.0583 14.45 19.8667 14.35 19.6C14.25 19.35 14.2625 19.1042 14.3875 18.8625C14.5125 18.6208 14.7 18.4417 14.95 18.325C15.0166 18.2917 15.0791 18.2583 15.1375 18.225C15.1958 18.1917 15.2583 18.1583 15.325 18.125L12 14.8V17.575C12 18.025 11.7958 18.3375 11.3875 18.5125C10.9791 18.6875 10.6166 18.6167 10.3 18.3L6.99995 15H3.99995C3.71662 15 3.47912 14.9042 3.28745 14.7125C3.09578 14.5208 2.99995 14.2833 2.99995 14V10C2.99995 9.71667 3.09578 9.47917 3.28745 9.2875C3.47912 9.09583 3.71662 9 3.99995 9H6.19995L2.09995 4.9C1.91662 4.71667 1.82495 4.48333 1.82495 4.2C1.82495 3.91667 1.91662 3.68333 2.09995 3.5C2.28328 3.31667 2.51662 3.225 2.79995 3.225C3.08328 3.225 3.31662 3.31667 3.49995 3.5L20.5 20.5C20.6833 20.6833 20.775 20.9167 20.775 21.2C20.775 21.4833 20.6833 21.7167 20.5 21.9C20.3166 22.0833 20.0833 22.175 19.8 22.175C19.5166 22.175 19.2833 22.0833 19.1 21.9L16.775 19.575ZM19 11.975C19 10.5917 18.6333 9.32917 17.9 8.1875C17.1666 7.04583 16.1833 6.19167 14.95 5.625C14.7 5.50833 14.5166 5.32917 14.4 5.0875C14.2833 4.84583 14.2666 4.6 14.35 4.35C14.45 4.08333 14.6291 3.89167 14.8875 3.775C15.1458 3.65833 15.4083 3.65833 15.675 3.775C17.2916 4.49167 18.5833 5.58333 19.55 7.05C20.5166 8.51667 21 10.1583 21 11.975C21 12.525 20.95 13.0708 20.85 13.6125C20.75 14.1542 20.6083 14.675 20.425 15.175C20.2916 15.5417 20.0875 15.7708 19.8125 15.8625C19.5375 15.9542 19.2833 15.9583 19.05 15.875C18.8166 15.7917 18.6291 15.6417 18.4875 15.425C18.3458 15.2083 18.3416 14.9583 18.475 14.675C18.6583 14.2417 18.7916 13.8042 18.875 13.3625C18.9583 12.9208 19 12.4583 19 11.975ZM14.775 8.425C15.325 8.775 15.75 9.3 16.05 10C16.35 10.7 16.5 11.3667 16.5 12V12.25C16.5 12.3333 16.4916 12.4167 16.475 12.5C16.4416 12.7167 16.325 12.8583 16.125 12.925C15.925 12.9917 15.7416 12.9417 15.575 12.775L14.3 11.5C14.2 11.4 14.125 11.2875 14.075 11.1625C14.025 11.0375 14 10.9083 14 10.775V8.85C14 8.65 14.0875 8.50417 14.2625 8.4125C14.4375 8.32083 14.6083 8.325 14.775 8.425ZM9.74995 6.95C9.64995 6.85 9.59995 6.73333 9.59995 6.6C9.59995 6.46667 9.64995 6.35 9.74995 6.25L10.3 5.7C10.6166 5.38333 10.9791 5.3125 11.3875 5.4875C11.7958 5.6625 12 5.975 12 6.425V8C12 8.23333 11.9 8.39166 11.7 8.475C11.5 8.55833 11.3166 8.51666 11.15 8.35L9.74995 6.95ZM9.99995 15.15V12.8L8.19995 11H4.99995V13H7.84995L9.99995 15.15Z" fill="#1A1C1C"/>
</g>
</svg>
