<svg width="32" height="32" viewBox="0 0 32 32" fill="none" xmlns="http://www.w3.org/2000/svg">
<mask id="mask0_669_8537" style="mask-type:alpha" maskUnits="userSpaceOnUse" x="0" y="0" width="32" height="32">
<rect width="32" height="32" fill="#D9D9D9"/>
</mask>
<g mask="url(#mask0_669_8537)">
<path d="M10.166 8.53464L13.8993 3.7013C14.166 3.34575 14.4827 3.08464 14.8493 2.91797C15.216 2.7513 15.5993 2.66797 15.9993 2.66797C16.3993 2.66797 16.7827 2.7513 17.1493 2.91797C17.516 3.08464 17.8327 3.34575 18.0993 3.7013L21.8327 8.53464L27.4993 10.4346C28.0771 10.6124 28.5327 10.9402 28.866 11.418C29.1993 11.8957 29.366 12.4235 29.366 13.0013C29.366 13.268 29.3271 13.5346 29.2493 13.8013C29.1716 14.068 29.0438 14.3235 28.866 14.568L25.1993 19.768L25.3327 25.2346C25.3549 26.0124 25.0993 26.668 24.566 27.2013C24.0327 27.7346 23.4105 28.0013 22.6993 28.0013C22.6549 28.0013 22.4105 27.968 21.966 27.9013L15.9993 26.2346L10.0327 27.9013C9.92157 27.9457 9.79935 27.9735 9.66602 27.9846C9.53268 27.9957 9.41046 28.0013 9.29935 28.0013C8.58824 28.0013 7.96602 27.7346 7.43268 27.2013C6.89935 26.668 6.64379 26.0124 6.66602 25.2346L6.79935 19.7346L3.16602 14.568C2.98824 14.3235 2.86046 14.068 2.78268 13.8013C2.7049 13.5346 2.66602 13.268 2.66602 13.0013C2.66602 12.4457 2.82713 11.9291 3.14935 11.4513C3.47157 10.9735 3.92157 10.6346 4.49935 10.4346L10.166 8.53464ZM11.7993 10.8346L5.33268 12.968L9.46601 18.9346L9.33268 25.3013L15.9993 23.468L22.666 25.3346L22.5327 18.9346L26.666 13.0346L20.1993 10.8346L15.9993 5.33464L11.7993 10.8346Z" fill="#AAABAB"/>
</g>
</svg>
