<svg width="92" height="124" viewBox="0 0 92 124" fill="none" xmlns="http://www.w3.org/2000/svg">
<g id="user-character">
<g id="Union">
<mask id="path-1-inside-1_871_4425" fill="white">
<path fill-rule="evenodd" clip-rule="evenodd" d="M66.1394 37.181C68.306 33.5112 69.5491 29.2314 69.5491 24.6613C69.5491 11.0412 58.5079 0 44.8878 0C31.2678 0 20.2266 11.0412 20.2266 24.6613C20.2266 29.5291 21.6369 34.0675 24.0713 37.8901C9.73855 45.6264 0 60.7817 0 78.2115C0 103.5 20.5007 124.001 45.7896 124.001C71.0785 124.001 91.5792 103.5 91.5792 78.2115C91.5792 60.2324 81.2172 44.6735 66.1394 37.181Z"/>
</mask>
<path fill-rule="evenodd" clip-rule="evenodd" d="M66.1394 37.181C68.306 33.5112 69.5491 29.2314 69.5491 24.6613C69.5491 11.0412 58.5079 0 44.8878 0C31.2678 0 20.2266 11.0412 20.2266 24.6613C20.2266 29.5291 21.6369 34.0675 24.0713 37.8901C9.73855 45.6264 0 60.7817 0 78.2115C0 103.5 20.5007 124.001 45.7896 124.001C71.0785 124.001 91.5792 103.5 91.5792 78.2115C91.5792 60.2324 81.2172 44.6735 66.1394 37.181Z" fill="white"/>
<path d="M66.1394 37.181L65.2782 36.6726L64.7318 37.5982L65.6944 38.0765L66.1394 37.181ZM24.0713 37.8901L24.5463 38.7701L25.4921 38.2596L24.9147 37.353L24.0713 37.8901ZM68.5491 24.6613C68.5491 29.0477 67.3564 33.1526 65.2782 36.6726L67.0005 37.6894C69.2555 33.8699 70.5491 29.4151 70.5491 24.6613H68.5491ZM44.8878 1C57.9556 1 68.5491 11.5935 68.5491 24.6613H70.5491C70.5491 10.4889 59.0602 -1 44.8878 -1V1ZM21.2266 24.6613C21.2266 11.5935 31.8201 1 44.8878 1V-1C30.7155 -1 19.2266 10.4889 19.2266 24.6613H21.2266ZM24.9147 37.353C22.5796 33.686 21.2266 29.3332 21.2266 24.6613H19.2266C19.2266 29.7249 20.6942 34.4489 23.2278 38.4273L24.9147 37.353ZM1 78.2115C1 61.1637 10.524 46.3388 24.5463 38.7701L23.5963 37.0101C8.95311 44.914 -1 60.3996 -1 78.2115H1ZM45.7896 123.001C21.053 123.001 1 102.948 1 78.2115H-1C-1 104.053 19.9484 125.001 45.7896 125.001V123.001ZM90.5792 78.2115C90.5792 102.948 70.5262 123.001 45.7896 123.001V125.001C71.6308 125.001 92.5792 104.053 92.5792 78.2115H90.5792ZM65.6944 38.0765C80.4453 45.4066 90.5792 60.6265 90.5792 78.2115H92.5792C92.5792 59.8383 81.989 43.9404 66.5844 36.2854L65.6944 38.0765Z" fill="black" mask="url(#path-1-inside-1_871_4425)"/>
</g>
<ellipse id="Ellipse 220" cx="45.8587" cy="22.514" rx="2.90948" ry="5.05694" fill="black"/>
<ellipse id="Ellipse 222" cx="39.4856" cy="22.096" rx="2.90948" ry="5.05694" fill="black"/>
<path id="Vector 98" d="M34.2227 30.198C35.4003 32.0914 39.0995 35.8784 44.4751 35.8784C49.8507 35.8784 52.9957 31.1678 53.8963 28.8125" stroke="black"/>
</g>
</svg>
