<svg width="42" height="45" viewBox="0 0 42 45" fill="none" xmlns="http://www.w3.org/2000/svg">
<g filter="url(#filter0_d_1210_9932)">
<path fill-rule="evenodd" clip-rule="evenodd" d="M23.271 35.972C23.3488 35.8682 23.4644 35.7991 23.5922 35.7768C30.6411 34.5489 36 28.4003 36 21C36 12.7157 29.2843 6 21 6C12.7157 6 6 12.7157 6 21C6 28.4003 11.3589 34.5489 18.4078 35.7768C18.5356 35.7991 18.6512 35.8682 18.729 35.972L20.6 38.4667C20.8 38.7333 21.2 38.7333 21.4 38.4667L23.271 35.972Z" fill="white"/>
<rect x="9" y="9" width="24" height="24" rx="12" fill="#CABEFF"/>
<path d="M21 21C20.175 21 19.4688 20.7063 18.8813 20.1188C18.2938 19.5312 18 18.825 18 18C18 17.175 18.2938 16.4688 18.8813 15.8813C19.4688 15.2938 20.175 15 21 15C21.825 15 22.5312 15.2938 23.1187 15.8813C23.7063 16.4688 24 17.175 24 18C24 18.825 23.7063 19.5312 23.1187 20.1188C22.5312 20.7063 21.825 21 21 21ZM15 25.5V24.9C15 24.475 15.1094 24.0844 15.3281 23.7281C15.5469 23.3719 15.8375 23.1 16.2 22.9125C16.975 22.525 17.7625 22.2344 18.5625 22.0406C19.3625 21.8469 20.175 21.75 21 21.75C21.825 21.75 22.6375 21.8469 23.4375 22.0406C24.2375 22.2344 25.025 22.525 25.8 22.9125C26.1625 23.1 26.4531 23.3719 26.6719 23.7281C26.8906 24.0844 27 24.475 27 24.9V25.5C27 25.9125 26.8531 26.2656 26.5594 26.5594C26.2656 26.8531 25.9125 27 25.5 27H16.5C16.0875 27 15.7344 26.8531 15.4406 26.5594C15.1469 26.2656 15 25.9125 15 25.5ZM16.5 25.5H25.5V24.9C25.5 24.7625 25.4656 24.6375 25.3969 24.525C25.3281 24.4125 25.2375 24.325 25.125 24.2625C24.45 23.925 23.7688 23.6719 23.0813 23.5031C22.3938 23.3344 21.7 23.25 21 23.25C20.3 23.25 19.6062 23.3344 18.9187 23.5031C18.2312 23.6719 17.55 23.925 16.875 24.2625C16.7625 24.325 16.6719 24.4125 16.6031 24.525C16.5344 24.6375 16.5 24.7625 16.5 24.9V25.5ZM21 19.5C21.4125 19.5 21.7656 19.3531 22.0594 19.0594C22.3531 18.7656 22.5 18.4125 22.5 18C22.5 17.5875 22.3531 17.2344 22.0594 16.9406C21.7656 16.6469 21.4125 16.5 21 16.5C20.5875 16.5 20.2344 16.6469 19.9406 16.9406C19.6469 17.2344 19.5 17.5875 19.5 18C19.5 18.4125 19.6469 18.7656 19.9406 19.0594C20.2344 19.3531 20.5875 19.5 21 19.5Z" fill="#7A5CF5"/>
</g>
<defs>
<filter id="filter0_d_1210_9932" x="0" y="0" width="42" height="45" filterUnits="userSpaceOnUse" color-interpolation-filters="sRGB">
<feFlood flood-opacity="0" result="BackgroundImageFix"/>
<feColorMatrix in="SourceAlpha" type="matrix" values="0 0 0 0 0 0 0 0 0 0 0 0 0 0 0 0 0 0 127 0" result="hardAlpha"/>
<feOffset/>
<feGaussianBlur stdDeviation="3"/>
<feComposite in2="hardAlpha" operator="out"/>
<feColorMatrix type="matrix" values="0 0 0 0 0 0 0 0 0 0 0 0 0 0 0 0 0 0 0.1 0"/>
<feBlend mode="normal" in2="BackgroundImageFix" result="effect1_dropShadow_1210_9932"/>
<feBlend mode="normal" in="SourceGraphic" in2="effect1_dropShadow_1210_9932" result="shape"/>
</filter>
</defs>
</svg>
