<svg width="41" height="40" viewBox="0 0 41 40" fill="none" xmlns="http://www.w3.org/2000/svg">
<g id="add_2">
<mask id="mask0_2760_3758" style="mask-type:alpha" maskUnits="userSpaceOnUse" x="0" y="0" width="41" height="40">
<rect id="Bounding box" x="0.167969" width="40" height="40" fill="#D9D9D9"/>
</mask>
<g mask="url(#mask0_2760_3758)">
<path id="add_2_2" d="M20.163 35C19.7682 35 19.4389 34.8669 19.1751 34.6008C18.9112 34.3344 18.7792 34.0046 18.7792 33.6112V21.3888H6.55672C6.16339 21.3888 5.83352 21.2553 5.56714 20.9883C5.30102 20.7211 5.16797 20.39 5.16797 19.995C5.16797 19.6003 5.30102 19.271 5.56714 19.0071C5.83352 18.7432 6.16339 18.6112 6.55672 18.6112H18.7792V6.38875C18.7792 5.99542 18.9127 5.66556 19.1796 5.39917C19.4469 5.13306 19.778 5 20.173 5C20.5677 5 20.897 5.13306 21.1609 5.39917C21.4248 5.66556 21.5567 5.99542 21.5567 6.38875V18.6112H33.7792C34.1726 18.6112 34.5024 18.7447 34.7688 19.0117C35.0349 19.2789 35.168 19.61 35.168 20.005C35.168 20.3997 35.0349 20.729 34.7688 20.9929C34.5024 21.2568 34.1726 21.3888 33.7792 21.3888H21.5567V33.6112C21.5567 34.0046 21.4232 34.3344 21.1563 34.6008C20.8891 34.8669 20.558 35 20.163 35Z" fill="white"/>
</g>
</g>
</svg>
