<svg xmlns="http://www.w3.org/2000/svg" width="34" height="37" viewBox="0 0 34 37" fill="none">
  <g filter="url(#filter0_d_3701_21269)">
    <mask id="mask0_3701_21269" style="mask-type:alpha" maskUnits="userSpaceOnUse" x="1" y="3" width="32" height="32">
      <rect x="1" y="3" width="32" height="32" fill="#D9D9D9"/>
    </mask>
    <g mask="url(#mask0_3701_21269)">
      <path d="M14.7245 31.3178L14.7245 31.3178L14.7287 31.3216C15.0465 31.6104 15.41 31.8286 15.8143 31.973C16.2014 32.1112 16.5976 32.1833 16.9999 32.1833C17.4022 32.1833 17.7985 32.1112 18.1855 31.973C18.5899 31.8286 18.9534 31.6104 19.2711 31.3216L19.2711 31.3216L19.2753 31.3178C20.736 29.9694 22.0327 28.6506 23.1637 27.3612C24.2963 26.0702 25.2494 24.8103 26.0189 23.5814C26.7869 22.3549 27.3799 21.161 27.7904 20C28.203 18.8328 28.4166 17.698 28.4166 16.6C28.4166 13.0901 27.2794 10.2226 24.9584 8.08201C22.6806 5.98123 20.0175 4.91666 16.9999 4.91666C13.9824 4.91666 11.3193 5.98123 9.04145 8.08201C6.72043 10.2226 5.58325 13.0901 5.58325 16.6C5.58325 17.698 5.79684 18.8328 6.20947 20C6.61992 21.161 7.21296 22.3549 7.98092 23.5814C8.75043 24.8103 9.70358 26.0702 10.8361 27.3612C11.9671 28.6506 13.2638 29.9694 14.7245 31.3178Z" fill="#DE3730" stroke="white" stroke-width="1.5"/>
      <path d="M15.6667 17.6667V20.6667C15.6667 20.9556 15.5723 21.1944 15.3834 21.3833C15.1945 21.5722 14.9556 21.6667 14.6667 21.6667C14.3779 21.6667 14.139 21.5722 13.9501 21.3833C13.7612 21.1944 13.6667 20.9556 13.6667 20.6667V13.6667C13.6667 13.2889 13.7945 12.9722 14.0501 12.7167C14.3056 12.4611 14.6223 12.3333 15.0001 12.3333H20.3334C20.6001 12.3333 20.8001 12.4556 20.9334 12.7C21.0667 12.9444 21.0445 13.1778 20.8667 13.4L19.6667 15L20.8667 16.6C21.0445 16.8222 21.0667 17.0556 20.9334 17.3C20.8001 17.5444 20.6001 17.6667 20.3334 17.6667H15.6667Z" fill="white"/>
    </g>
  </g>
  <defs>
    <filter id="filter0_d_3701_21269" x="-3" y="-1" width="40" height="40" filterUnits="userSpaceOnUse" color-interpolation-filters="sRGB">
      <feFlood flood-opacity="0" result="BackgroundImageFix"/>
      <feColorMatrix in="SourceAlpha" type="matrix" values="0 0 0 0 0 0 0 0 0 0 0 0 0 0 0 0 0 0 127 0" result="hardAlpha"/>
      <feOffset/>
      <feGaussianBlur stdDeviation="2"/>
      <feComposite in2="hardAlpha" operator="out"/>
      <feColorMatrix type="matrix" values="0 0 0 0 0 0 0 0 0 0 0 0 0 0 0 0 0 0 0.2 0"/>
      <feBlend mode="normal" in2="BackgroundImageFix" result="effect1_dropShadow_3701_21269"/>
      <feBlend mode="normal" in="SourceGraphic" in2="effect1_dropShadow_3701_21269" result="shape"/>
    </filter>
  </defs>
</svg>