<svg width="24" height="24" viewBox="0 0 24 24" fill="none" xmlns="http://www.w3.org/2000/svg">
<mask id="mask0_2606_5742" style="mask-type:alpha" maskUnits="userSpaceOnUse" x="0" y="0" width="24" height="24">
<rect width="24" height="24" fill="#D9D9D9"/>
</mask>
<g mask="url(#mask0_2606_5742)">
<path d="M4 19H20V17H4V19ZM10 10C10 9.45 10.1958 8.97917 10.5875 8.5875C10.9792 8.19583 11.45 8 12 8C12.2833 8 12.5208 7.90417 12.7125 7.7125C12.9042 7.52083 13 7.28333 13 7C13 6.71667 12.9042 6.47917 12.7125 6.2875C12.5208 6.09583 12.2833 6 12 6C10.9 6 9.95833 6.39167 9.175 7.175C8.39167 7.95833 8 8.9 8 10V12C8 12.2833 8.09583 12.5208 8.2875 12.7125C8.47917 12.9042 8.71667 13 9 13C9.28333 13 9.52083 12.9042 9.7125 12.7125C9.90417 12.5208 10 12.2833 10 12V10ZM7 15H17V10C17 8.61667 16.5125 7.4375 15.5375 6.4625C14.5625 5.4875 13.3833 5 12 5C10.6167 5 9.4375 5.4875 8.4625 6.4625C7.4875 7.4375 7 8.61667 7 10V15ZM4 21C3.45 21 2.97917 20.8042 2.5875 20.4125C2.19583 20.0208 2 19.55 2 19V17C2 16.45 2.19583 15.9792 2.5875 15.5875C2.97917 15.1958 3.45 15 4 15H5V10C5 8.05 5.67917 6.39583 7.0375 5.0375C8.39583 3.67917 10.05 3 12 3C13.95 3 15.6042 3.67917 16.9625 5.0375C18.3208 6.39583 19 8.05 19 10V15H20C20.55 15 21.0208 15.1958 21.4125 15.5875C21.8042 15.9792 22 16.45 22 17V19C22 19.55 21.8042 20.0208 21.4125 20.4125C21.0208 20.8042 20.55 21 20 21H4Z" fill="#1A1C1C"/>
</g>
</svg>
