<svg width="16" height="24" viewBox="0 0 16 24" fill="none" xmlns="http://www.w3.org/2000/svg">
<g id="Vector">
<path d="M8 16.7288C6.528 16.7288 5.1488 16.3288 3.9632 15.6344V23.2712L8.0128 19.7688V16.7288C8.0128 16.7288 8.0048 16.7288 8 16.7288Z" fill="#DE3730"/>
<path d="M8 2.13522C8 2.13522 8.008 2.13522 8.0128 2.13522V0.728821C8.0128 0.728821 8.0048 0.728821 8 0.728821C3.5824 0.728821 0 4.31122 0 8.72882C0 11.6744 1.5936 14.2472 3.9632 15.6344C5.1488 16.3288 6.5264 16.7288 8 16.7288C8.0048 16.7288 8.008 16.7288 8.0128 16.7288V15.3224C8.0128 15.3224 8.0048 15.3224 8 15.3224C6.48 15.3224 5.08 14.804 3.9632 13.9368C2.408 12.7288 1.4048 10.844 1.4048 8.72882C1.4048 5.09362 4.3632 2.13522 7.9984 2.13522H8Z" fill="#FFBF00"/>
<path d="M5.0128 7.55922L6.8208 7.52242C6.9552 7.51922 7.072 7.43442 7.1168 7.30802L7.7104 5.59922C7.76 5.45522 7.8864 5.38482 8.0128 5.38482V3.09682C8.0128 3.09682 8.0048 3.09682 8 3.09682C4.888 3.09682 2.3664 5.61842 2.3664 8.73042C2.3664 10.2584 2.976 11.644 3.9648 12.6584C4.9888 13.7096 6.4176 14.364 8.0016 14.364C8.0064 14.364 8.0096 14.364 8.0144 14.364V10.572C7.9504 10.572 7.8864 10.5912 7.832 10.6296L6.3472 11.6632C6.0976 11.836 5.7696 11.5976 5.8576 11.308L6.3808 9.57682C6.4192 9.44882 6.3744 9.30962 6.2672 9.22962L4.8272 8.13682C4.5856 7.95282 4.7104 7.56882 5.0144 7.56242L5.0128 7.55922Z" fill="#FFBF00"/>
<path d="M8 3.09522C8 3.09522 8.008 3.09522 8.0128 3.09522V2.13522C8.0128 2.13522 8.0048 2.13522 8 2.13522C4.3648 2.13522 1.4064 5.09362 1.4064 8.72882C1.4064 10.8456 2.4096 12.7304 3.9648 13.9368C5.0816 14.804 6.4816 15.3224 8.0016 15.3224C8.0064 15.3224 8.0096 15.3224 8.0144 15.3224V14.3624C8.0144 14.3624 8.0064 14.3624 8.0016 14.3624C6.4192 14.3624 4.9888 13.708 3.9648 12.6568C2.976 11.6424 2.3664 10.2568 2.3664 8.72882C2.3664 5.61682 4.888 3.09522 8 3.09522Z" fill="white"/>
<path d="M7.7104 5.59922L7.1168 7.30802C7.0736 7.43442 6.9552 7.52082 6.8208 7.52242L5.0128 7.55922C4.7088 7.56562 4.584 7.95122 4.8256 8.13362L5.5872 8.71122H8.0112V5.38322C7.8848 5.38322 7.7584 5.45522 7.7088 5.59762L7.7104 5.59922Z" fill="white"/>
<path d="M5.5888 8.71122L6.2672 9.22642C6.3744 9.30802 6.4192 9.44562 6.3808 9.57362L5.8576 11.3048C5.7696 11.596 6.0976 11.8328 6.3472 11.66L7.832 10.6264C7.8864 10.588 7.9504 10.5688 8.0144 10.5688V8.71122H5.5888Z" fill="white"/>
<path d="M12.1024 23.2712V15.5976C10.9056 16.3128 9.5088 16.7272 8.0128 16.7288V19.7688L8.032 19.7512L12.1008 23.2712H12.1024Z" fill="#BA1A1A"/>
<path d="M8.0128 3.09522V5.38322C8.1392 5.38322 8.2656 5.45522 8.3152 5.59762L8.9088 7.30642C8.952 7.43282 9.0704 7.51922 9.2048 7.52082L11.0128 7.55762C11.3168 7.56402 11.4416 7.94962 11.2 8.13202L9.76 9.22482C9.6528 9.30642 9.608 9.44402 9.6464 9.57202L10.1696 11.3032C10.2576 11.5944 9.9296 11.8312 9.68 11.6584L8.1952 10.6248C8.1408 10.5864 8.0768 10.5672 8.0128 10.5672V14.3592C9.6256 14.356 11.0768 13.6744 12.1024 12.5848C13.0512 11.5768 13.6336 10.22 13.6336 8.72562C13.6336 5.61842 11.1184 3.10002 8.0128 3.09202V3.09522Z" fill="#F9B303"/>
<path d="M8.0128 0.728821V2.13522C11.6432 2.14162 14.5936 5.09682 14.5936 8.72882C14.5936 10.8152 13.6192 12.676 12.1024 13.8856C10.9792 14.7816 9.5584 15.3192 8.0128 15.3224V16.7288C9.5072 16.7272 10.9056 16.3128 12.1024 15.5976C14.4368 14.2008 16 11.6472 16 8.72882C16 4.31442 12.4256 0.736821 8.0128 0.728821Z" fill="#F9B303"/>
<path d="M8.0128 2.13522V3.09522C11.1184 3.10162 13.6336 5.62162 13.6336 8.72882C13.6336 10.2232 13.0512 11.58 12.1024 12.588C11.0784 13.676 9.6256 14.3592 8.0128 14.3624V15.3224C9.5568 15.3192 10.9776 14.7816 12.1024 13.8856C13.6192 12.676 14.5936 10.8152 14.5936 8.72882C14.5936 5.09682 11.6432 2.14322 8.0128 2.13522Z" fill="white"/>
<path d="M10.4368 8.71122L11.1984 8.13362C11.44 7.94962 11.3152 7.56562 11.0112 7.55922L9.2032 7.52242C9.0688 7.51922 8.952 7.43442 8.9072 7.30802L8.3136 5.59922C8.264 5.45522 8.1376 5.38482 8.0112 5.38482V8.71282H10.4352L10.4368 8.71122Z" fill="white"/>
<path d="M8.0128 10.5704C8.0768 10.5704 8.1408 10.5896 8.1952 10.628L9.68 11.6616C9.9296 11.8344 10.2576 11.596 10.1696 11.3064L9.6464 9.57522C9.608 9.44722 9.6528 9.30802 9.76 9.22802L10.4384 8.71282H8.0144V10.5704H8.0128Z" fill="white"/>
</g>
</svg>
