<svg width="16" height="24" viewBox="0 0 16 24" fill="none" xmlns="http://www.w3.org/2000/svg">
<g clip-path="url(#clip0_3701_21618)">
<path d="M2.4 18.56H2.08C1.7264 18.56 1.44 18.2736 1.44 17.92V6.08C1.44 5.7264 1.7264 5.44 2.08 5.44H8V4H0.64C0.2864 4 0 4.2864 0 4.64V19.36C0 19.7136 0.2864 20 0.64 20H8V18.56H2.4Z" fill="#AAABAB"/>
<path d="M13.6 5.44H13.92C14.2736 5.44 14.56 5.7264 14.56 6.08V17.92C14.56 18.2736 14.2736 18.56 13.92 18.56H8V20H15.36C15.7136 20 16 19.7136 16 19.36V4.64C16 4.2864 15.7136 4 15.36 4H8V5.44H13.6Z" fill="#AAABAB"/>
<path d="M3.0399 6.40002C2.6863 6.40002 2.3999 6.68642 2.3999 7.04002V16.96C2.3999 17.3136 2.6863 17.6 3.0399 17.6H7.9999V6.40002H3.0399Z" fill="#AAABAB"/>
<path d="M2.07994 5.44C1.72634 5.44 1.43994 5.7264 1.43994 6.08V17.92C1.43994 18.2736 1.72634 18.56 2.07994 18.56H7.99994V17.6H3.03994C2.68634 17.6 2.39994 17.3136 2.39994 16.96V7.04C2.39994 6.6864 2.68634 6.4 3.03994 6.4H7.99994V5.44H2.07994Z" fill="white"/>
<path d="M13.6 16.96V6.40002H8V17.6H12.96C13.3136 17.6 13.6 17.3136 13.6 16.96Z" fill="#AAABAB"/>
<path d="M13.6 6.4V16.96C13.6 17.3136 13.3136 17.6 12.96 17.6H8V18.56H13.92C14.2736 18.56 14.56 18.2736 14.56 17.92V6.08C14.56 5.7264 14.2736 5.44 13.92 5.44H8V6.4H13.6Z" fill="white"/>
<path d="M4.58398 14.5V13.1055L8.16992 7.51562H10.3848V13.082H11.4629V14.5H10.3848V16H8.70898V14.5H4.58398ZM6.36523 13.082H8.73242V9.44922H8.65039L6.36523 13.0117V13.082Z" fill="white"/>
</g>
<defs>
<clipPath id="clip0_3701_21618">
<rect width="16" height="16" fill="white" transform="translate(0 4)"/>
</clipPath>
</defs>
</svg>
