<svg width="16" height="24" viewBox="0 0 16 24" fill="none" xmlns="http://www.w3.org/2000/svg">
<g clip-path="url(#clip0_4403_2813)">
<path d="M2.4 18.56H2.08C1.7264 18.56 1.44 18.2736 1.44 17.92V6.08C1.44 5.7264 1.7264 5.44 2.08 5.44H8V4H0.64C0.2864 4 0 4.2864 0 4.64V19.36C0 19.7136 0.2864 20 0.64 20H8V18.56H2.4Z" fill="#AAABAB"/>
<path d="M13.6 5.44H13.92C14.2736 5.44 14.56 5.7264 14.56 6.08V17.92C14.56 18.2736 14.2736 18.56 13.92 18.56H8V20H15.36C15.7136 20 16 19.7136 16 19.36V4.64C16 4.2864 15.7136 4 15.36 4H8V5.44H13.6Z" fill="#AAABAB"/>
<path d="M3.0399 6.40002C2.6863 6.40002 2.3999 6.68642 2.3999 7.04002V16.96C2.3999 17.3136 2.6863 17.6 3.0399 17.6H7.9999V6.40002H3.0399Z" fill="#AAABAB"/>
<path d="M2.07994 5.43994C1.72634 5.43994 1.43994 5.72634 1.43994 6.07994V17.9199C1.43994 18.2735 1.72634 18.5599 2.07994 18.5599H7.99994V17.5999H3.03994C2.68634 17.5999 2.39994 17.3135 2.39994 16.9599V7.03994C2.39994 6.68634 2.68634 6.39994 3.03994 6.39994H7.99994V5.43994H2.07994Z" fill="white"/>
<path d="M13.6 16.96V6.40002H8V17.6H12.96C13.3136 17.6 13.6 17.3136 13.6 16.96Z" fill="#AAABAB"/>
<path d="M13.6 6.39994V16.9599C13.6 17.3135 13.3136 17.5999 12.96 17.5999H8V18.5599H13.92C14.2736 18.5599 14.56 18.2735 14.56 17.9199V6.07994C14.56 5.72634 14.2736 5.43994 13.92 5.43994H8V6.39994H13.6Z" fill="white"/>
<path d="M8.09375 16.1172C6.33594 16.1055 4.67188 15.0625 4.67188 11.957C4.67188 9.09766 6.04297 7.39844 8.16406 7.39844C9.875 7.39844 11.0352 8.47656 11.2109 9.87109H9.47656C9.33594 9.27344 8.84375 8.91016 8.16406 8.91016C7.01562 8.91016 6.40625 9.95312 6.39453 11.6172H6.47656C6.86328 10.8672 7.70703 10.4219 8.64453 10.4219C10.168 10.4219 11.3047 11.5703 11.3047 13.1641C11.3047 14.8867 10.0039 16.1289 8.09375 16.1172ZM8.08203 14.7227C8.94922 14.7227 9.59375 14.0664 9.59375 13.2109C9.59375 12.3672 8.97266 11.6992 8.10547 11.6992C7.23828 11.6992 6.58203 12.3789 6.57031 13.2109C6.58203 14.043 7.21484 14.7227 8.08203 14.7227Z" fill="white"/>
</g>
<defs>
<clipPath id="clip0_4403_2813">
<rect width="16" height="16" fill="white" transform="translate(0 4)"/>
</clipPath>
</defs>
</svg>
