<svg xmlns="http://www.w3.org/2000/svg" width="17" height="16" viewBox="0 0 17 16" fill="none">
  <mask id="mask0_2826_7109" style="mask-type:alpha" maskUnits="userSpaceOnUse" x="0" y="0" width="17" height="16">
    <rect x="0.5" width="16" height="16" fill="#D9D9D9"/>
  </mask>
  <g mask="url(#mask0_2826_7109)">
    <path d="M8.49611 11.2016C8.66511 11.2016 8.80794 11.1444 8.92461 11.0301C9.04128 10.9157 9.09961 10.7741 9.09961 10.6051C9.09961 10.4361 9.04244 10.2932 8.92811 10.1766C8.81378 10.0599 8.67211 10.0016 8.50311 10.0016C8.33411 10.0016 8.19128 10.0587 8.07461 10.1731C7.95794 10.2874 7.89961 10.4291 7.89961 10.5981C7.89961 10.7671 7.95678 10.9099 8.07111 11.0266C8.18544 11.1432 8.32711 11.2016 8.49611 11.2016ZM8.49611 8.80156C8.66511 8.80156 8.80794 8.74406 8.92461 8.62906C9.04128 8.51406 9.09961 8.37156 9.09961 8.20156V5.40156C9.09961 5.23156 9.04244 5.08906 8.92811 4.97406C8.81378 4.85906 8.67211 4.80156 8.50311 4.80156C8.33411 4.80156 8.19128 4.85906 8.07461 4.97406C7.95794 5.08906 7.89961 5.23156 7.89961 5.40156V8.20156C7.89961 8.37156 7.95678 8.51406 8.07111 8.62906C8.18544 8.74406 8.32711 8.80156 8.49611 8.80156ZM8.50428 14.4016C7.62339 14.4016 6.79405 14.2349 6.01628 13.9016C5.2385 13.5682 4.55794 13.1099 3.97461 12.5266C3.39128 11.9432 2.93294 11.2629 2.59961 10.4856C2.26628 9.70823 2.09961 8.87767 2.09961 7.9939C2.09961 7.11012 2.26628 6.28212 2.59961 5.5099C2.93294 4.73767 3.39128 4.0599 3.97461 3.47656C4.55794 2.89323 5.23828 2.4349 6.01561 2.10156C6.79294 1.76823 7.6235 1.60156 8.50728 1.60156C9.39105 1.60156 10.2191 1.76823 10.9913 2.10156C11.7635 2.4349 12.4413 2.89323 13.0246 3.47656C13.6079 4.0599 14.0663 4.7389 14.3996 5.51356C14.7329 6.28834 14.8996 7.11612 14.8996 7.9969C14.8996 8.87779 14.7329 9.70712 14.3996 10.4849C14.0663 11.2627 13.6079 11.9432 13.0246 12.5266C12.4413 13.1099 11.7623 13.5682 10.9876 13.9016C10.2128 14.2349 9.38505 14.4016 8.50428 14.4016Z" fill="#1A1C1C"/>
  </g>
</svg>