<svg width="334" height="44" viewBox="0 0 334 44" fill="none" xmlns="http://www.w3.org/2000/svg">
<rect width="334" height="44" rx="4" fill="black"/>
<path d="M103.785 10.1172C103.785 9.90821 103.774 9.70202 103.754 9.5C101.117 9.66301 99.0234 12.122 99.0234 15.1328C99.0234 15.3418 99.0346 15.548 99.0544 15.75C101.691 15.587 103.785 13.128 103.785 10.1172Z" fill="white"/>
<path d="M106.23 23.0174C106.23 20.9827 107.326 19.2164 108.934 18.3273C108.325 17.454 107.748 17.0599 107.748 17.0599C107.13 16.5073 106.328 16.0844 105.514 15.8814C105.385 15.8487 105.254 15.8225 105.125 15.8029C105.061 15.7894 104.994 15.7819 104.929 15.7754C104.875 15.7701 104.821 15.7649 104.767 15.761C104.746 15.7584 104.723 15.757 104.702 15.7557C104.661 15.7527 104.619 15.7518 104.578 15.7518C104.514 15.7495 104.454 15.7518 104.393 15.7518C103.282 15.7872 101.897 16.3463 101.225 16.5859C100.704 16.7718 100.366 16.8071 100.117 16.8137C99.9835 16.8167 99.8495 16.8172 99.7162 16.8137C99.4669 16.8071 99.1288 16.7718 98.6078 16.5859C97.9365 16.3463 96.5513 15.7872 95.4404 15.7518C95.3782 15.7518 95.3173 15.7477 95.2551 15.7518C95.2138 15.7518 95.1723 15.7527 95.1311 15.7557C95.1098 15.757 95.0872 15.7584 95.066 15.761C95.0134 15.7636 94.9595 15.7688 94.9056 15.7754C94.8518 15.7806 94.7078 15.8029 94.7078 15.8029C94.7078 15.8029 94.4485 15.8487 94.3195 15.8814C93.5029 16.0818 92.6964 16.5047 92.0777 17.0599C92.0777 17.0599 90 18.4766 89.5729 21.9045C89.365 23.5765 89.5729 26.3563 90.5748 28.5822C90.5748 28.5822 91.9525 32.1174 94.0816 33.8196C94.0816 33.8196 94.7228 34.3119 95.5819 34.4586C95.6433 34.469 95.7047 34.4782 95.7686 34.4847C95.8879 34.4966 96.0069 34.5023 96.1267 34.4991C96.1631 34.4991 96.1994 34.4968 96.2357 34.4952C96.6202 34.4716 97.1199 34.3695 97.542 34.1103C97.7712 33.9702 98.0054 33.8418 98.2558 33.7489C98.3623 33.7096 98.4825 33.669 98.6115 33.631C98.9722 33.5394 99.383 33.4621 99.7625 33.4504H99.7638C99.7863 33.449 99.8076 33.449 99.8301 33.449H99.9829C100.012 33.449 100.041 33.4504 100.071 33.4504C100.45 33.4621 100.861 33.5394 101.222 33.631C101.351 33.669 101.471 33.7096 101.577 33.7489C101.828 33.8418 102.062 33.9702 102.29 34.1103C102.713 34.3695 103.213 34.4716 103.597 34.4952C103.634 34.4968 103.67 34.4991 103.706 34.4991C103.826 34.5023 103.945 34.4966 104.065 34.4847C104.127 34.4782 104.19 34.469 104.251 34.4586C105.107 34.3093 105.744 33.8196 105.744 33.8196C107.873 32.1174 109.251 28.5822 109.251 28.5822C109.34 28.3832 109.424 28.1802 109.5 27.9746C107.588 27.2152 106.23 25.2826 106.23 23.0174Z" fill="white"/>
<path d="M118.415 28.5L123.351 15.1128H124.631V17.2559H124.111L120.168 28.5H118.415ZM120.651 24.6685L121.18 23.249H127.219L127.739 24.6685H120.651ZM128.193 28.5L124.25 17.2559V15.1128H125.002L129.947 28.5H128.193ZM132.025 31.8306V18.5269H133.639V20.1318H133.769C133.973 19.7607 134.23 19.4453 134.539 19.1855C134.848 18.9196 135.201 18.7155 135.597 18.5732C135.993 18.4248 136.422 18.3506 136.886 18.3506C137.734 18.3506 138.47 18.5671 139.094 19C139.719 19.4268 140.204 20.0267 140.551 20.7998C140.897 21.5667 141.07 22.4697 141.07 23.5088V23.5273C141.07 24.5664 140.897 25.4725 140.551 26.2456C140.204 27.0187 139.719 27.6187 139.094 28.0454C138.47 28.466 137.734 28.6763 136.886 28.6763C136.429 28.6763 135.999 28.6051 135.597 28.4629C135.195 28.3145 134.836 28.1104 134.521 27.8506C134.211 27.5908 133.961 27.2816 133.769 26.9229H133.639V31.8306H132.025ZM136.515 27.2476C137.127 27.2476 137.647 27.0991 138.074 26.8022C138.507 26.4992 138.838 26.0693 139.066 25.5127C139.301 24.9561 139.419 24.2943 139.419 23.5273V23.5088C139.419 22.7295 139.301 22.0646 139.066 21.5142C138.838 20.9575 138.507 20.5308 138.074 20.2339C137.647 19.9308 137.127 19.7793 136.515 19.7793C135.915 19.7793 135.396 19.9308 134.957 20.2339C134.524 20.5369 134.19 20.9668 133.955 21.5234C133.72 22.0801 133.602 22.7419 133.602 23.5088V23.5273C133.602 24.2881 133.72 24.9468 133.955 25.5034C134.19 26.0601 134.524 26.4899 134.957 26.793C135.396 27.096 135.915 27.2476 136.515 27.2476ZM143.529 31.8306V18.5269H145.143V20.1318H145.273C145.477 19.7607 145.734 19.4453 146.043 19.1855C146.352 18.9196 146.705 18.7155 147.101 18.5732C147.496 18.4248 147.926 18.3506 148.39 18.3506C149.237 18.3506 149.973 18.5671 150.598 19C151.223 19.4268 151.708 20.0267 152.055 20.7998C152.401 21.5667 152.574 22.4697 152.574 23.5088V23.5273C152.574 24.5664 152.401 25.4725 152.055 26.2456C151.708 27.0187 151.223 27.6187 150.598 28.0454C149.973 28.466 149.237 28.6763 148.39 28.6763C147.932 28.6763 147.503 28.6051 147.101 28.4629C146.699 28.3145 146.34 28.1104 146.024 27.8506C145.715 27.5908 145.465 27.2816 145.273 26.9229H145.143V31.8306H143.529ZM148.019 27.2476C148.631 27.2476 149.151 27.0991 149.578 26.8022C150.011 26.4992 150.341 26.0693 150.57 25.5127C150.805 24.9561 150.923 24.2943 150.923 23.5273V23.5088C150.923 22.7295 150.805 22.0646 150.57 21.5142C150.341 20.9575 150.011 20.5308 149.578 20.2339C149.151 19.9308 148.631 19.7793 148.019 19.7793C147.419 19.7793 146.9 19.9308 146.46 20.2339C146.028 20.5369 145.694 20.9668 145.458 21.5234C145.223 22.0801 145.106 22.7419 145.106 23.5088V23.5273C145.106 24.2881 145.223 24.9468 145.458 25.5034C145.694 26.0601 146.028 26.4899 146.46 26.793C146.9 27.096 147.419 27.2476 148.019 27.2476ZM155.116 28.5V14.584H156.73V28.5H155.116ZM163.828 28.6763C162.881 28.6763 162.065 28.466 161.378 28.0454C160.698 27.6248 160.175 27.0311 159.811 26.2642C159.446 25.4972 159.263 24.5942 159.263 23.5552V23.5459C159.263 22.513 159.446 21.61 159.811 20.8369C160.182 20.0576 160.701 19.4484 161.369 19.0093C162.043 18.5701 162.829 18.3506 163.726 18.3506C164.635 18.3506 165.414 18.5609 166.063 18.9814C166.713 19.402 167.211 19.9865 167.557 20.7349C167.91 21.4832 168.086 22.3553 168.086 23.3511V23.9727H160.098V22.6924H167.26L166.462 23.8706V23.2305C166.462 22.445 166.345 21.8018 166.11 21.3008C165.881 20.7936 165.559 20.4163 165.145 20.1689C164.731 19.9154 164.254 19.7886 163.716 19.7886C163.184 19.7886 162.705 19.9215 162.278 20.1875C161.858 20.4473 161.524 20.8338 161.276 21.3472C161.035 21.8543 160.915 22.4821 160.915 23.2305V23.8706C160.915 24.5757 161.032 25.1818 161.267 25.689C161.508 26.1899 161.852 26.5734 162.297 26.8394C162.742 27.1053 163.265 27.2383 163.865 27.2383C164.316 27.2383 164.706 27.1764 165.034 27.0527C165.368 26.929 165.643 26.7713 165.859 26.5796C166.076 26.3817 166.23 26.1807 166.323 25.9766L166.351 25.8931H167.965L167.947 25.9673C167.86 26.3136 167.706 26.6476 167.483 26.9692C167.266 27.2909 166.985 27.5815 166.639 27.8413C166.292 28.0949 165.884 28.299 165.414 28.4536C164.944 28.6021 164.415 28.6763 163.828 28.6763ZM170.01 26.543H185.59V27.854H170.01V26.543ZM176.983 22.876H178.541V27.094H176.983V22.876ZM171.91 14.06H183.652V19.266H173.506V22.705H171.948V18.012H182.094V15.352H171.91V14.06ZM171.948 22.04H184.051V23.332H171.948V22.04ZM192.702 26.543H208.282V27.854H192.702V26.543ZM199.675 22.876H201.233V27.094H199.675V22.876ZM194.602 14.06H206.344V19.266H196.198V22.705H194.64V18.012H204.786V15.352H194.602V14.06ZM194.64 22.04H206.743V23.332H194.64V22.04ZM211.872 14.611H222.93V15.903H211.872V14.611ZM210.181 26.163H225.704V27.474H210.181V26.163ZM222.075 14.611H223.633V16.34C223.633 17.062 223.62 17.8347 223.595 18.658C223.582 19.4687 223.532 20.368 223.443 21.356C223.354 22.344 223.202 23.4587 222.987 24.7L221.391 24.529C221.619 23.3637 221.777 22.2933 221.866 21.318C221.967 20.3427 222.024 19.4433 222.037 18.62C222.062 17.7967 222.075 17.0367 222.075 16.34V14.611ZM240.161 12.806H241.738V25.346H240.161V12.806ZM230.699 28.31H242.27V29.602H230.699V28.31ZM230.699 24.073H232.276V28.747H230.699V24.073ZM232.523 14.003C233.385 14.003 234.151 14.1803 234.822 14.535C235.494 14.8897 236.026 15.39 236.418 16.036C236.811 16.6693 237.007 17.3977 237.007 18.221C237.007 19.0443 236.811 19.779 236.418 20.425C236.026 21.0583 235.494 21.5587 234.822 21.926C234.151 22.2807 233.385 22.458 232.523 22.458C231.675 22.458 230.908 22.2807 230.224 21.926C229.553 21.5587 229.021 21.0583 228.628 20.425C228.236 19.779 228.039 19.0443 228.039 18.221C228.039 17.3977 228.236 16.6693 228.628 16.036C229.021 15.39 229.553 14.8897 230.224 14.535C230.908 14.1803 231.675 14.003 232.523 14.003ZM232.523 15.371C231.966 15.371 231.466 15.4913 231.022 15.732C230.579 15.9727 230.224 16.3083 229.958 16.739C229.705 17.1697 229.578 17.6637 229.578 18.221C229.578 18.791 229.705 19.2913 229.958 19.722C230.224 20.14 230.579 20.4693 231.022 20.71C231.466 20.9507 231.966 21.071 232.523 21.071C233.081 21.071 233.581 20.9507 234.024 20.71C234.48 20.4693 234.835 20.14 235.088 19.722C235.342 19.2913 235.468 18.791 235.468 18.221C235.468 17.6637 235.342 17.1697 235.088 16.739C234.835 16.3083 234.48 15.9727 234.024 15.732C233.581 15.4913 233.081 15.371 232.523 15.371Z" fill="white"/>
</svg>
