<svg width="334" height="44" viewBox="0 0 334 44" fill="none" xmlns="http://www.w3.org/2000/svg">
<rect width="334" height="44" rx="4" fill="#FEE500"/>
<path d="M107.175 29.9392C108.351 29.9246 109.191 29.8629 110.026 29.7227C111.756 29.4318 113.385 28.8626 114.888 27.9503C116.38 27.0436 117.628 25.8835 118.515 24.3645C119.457 22.7499 119.817 21.0151 119.526 19.1622C119.303 17.7462 118.71 16.4876 117.827 15.3651C116.601 13.8051 115.027 12.7078 113.213 11.9387C111.797 11.3384 110.318 10.9918 108.787 10.8666C107.722 10.7794 106.66 10.7963 105.602 10.9271C104.586 11.0523 103.592 11.2786 102.625 11.6173C100.801 12.256 99.1711 13.2089 97.8273 14.6125C96.4676 16.0324 95.6007 17.6931 95.4117 19.6746C95.2966 20.8783 95.4692 22.0425 95.906 23.1672C96.4668 24.6111 97.3803 25.8023 98.543 26.8113C99.2783 27.4492 100.087 27.9781 100.955 28.416C101.038 28.4578 101.05 28.4984 101.024 28.5781C100.979 28.7194 100.939 28.863 100.899 29.0062C100.551 30.2426 100.202 31.479 99.8542 32.7157C99.814 32.8589 99.7824 33.0097 99.9098 33.1206C100.045 33.2382 100.197 33.1841 100.342 33.1232C100.365 33.1134 100.388 33.1037 100.409 33.0909C100.584 32.9886 100.765 32.895 100.932 32.7819C102.372 31.8083 103.809 30.8301 105.249 29.8577C105.311 29.8163 105.402 29.7949 105.476 29.8005C106.152 29.8517 106.828 29.911 107.175 29.94L107.175 29.9392Z" fill="#FEE500"/>
<path d="M119.526 19.1622C119.303 17.7462 118.71 16.4876 117.827 15.3651C116.601 13.8051 115.027 12.7078 113.213 11.9387C111.797 11.3384 110.318 10.9918 108.787 10.8666C107.722 10.7794 106.66 10.7963 105.602 10.9271C104.586 11.0523 103.592 11.2786 102.625 11.6173C100.801 12.256 99.1711 13.2089 97.8273 14.6125C96.4676 16.0324 95.6007 17.6931 95.4117 19.6746C95.2966 20.8783 95.4692 22.0425 95.906 23.1672C96.4668 24.6111 97.3803 25.8023 98.543 26.8113C99.2783 27.4492 100.087 27.9781 100.955 28.416C101.038 28.4578 101.05 28.4984 101.024 28.5781C100.979 28.7194 100.939 28.863 100.899 29.0062C100.551 30.2426 100.202 31.479 99.8542 32.7157C99.814 32.8589 99.7824 33.0097 99.9098 33.1206C100.045 33.2382 100.197 33.1841 100.342 33.1232C100.365 33.1134 100.388 33.1037 100.409 33.0909C100.584 32.9886 100.765 32.895 100.932 32.7819C102.372 31.8083 103.809 30.8301 105.249 29.8577C105.31 29.8163 105.402 29.7949 105.476 29.8005C106.153 29.8517 106.828 29.911 107.175 29.94C108.351 29.9253 109.191 29.8637 110.026 29.7235C111.757 29.4325 113.386 28.8634 114.888 27.951C116.381 27.0443 117.628 25.8843 118.515 24.3652C119.458 22.7507 119.817 21.0158 119.526 19.163L119.526 19.1622Z" fill="black"/>
<path d="M136.327 14.592H137.866C137.866 19.551 136.194 24.111 130.038 27.17L129.183 25.954C134.617 23.275 136.327 19.437 136.327 14.763V14.592ZM130.114 14.592H137.258V15.865H130.114V14.592ZM136.08 18.848V20.064L129.506 20.71L129.259 19.304L136.08 18.848ZM140.64 12.787H142.236V29.982H140.64V12.787ZM141.799 19.76H144.972V21.071H141.799V19.76ZM153.805 14.592H155.344C155.344 19.551 153.672 24.111 147.516 27.17L146.661 25.954C152.095 23.275 153.805 19.437 153.805 14.763V14.592ZM147.592 14.592H154.736V15.865H147.592V14.592ZM153.558 18.848V20.064L146.984 20.71L146.737 19.304L153.558 18.848ZM158.118 12.787H159.714V29.982H158.118V12.787ZM159.277 19.76H162.45V21.071H159.277V19.76ZM170.942 22.515H172.519V26.79H170.942V22.515ZM171.74 13.927C175.369 13.927 177.972 15.694 177.972 18.43C177.972 21.166 175.369 22.933 171.74 22.933C168.111 22.933 165.489 21.166 165.489 18.43C165.489 15.694 168.111 13.927 171.74 13.927ZM171.74 15.181C169.004 15.181 167.009 16.473 167.009 18.43C167.009 20.387 169.004 21.679 171.74 21.679C174.457 21.679 176.452 20.387 176.452 18.43C176.452 16.473 174.457 15.181 171.74 15.181ZM163.988 26.486H179.549V27.797H163.988V26.486ZM186.68 26.562H202.241V27.873H186.68V26.562ZM193.634 22.876H195.211V27.113H193.634V22.876ZM188.561 14.079H200.322V19.285H190.176V22.724H188.618V18.012H198.764V15.352H188.561V14.079ZM188.618 22.059H200.721V23.351H188.618V22.059ZM205.83 14.63H216.888V15.903H205.83V14.63ZM204.158 26.163H219.681V27.474H204.158V26.163ZM216.052 14.63H217.591V16.34C217.591 18.544 217.591 20.995 216.945 24.7L215.368 24.548C216.052 21.033 216.052 18.468 216.052 16.34V14.63ZM234.12 12.825H235.716V25.365H234.12V12.825ZM224.677 28.31H236.229V29.602H224.677V28.31ZM224.677 24.073H226.235V28.747H224.677V24.073ZM226.501 14.003C229.066 14.003 230.966 15.751 230.966 18.24C230.966 20.71 229.066 22.477 226.501 22.477C223.936 22.477 222.017 20.71 222.017 18.24C222.017 15.751 223.936 14.003 226.501 14.003ZM226.501 15.371C224.829 15.371 223.556 16.549 223.556 18.24C223.556 19.912 224.829 21.09 226.501 21.09C228.173 21.09 229.446 19.912 229.446 18.24C229.446 16.549 228.173 15.371 226.501 15.371Z" fill="black"/>
</svg>
