<svg xmlns="http://www.w3.org/2000/svg" width="17" height="16" viewBox="0 0 17 16" fill="none">
  <mask id="mask0_3332_12537" style="mask-type:alpha" maskUnits="userSpaceOnUse" x="0" y="0" width="17" height="16">
    <rect x="0.5" width="16" height="16" fill="#D9D9D9"/>
  </mask>
  <g mask="url(#mask0_3332_12537)">
    <path d="M10.3161 7.99114L5.41615 3.09114C5.24948 2.92447 5.16892 2.73002 5.17448 2.5078C5.18004 2.28558 5.26615 2.09114 5.43281 1.92447C5.59948 1.7578 5.79392 1.67447 6.01615 1.67447C6.23837 1.67447 6.43281 1.7578 6.59948 1.92447L11.7328 7.04114C11.8661 7.17447 11.9661 7.32447 12.0328 7.49114C12.0995 7.6578 12.1328 7.82447 12.1328 7.99114C12.1328 8.1578 12.0995 8.32447 12.0328 8.49114C11.9661 8.6578 11.8661 8.8078 11.7328 8.94114L6.59948 14.0745C6.43281 14.2411 6.23559 14.3217 6.00781 14.3161C5.78003 14.3106 5.58281 14.2245 5.41615 14.0578C5.24948 13.8911 5.16615 13.6967 5.16615 13.4745C5.16615 13.2522 5.24948 13.0578 5.41615 12.8911L10.3161 7.99114Z" fill="white"/>
  </g>
</svg>