<svg xmlns="http://www.w3.org/2000/svg" width="32" height="42" viewBox="0 0 32 42" fill="none">
  <path d="M3 42C2.175 42 1.46883 41.7062 0.8815 41.1185C0.293834 40.5312 0 39.825 0 39V17.3C0 16.475 0.293834 15.7687 0.8815 15.181C1.46883 14.5937 2.175 14.3 3 14.3H6.5V9.5C6.5 6.87167 7.42683 4.63133 9.2805 2.779C11.1338 0.926334 13.3755 0 16.0055 0C18.6352 0 20.875 0.926334 22.725 2.779C24.575 4.63133 25.5 6.87167 25.5 9.5V14.3H29C29.825 14.3 30.5313 14.5937 31.119 15.181C31.7063 15.7687 32 16.475 32 17.3V39C32 39.825 31.7063 40.5312 31.119 41.1185C30.5313 41.7062 29.825 42 29 42H3ZM3 39H29V17.3H3V39ZM16.0085 32C17.0695 32 17.975 31.6328 18.725 30.8985C19.475 30.1642 19.85 29.2813 19.85 28.25C19.85 27.25 19.4722 26.3417 18.7165 25.525C17.9608 24.7083 17.0525 24.3 15.9915 24.3C14.9305 24.3 14.025 24.7083 13.275 25.525C12.525 26.3417 12.15 27.2583 12.15 28.275C12.15 29.2917 12.5278 30.1667 13.2835 30.9C14.0392 31.6333 14.9475 32 16.0085 32ZM9.5 14.3H22.5V9.5C22.5 7.69433 21.8687 6.15967 20.606 4.896C19.3433 3.632 17.81 3 16.006 3C14.202 3 12.6667 3.632 11.4 4.896C10.1333 6.15967 9.5 7.69433 9.5 9.5V14.3Z" fill="#C6C6C7"/>
</svg>