<svg width="6" height="14" viewBox="0 0 6 14" fill="none" xmlns="http://www.w3.org/2000/svg">
<path d="M3 3.24999C2.59722 3.24999 2.25347 3.10763 1.96875 2.82291C1.68403 2.53819 1.54167 2.19444 1.54167 1.79166C1.54167 1.38888 1.68403 1.04513 1.96875 0.760412C2.25347 0.475689 2.59722 0.333328 3 0.333328C3.40278 0.333328 3.74653 0.475689 4.03125 0.760412C4.31597 1.04513 4.45833 1.38888 4.45833 1.79166C4.45833 2.19444 4.31597 2.53819 4.03125 2.82291C3.74653 3.10763 3.40278 3.24999 3 3.24999ZM1.33333 12.8333V9.49999C1.09722 9.49999 0.899306 9.42013 0.739583 9.26041C0.579861 9.10069 0.5 8.90277 0.5 8.66666V5.74999C0.5 5.29166 0.663194 4.8993 0.989583 4.57291C1.31597 4.24652 1.70833 4.08333 2.16667 4.08333H3.83333C4.29167 4.08333 4.68403 4.24652 5.01042 4.57291C5.33681 4.8993 5.5 5.29166 5.5 5.74999V8.66666C5.5 8.90277 5.42014 9.10069 5.26042 9.26041C5.10069 9.42013 4.90278 9.49999 4.66667 9.49999V12.8333C4.66667 13.0694 4.58681 13.2674 4.42708 13.4271C4.26736 13.5868 4.06944 13.6667 3.83333 13.6667H2.16667C1.93056 13.6667 1.73264 13.5868 1.57292 13.4271C1.41319 13.2674 1.33333 13.0694 1.33333 12.8333Z" fill="white"/>
</svg>
