<svg width="28" height="28" viewBox="0 0 28 28" fill="none" xmlns="http://www.w3.org/2000/svg">
<rect width="28" height="28" rx="14" fill="#AAABAB"/>
<path d="M8.25065 17.3737C7.9451 16.8459 7.71593 16.3043 7.56315 15.7487C7.41037 15.1931 7.33398 14.6237 7.33398 14.0404C7.33398 12.1793 7.97982 10.5959 9.27148 9.29036C10.5632 7.98481 12.1395 7.33203 14.0007 7.33203H14.1465L12.8132 5.9987L13.9798 4.83203L17.3132 8.16536L13.9798 11.4987L12.8132 10.332L14.1465 8.9987H14.0007C12.6118 8.9987 11.4312 9.48828 10.459 10.4674C9.48676 11.4466 9.00065 12.6376 9.00065 14.0404C9.00065 14.4015 9.04232 14.7556 9.12565 15.1029C9.20898 15.4501 9.33398 15.7904 9.50065 16.1237L8.25065 17.3737ZM14.0215 23.1654L10.6882 19.832L14.0215 16.4987L15.1882 17.6654L13.8548 18.9987H14.0007C15.3895 18.9987 16.5701 18.5091 17.5423 17.5299C18.5145 16.5508 19.0007 15.3598 19.0007 13.957C19.0007 13.5959 18.959 13.2418 18.8757 12.8945C18.7923 12.5473 18.6673 12.207 18.5007 11.8737L19.7507 10.6237C20.0562 11.1515 20.2854 11.6931 20.4382 12.2487C20.5909 12.8043 20.6673 13.3737 20.6673 13.957C20.6673 15.8181 20.0215 17.4015 18.7298 18.707C17.4382 20.0126 15.8618 20.6654 14.0007 20.6654H13.8548L15.1882 21.9987L14.0215 23.1654Z" fill="white"/>
</svg>
